STARTFONT 2.3
FONT -FontForge-Bungee Shade-Book-R-Normal--24-240-72-72-P-205-ISO10646-1
SIZE 24 72 72  4
FONTBOUNDINGBOX 62 62 -15 -22
COMMENT "Generated by fontforge, http://fontforge.sourceforge.net"
COMMENT "Copyright 2008 The Bungee Project Authors (david@djr.com)"
STARTPROPERTIES 40
FOUNDRY "FontForge"
FAMILY_NAME "Bungee Shade"
WEIGHT_NAME "Book"
SLANT "R"
SETWIDTH_NAME "Normal"
ADD_STYLE_NAME ""
PIXEL_SIZE 24
POINT_SIZE 240
RESOLUTION_X 72
RESOLUTION_Y 72
SPACING "P"
AVERAGE_WIDTH 205
CHARSET_REGISTRY "ISO10646"
CHARSET_ENCODING "1"
FONTNAME_REGISTRY ""
CHARSET_COLLECTIONS "ISO8859-2 ISO8859-9 ISO8859-4 ISO10646-1"
BITS_PER_PIXEL 4
FONT_NAME "BungeeShade-Regular"
FACE_NAME "Bungee Shade"
COPYRIGHT "Copyright 2008 The Bungee Project Authors (david@djr.com)"
FONT_VERSION "1.000;PS 1.0;hotconv 1.0.72;makeotf.lib2.5.5900"
FONT_ASCENT 21
FONT_DESCENT 3
UNDERLINE_POSITION 0
UNDERLINE_THICKNESS 0
X_HEIGHT 17
CAP_HEIGHT 17
RAW_ASCENT 860
RAW_DESCENT 140
NORM_SPACE 8
RELATIVE_WEIGHT 40
RELATIVE_SETWIDTH 50
SUPERSCRIPT_X 0
SUPERSCRIPT_Y 8
SUPERSCRIPT_SIZE 14
SUBSCRIPT_X 0
SUBSCRIPT_Y 1
SUBSCRIPT_SIZE 14
AVG_LOWERCASE_WIDTH 195
AVG_UPPERCASE_WIDTH 199
ENDPROPERTIES
CHARS 1065
STARTCHAR space
ENCODING 32
SWIDTH 325 0
DWIDTH 8 0
BBX 1 1 0 0
BITMAP
00
ENDCHAR
STARTCHAR exclam
ENCODING 33
SWIDTH 524 0
DWIDTH 13 0
BBX 11 21 1 -3
BITMAP
000534444410
007B00000130
07FC00000120
6FFC00400220
9FFD00400210
8FFE00400310
7FFE00400300
7FFF00400400
6FFF00400400
6FFF10300400
5FFF10000400
5FFF30000400
4FFFECCCB300
3FFFA9995400
09FC00000130
1BFC00300130
7FFC00000130
8FFD00000220
8FFFEDDDD800
8FFFFFFF6000
5FFFFFD30000
ENDCHAR
STARTCHAR quotedbl
ENCODING 34
SWIDTH 746 0
DWIDTH 18 0
BBX 18 12 0 6
BITMAP
000644444626444443
009E000004E5000004
1CFE003004F5003004
6FFE004005F6004004
7FFF004005F6004004
6FFF004006F7004004
6FFF004006F7004004
5FFF100007F7000004
5FFF200008F9000013
4FFFEDDDDFFFDDDD80
4FFFFFFCDFFFFFF600
2EFFFFA19FFFFD4000
ENDCHAR
STARTCHAR numbersign
ENCODING 35
SWIDTH 850 0
DWIDTH 20 0
BBX 21 21 0 -3
BITMAP
0000002644440254444000
000003D300042D30004000
00004EF10106EF10104000
0000DA9003079901204500
0008700022000003100120
00AF700030000004000120
0AFF701464444446430120
0DFF800040000004000220
0DFFEB30405BB30405B500
0DFFFF20409FF204096000
0BFEA90030799013055100
0089000220000031000400
09F9014644444464300400
9FF9000400000040000400
BFFC210401221040124300
BFFFF40307FF40308E5000
BFFFF20009FF2000830000
5BFFF1000CFF1000400000
02FFFEDDBFFFEDD9000000
04FFFFF84FFFFF80000000
03EFFE603EFFE600000000
ENDCHAR
STARTCHAR dollar
ENCODING 36
SWIDTH 750 0
DWIDTH 18 0
BBX 18 25 0 -5
BITMAP
000000004444430000
0000001C2000040000
000002640040024440
000001000040000040
000230000040000040
003E10024454441040
04FF00230000000050
0EFF004006FFFFFB10
4FFF0040029BDFB000
5FFF00400000003420
5FFF30141000000031
5FFF90002333310004
4FFFFA300000023004
2FFFFFFEB973003004
09FFFFFFFFFD003004
006E53333332004003
006F00000000014004
08FF00344454430013
4FFF00000040000150
5FFF42220030027700
5FFFFFFF20000A7000
5FFFFFFF4000050000
3EFFFFFFFDDDA10000
00003FFFFFF9000000
00001EFFFF70000000
ENDCHAR
STARTCHAR percent
ENCODING 37
SWIDTH 1131 0
DWIDTH 27 0
BBX 27 21 0 -3
BITMAP
0000233333310015443400000000
00044000000111B0000400000000
006D004344003BB0001300000000
08FC04000040AF70304000000000
4FFC040AC040AF40404000000000
8FFC040BD040AF00404000000000
8FFC040BD040AB02204000000000
8FFC04067040A804041134444100
8FFD04000040B404053100000330
8FFF30434401E104095024442040
7FFFD520015CC0220E2130004040
4FFFFFFFFFFF80403F2315F22240
0BFFFFFFD7FF50407F2316F32240
006BDDC819FF1040AF2316F32240
000000000CFC0220EF2315E22240
000000001FF90302FF3130004040
000000005FF50006FF7024442040
000000008FF5001BFFE610001510
00000000CFFFFFBFFFFFFEDEB100
00000001FFFFF90CFFFFFFF90000
00000001EFFE60019DFFEB500000
ENDCHAR
STARTCHAR ampersand
ENCODING 38
SWIDTH 866 0
DWIDTH 21 0
BBX 21 21 0 -3
BITMAP
0000002444444445000000
0000044000000003000000
0000690000000003000000
0008F50014444203000000
006FF40050000004000000
00DFF402205EFFE5000000
01FFF503106FFE40000000
01FFFB0210007300000000
00FFFB3040004044444430
00CF800355204B30000040
009E004000005F30341040
09FB003001229F30400040
4FFA01300FFFFF30400040
9FFA00300EDFFE10400920
AFFA005000000000400400
AFFD001444444444001300
AFFF600000000000005000
7FFFF81000000000162000
2FFFFFFEDDDDDDDEB10000
07FFFFFFFFFFFFF8000000
004BEFFFFFFFDB40000000
ENDCHAR
STARTCHAR quotesingle
ENCODING 39
SWIDTH 456 0
DWIDTH 11 0
BBX 11 12 0 6
BITMAP
000454444420
006F20000030
09FF20120130
3FFF30130120
3FFF30130220
2FFF40130220
2FFF40130210
2FFF40000310
1FFF60000400
1FFFFDDDD500
0FFFFFFE4000
0CFFFFC20000
ENDCHAR
STARTCHAR parenleft
ENCODING 40
SWIDTH 529 0
DWIDTH 13 0
BBX 13 25 0 -5
BITMAP
00000024444400
00000420000130
00018000000030
002D4002430030
02EF0023000030
0CFE0040003510
3FFE004008D200
5FFE0040071000
6FFE0040040000
6FFE0040040000
6FFE0040040000
6FFE0040040000
6FFE0040040000
6FFE0040040000
6FFE0040040000
6FFE0040040000
6FFE0040040000
6FFE0040024500
6FFF1023000130
6FFF6002430030
6FFFE200000030
3FFFFE62000230
0DFFFFFFFED700
03EFFFFFFE5000
0017CEFFD30000
ENDCHAR
STARTCHAR parenright
ENCODING 41
SWIDTH 529 0
DWIDTH 13 0
BBX 13 25 0 -5
BITMAP
00024433310000
002B0000034000
03ED0000001400
3EFD0044100400
7FFD0000400310
8FFE1000130220
8FFFFF40040120
7FFFFF70040120
3CEFFF70040120
000EFF70040120
000EFF70040120
000EFF70040120
000EFF70040120
000EFF70040120
000EFF70040120
000EFF70040120
000EFF70040120
000EFE40130220
002D1000400300
04ED0034100400
4FFD0000003200
7FFE0000262000
8FFFEDEFC20000
7FFFFFFB100000
5FFFDA50000000
ENDCHAR
STARTCHAR asterisk
ENCODING 42
SWIDTH 818 0
DWIDTH 20 0
BBX 19 18 0 0
BITMAP
00000000353446000000
00000005F40004000000
0000007FF60204000000
0000367EF80404044500
0005E100680405400220
007FA000000400000040
02FF5003441414430040
07FF8310003930001360
0CFFFFFD4041405DFB10
1FFFFFF80220220A9000
07BDFF90040304005000
00005C00102E10100400
0003EE5000AF90005200
003EFFF913FFF2171000
009FFFFFDDFFFD900000
001AFFFE49FFF7000000
00006ED302ED30000000
00000110002000000000
ENDCHAR
STARTCHAR plus
ENCODING 43
SWIDTH 834 0
DWIDTH 20 0
BBX 18 18 1 -1
BITMAP
000000004444500000
0000000A4000220000
000001BF3000120000
00000CFF3040120000
00002FFF3040120000
000449992040144444
008700000040000004
1AF702444464444204
AFF700000040000004
DFF800000040000004
DFFFDDDD30401DDDC3
DFFFFFFF30401FFD20
AFFFFFFF30401FB100
00002FFF3000120000
00002FFF5000210000
00002FFFFDDC500000
00002FFFFFE4000000
00001DFFFD30000000
ENDCHAR
STARTCHAR comma
ENCODING 44
SWIDTH 484 0
DWIDTH 12 0
BBX 11 14 0 -6
BITMAP
000154444440
001C10000040
02DF10000040
1DFF11445040
4FFF10004040
4FFF30004040
4FFFFEE73040
4FFF92204040
2FFF61441040
04EF70002500
0DFFFDDE8000
0EFFFFF60000
0CFFFC400000
001100000000
ENDCHAR
STARTCHAR hyphen
ENCODING 45
SWIDTH 520 0
DWIDTH 12 0
BBX 13 8 0 3
BITMAP
00034444444500
006B0000000220
09FB0044430220
8FFB0000000220
9FFC0000000310
9FFFEDDDDDD700
9FFFFFFFFE5000
7FFFFFFFD30000
ENDCHAR
STARTCHAR period
ENCODING 46
SWIDTH 484 0
DWIDTH 12 0
BBX 11 10 0 -3
BITMAP
000154444440
002C20000040
03EF10010040
2FFF10040040
4FFF10040040
4FFF10000040
4FFF20000040
4FFFEDDDDC40
4FFFFFFFD200
2EFFFFFA1000
ENDCHAR
STARTCHAR slash
ENCODING 47
SWIDTH 487 0
DWIDTH 12 0
BBX 12 25 0 -4
BITMAP
000000444443
00000A500004
0001CF200004
000DFF004004
002FFD004004
004FFA004012
006FF8004030
008FF6012040
00AFF4030040
00DFF2040040
00FFE0040040
02FFC0040040
04FFA0040220
06FF80040400
08FF60120400
0BFF40300400
0DFF10400400
0FFE00400400
2FFC00400400
4FFA00402200
7FF800004000
9FF700004000
BFFFEDDC3000
DFFFFFC10000
BFFFFA100000
ENDCHAR
STARTCHAR zero
ENCODING 48
SWIDTH 827 0
DWIDTH 20 0
BBX 20 21 0 -3
BITMAP
00000024444444342000
00000420000000002500
00019000233334200040
003D6005200000240040
03EF3013000000031030
0CFF203003DFD3003031
1FFF204006FFF6004031
3FFF204006FFF6004031
3FFF204004EFF6004031
3FFF204004EFF6004031
3FFF204004EFF6004031
3FFF204004EFF6004031
3FFF203003EFF6003031
3FFF3013019B91031031
3FFF4005200000240040
2FFF9000244444200040
1FFFF500000000000420
0CFFFFB5200000258200
04FFFFFFFFEDEFFA1000
005EFFFFFFFFFF700000
00017BDEFEDB82000000
ENDCHAR
STARTCHAR one
ENCODING 49
SWIDTH 701 0
DWIDTH 17 0
BBX 17 21 0 -3
BITMAP
000164444444420000
001C60000000030000
02DF60000000040000
0CFF60244430040000
0EFF60000040040000
0EFFC7730040040000
0EFFFFF70040040000
0DFFFFF70040040000
0366EFF70040040000
0000DFF70040040000
0000DFF70040040000
0000DFF70040040000
0000DFF70040040000
000199940040054420
003C00000040000040
05EE00344454440040
4FFE00000000000040
6FFE00000000000040
6FFFEDDDDDDDDDDA10
6FFFFFFFFFFFFF8000
4EFFFFFFFFFFE60000
ENDCHAR
STARTCHAR two
ENCODING 50
SWIDTH 739 0
DWIDTH 18 0
BBX 18 21 0 -3
BITMAP
000064444444444200
000A90000000000320
01CF90000000000040
09FF90144444420040
0BFFB0000000041031
0BFFFEDDDDD3013031
0BFFFFFFFFB2013031
07FFFFFA5100022040
000026100000340040
000370001333000230
004E10132000005400
05FD003000038D4000
1EFB003007DFD20000
5FFB00300899544440
8FFB00300000000021
9FFB00444444443022
9FFB00000000000022
9FFC00000000000031
9FFFEDDDDDDDDDDD50
9FFFFFFFFFFFFFE400
6FFFFFFFFFFFFC2000
ENDCHAR
STARTCHAR three
ENCODING 51
SWIDTH 737 0
DWIDTH 18 0
BBX 18 21 0 -3
BITMAP
000544444444442000
006E00000000004100
08FE00000000000400
5FFE00344444000400
6FFF00000000400400
6FFFECCCCC10400300
6FFFFFFFFE10400300
4FFFFE100000304100
0012CD000000402420
001CFD004446420040
006FFD000000022012
007FFE211110003004
007FFFFFFFFA004004
006FFFFFFFF9004004
002E20000000023003
03DE00444444430031
3EFE00000000000040
6FFF10000000003500
6FFFEDDDDDDDDE7000
6FFFFFFFFFFFF50000
4EFFFFFFFFDA300000
ENDCHAR
STARTCHAR four
ENCODING 52
SWIDTH 809 0
DWIDTH 19 0
BBX 19 21 0 -3
BITMAP
00026444450054444420
003E40000306B0000030
04EF4000046FB0000040
0EFF402204FFB0040040
1FFF402204FFB0040040
1FFF402204FFB0040040
1FFF402204FFB0040040
1FFF402204FFB0040040
1FFF402202EFA0040040
1FFF4013000000040040
1FFF4004000000040040
1FFF7001444444450040
0FFFD000000000040040
0DFFFB30000000040040
09FFFFFEDDDD90040040
01EFFFFFFFFFB0040040
002AEFFFFFFFB0000040
000000000AFFC0000030
000000000AFFFEDDD700
000000000AFFFFFF6000
0000000007FFFFE40000
ENDCHAR
STARTCHAR five
ENCODING 53
SWIDTH 747 0
DWIDTH 18 0
BBX 18 21 0 -3
BITMAP
000164444444444440
002D50000000000040
03EF50000000000040
0EFF50154444441040
0FFF50130000000030
0FFF50130299999820
0FFF501304FFFFD200
0FFF50130000013510
0FFF50130000000040
0FFF50154444440003
0FFF50000000014003
0FFF81111110004004
0FFFFFFFFFFB004004
0FFFFFFFFFFA004004
059F40000000014004
02DF10344444440003
1EFF10000000000050
4FFF20000000002610
4FFFEDDDDDDDDEA000
4FFFFFFFFFFFF70000
2EFFFFFFFFEA400000
ENDCHAR
STARTCHAR six
ENCODING 54
SWIDTH 793 0
DWIDTH 19 0
BBX 19 21 0 -3
BITMAP
00000044444444444000
00001500000000004000
0002A001444444104000
004E6005000000004000
03FF3012000000004000
0BFF202103EFFFFA1000
1FFF202106CAAAA41000
2FFF2021000000004300
3FFF2021334444300400
3FFF2024000000230030
3FFF2022002300040030
3FFF202105FFB0040040
3FFF202106FFD0040040
3FFF301204EF90040040
3FFF4005100000320040
2FFF9000333333200220
1FFFF500000000001400
0CFFFFA5100000375000
05FFFFFFFEEDEFE40000
006FFFFFFFFFFD200000
00027BDEFEDA50000000
ENDCHAR
STARTCHAR seven
ENCODING 55
SWIDTH 727 0
DWIDTH 17 0
BBX 17 21 0 -3
BITMAP
000644444444444440
00AA00000000000040
1BFA00000000000040
9FFA01444444450040
AFFB00000000040040
AFFFEDDDDDD1040040
AFFFFFFFFFF2040040
7FFFFFFFFC71040030
000000142000040030
000003400000340040
00005B000144100220
0006F8004300004400
004FF70040037B3000
00AFF600400ED20000
00DFF6004009100000
00EFF6004004000000
00EFF6000004000000
00EFF8000013000000
00EFFFDDDD70000000
00EFFFFFF500000000
00BFFFFD3000000000
ENDCHAR
STARTCHAR eight
ENCODING 56
SWIDTH 811 0
DWIDTH 19 0
BBX 19 21 0 -3
BITMAP
00000023333434441000
00000420000000004100
00009400344444100400
001BF103200000410400
00BFF00401BC70030400
02FFF10403FFC0040300
04FFF40401DF90040400
05FFFD14100000415200
03FFD200675468300410
01EF4006100000240040
01BF0040000000030040
0BFE003009FFE3012040
3FFD00400CFFF6012040
6FFD003008EFD3012030
7FFE0040000000030040
7FFF3015000000250040
6FFFC100344444200410
4FFFFE84100000258200
0CFFFFFFFEEDEFFB1000
01BFFFFFFFFFFF800000
00049CEFFEDB72000000
ENDCHAR
STARTCHAR nine
ENCODING 57
SWIDTH 793 0
DWIDTH 19 0
BBX 19 21 0 -3
BITMAP
00000044444444430000
00002400000000015100
00047001433343000500
006F2024000000500310
07FE0040002200030130
1FFD004009FF70030030
5FFD00400AFF90040040
7FFD004007FE60040040
7FFE0022000000640040
7FFF3002344444240040
6FFFB000000000040040
4FFFFC62101330040040
0DFFFFFFFFFF80040040
04EFFFA9999820030030
0015DB00000000400210
0009FB00444444100400
008FFB00000000002300
009FFC00000000263000
009FFFEDDDDDDED30000
009FFFFFFFFFFB100000
006FFFFFFFDB50000000
ENDCHAR
STARTCHAR colon
ENCODING 58
SWIDTH 484 0
DWIDTH 12 0
BBX 11 19 0 -3
BITMAP
000144444440
001C10000040
02DF10000040
1EFF10040040
4FFF10040040
4FFF10010040
4FFF10000030
4FFF96666650
4FFFFFFFF800
3FFFC9998440
07AF20000040
03EF10010040
2FFF10040040
4FFF10040040
4FFF10000040
4FFF20000040
4FFFEDDDDC40
4FFFFFFFD200
2EFFFFFA1000
ENDCHAR
STARTCHAR semicolon
ENCODING 59
SWIDTH 484 0
DWIDTH 12 0
BBX 11 22 0 -6
BITMAP
000154444440
002D20000040
04EF10010040
2FFF10040040
4FFF10040040
4FFF10000030
4FFF52222240
4FFFFFFFF910
4FFFC9998440
19BF10000040
01CF10000040
1DFF11445040
4FFF10004040
4FFF30004040
4FFFFEE73040
4FFF92204040
2FFF61441040
05EF70002500
0DFFFDDE8000
0EFFFFF60000
0CFFFC400000
001100000000
ENDCHAR
STARTCHAR less
ENCODING 60
SWIDTH 814 0
DWIDTH 20 0
BBX 17 18 1 -2
BITMAP
000000000000244450
000000000344200040
000001444100001040
000044000013441040
000820024430000050
01BC00420000148A30
0CFA0030037BFFC100
6FFA00304EFFF90000
9FFB00400047530000
AFFC00430000014430
AFFF40003442000040
9FFFF8200002442040
6FFFFFFC8400000040
1CFFFFFFFFEA610040
006CFFFFFFFFFFC860
000016AEFFFFFFFA00
0000000048CFFF8000
000000000001540000
ENDCHAR
STARTCHAR equal
ENCODING 61
SWIDTH 834 0
DWIDTH 20 0
BBX 18 15 1 0
BITMAP
000444444444444444
009700000000000004
1BF701444444444204
BFF700000000000004
DFFB33333333333336
DFFFFFFFFFFFFFFFC2
DFFFFFFFFFFFFFFA10
7BBDA9999999999444
008700000000000004
1AF701444444444204
BFF700000000000004
DFF800000000000004
DFFFDDDDDDDDDDDDC3
DFFFFFFFFFFFFFFD20
AFFFFFFFFFFFFFB100
ENDCHAR
STARTCHAR greater
ENCODING 62
SWIDTH 814 0
DWIDTH 20 0
BBX 18 18 1 -2
BITMAP
000633330000000000
009E00003331000000
1BFE00000002332000
6FFE00344100001310
6FFF20000244300040
6FFFFB730000142022
6FFFFFFFEA62004013
3EFFFFFFFFFD004003
0148CFFEA620004013
000023300000033031
001A00000144410050
02CE00244300004810
2EFE001000159EA100
6FFE00037CFFF80000
6FFF79EFFFFB400000
6FFFFFFEA510000000
6FFFC7300000000000
285100000000000000
ENDCHAR
STARTCHAR question
ENCODING 63
SWIDTH 756 0
DWIDTH 18 0
BBX 18 21 0 -3
BITMAP
000544444444444300
008D00000000000150
0AFD00000000000023
6FFD00444444440004
8FFE00000000004004
8FFFEDDDDDDB004004
7FFFFFFFECA6004004
5FFFFE410000004003
00009C000000134004
001BFE003433310022
008FFF200000000550
007FFF5013579BE500
005FFFFEFFFFFE4000
003FFD211115B20000
000EFC000002200000
002DFC003002200000
008FFC000002200000
009FFD000003100000
009FFFEDDDC5000000
009FFFFFFE30000000
006FFFFFC200000000
ENDCHAR
STARTCHAR at
ENCODING 64
SWIDTH 967 0
DWIDTH 23 0
BBX 23 25 0 -4
BITMAP
000000002444444443000000
000000343444444443440000
000005253000000002435100
0001A24049CEFFEDB6123400
003D7409FFFFFFFFFFD24310
02EF433FEDDFFFFFFFF83040
0AFF33401442222222DB3140
0EFF34438014344430CB3140
1FFF345F3050000040CB3140
2FFF346F0210DF5040CB3140
2FFF346F0311FF5040CB3140
2FFF346F0311FF5040CB3140
2FFF346F0311FF5040CB3140
2FFF346F0311FF5040CA3040
2FFF346F0220452040B64040
2FFF346F2040000040115310
2FFF346F8024444454430500
2FFF545FF610000000047100
2FFF942FFFFDDDDDDDFA0000
0FFFE344DFFFFFFFFF800000
0BFFFD553478999997300000
05FFFFFB7754444441400000
009FFFFFFFFEEDDDDC300000
0007EFFFFFFFFFFFC2000000
0000169CEFFFFFFA10000000
ENDCHAR
STARTCHAR A
ENCODING 65
SWIDTH 830 0
DWIDTH 20 0
BBX 20 21 0 -3
BITMAP
00000014444444451000
00000090000000004000
00000A80000000004000
00009F30034443002200
0004FC00210002200400
000AF600305F30300400
001FF10120AF80210130
007FB00300EFC0030040
00CF600204FFF2020040
03FF3020001110002031
09FF1030000000003013
0EFF1044444444444003
2FFF1040000000004003
4FFF1040000000004003
4FFF10400AFFF8004003
4FFF10400AFFF8004003
4FFF100009FFF8000003
4FFF200004CFFA000022
4FFFEDDDA1CFFFDDDD50
4FFFFFF900CFFFFFE400
2EFFFE70008FFFFD3000
ENDCHAR
STARTCHAR B
ENCODING 66
SWIDTH 825 0
DWIDTH 20 0
BBX 19 21 1 -3
BITMAP
00164444444444410000
02C60000000000041000
3EF60000000000004000
DFF60054444441004000
EFF60040000005003000
EFF600403FF803104000
EFF600403FFB02104000
EFF60040299402113000
EFF60040000004044100
EFF60064444465300500
EFF60040000000140120
EFF600402DDD80040040
EFF600403FFFD0040040
EFF600403FFF90040040
EFF60040000000140040
EFF60054444444400130
EFF60000000000000400
EFF80000000000025200
EFFFDDDDDDDDDDEB1000
EFFFFFFFFFFFFF900000
BFFFFFFFFFFEB5000000
ENDCHAR
STARTCHAR C
ENCODING 67
SWIDTH 728 0
DWIDTH 17 0
BBX 17 21 0 -3
BITMAP
000000444444444450
000015100000000030
0002A0000000000030
003E60014444442030
03EF30050000000030
0BFF202202BDDDDC30
1FFF203005FFFFD200
2FFF204006FFFB1000
3FFF20400400000000
3FFF20400400000000
3FFF20400400000000
3FFF20400400000000
3FFF20300400000000
3FFF30220144444440
3FFF50050000000040
2FFF90014444442030
1FFFF4000000000030
0BFFFF830000000040
04FFFFFFEDDDDDDC40
007FFFFFFFFFFFD300
0003ADFFFFFFFB1000
ENDCHAR
STARTCHAR D
ENCODING 68
SWIDTH 846 0
DWIDTH 20 0
BBX 19 21 1 -3
BITMAP
00164444444444441000
02C60000000000003300
3EF60000000000000400
DFF60054444444100040
EFF60040000000420040
EFF60040144410040040
EFF600402FFFC0040040
EFF600402FFFD0040040
EFF600402EFFD0040040
EFF6004029FFD0040040
EFF6004029FFD0040040
EFF6004029FFD0040040
EFF6004029FFC0040040
EFF60040179950040040
EFF60040000000330040
EFF60054444444200210
EFF60000000000001300
EFF80000000000154000
EFFFDDDDDDDDDEE50000
EFFFFFFFFFFFFD300000
BFFFFFFFFFEC71000000
ENDCHAR
STARTCHAR E
ENCODING 69
SWIDTH 754 0
DWIDTH 18 0
BBX 17 21 1 -3
BITMAP
001644444444444430
02C600000000000040
3EF600000000000040
DFF600544444440040
EFF600400000000030
EFF600403DDDDDD900
EFF600403FFFFF8000
EFF600400000014000
EFF600400000004000
EFF600644444104000
EFF600400000003000
EFF600401666662000
EFF600403FFFE30000
EFF600402999644420
EFF600400000000040
EFF600544444440040
EFF600000000000040
EFF800000000000040
EFFFDDDDDDDDDDDA10
EFFFFFFFFFFFFF9000
BFFFFFFFFFFFE60000
ENDCHAR
STARTCHAR F
ENCODING 70
SWIDTH 718 0
DWIDTH 17 0
BBX 17 21 1 -3
BITMAP
001644444444444500
02C600000000000210
3EF600000000000210
DFF600544444430210
EFF600400000000310
EFF600401888888400
EFF600402FFFFF7000
EFF600402FFFF80000
EFF600400000041000
EFF600400000012000
EFF600644443012000
EFF600400000032000
EFF600402DDDD80000
EFF600402FFE500000
EFF600402FD3000000
EFF600202200000000
EFF600002200000000
EFF800002100000000
EFFFDDDC3000000000
EFFFFFD20000000000
BFFFFC200000000000
ENDCHAR
STARTCHAR G
ENCODING 71
SWIDTH 808 0
DWIDTH 19 0
BBX 19 21 0 -3
BITMAP
00000044444444445100
00001610000000001200
0002A000000000001200
003E6001444444301200
03EF3005000000002100
0BFF202202BDDDDC5000
1FFF203006FFFFE30000
2FFF204006FFFC200000
3FFF2040040015444430
3FFF20400402C1000040
3FFF2040043EF0010040
3FFF204005EFF0040040
3FFF203005FFF0040040
3FFF3022003330040040
3FFF5006000000040040
2FFF9000444444450040
1FFFF400000000000040
0BFFFF83000000000030
04FFFFFFEDDDDDDDDA10
007FFFFFFFFFFFFFA100
0003ADFFFFFFFFF80000
ENDCHAR
STARTCHAR H
ENCODING 72
SWIDTH 859 0
DWIDTH 21 0
BBX 19 21 1 -3
BITMAP
00164444500054444430
02C600002207D0000040
3EF60000229FD0000040
DFF6004027FFD0040040
EFF6004029FFD0040040
EFF6004029FFD0040040
EFF60040179980040040
EFF60040000000040040
EFF60040000000040040
EFF60064444444450040
EFF60040000000040040
EFF60040000000040040
EFF600402FFFD0040040
EFF600402FFFD0040040
EFF600402EFFD0040040
EFF6004029FFD0040040
EFF6000029FFD0000040
EFF8000038FFE0000040
EFFFDDDD57FFFEDDD910
EFFFFFE407FFFFFF8000
BFFFFC2004FFFFE60000
ENDCHAR
STARTCHAR I
ENCODING 73
SWIDTH 705 0
DWIDTH 17 0
BBX 17 21 0 -3
BITMAP
000354444444444510
004E00000000000030
06FF00000000000030
3FFF00344454430030
4FFF10000120000030
4FFFA7720120177500
4FFFFFF401203F9000
4FFFFFF40120380000
0566FFF40120300000
0001FFF40120300000
0001FFF40120300000
0001FFF40120300000
0001FFF40120300000
0001C9920120244500
002C10000120000130
03EF00344454430030
2FFF00000000000030
4FFF20000000000130
4FFFEDDDDDDDDDD700
4FFFFFFFFFFFFE5000
2EFFFFFFFFFFD30000
ENDCHAR
STARTCHAR J
ENCODING 74
SWIDTH 788 0
DWIDTH 19 0
BBX 18 21 0 -3
BITMAP
000000000002544445
00000000003E400003
0000000004EF401104
000000001EFF402104
000000001FFF402104
000000001FFF402104
000000001FFF402104
000000001FFF402104
000244445FFF402104
005B00001FFF402104
07FB00101FFF402104
6FFB00401FFF402104
9FFB00400EFF203104
9FFC00400132004003
9FFD00240000023003
9FFF30014434420004
7FFFC1000000000041
3FFFFE730000025710
0BFFFFFFFEDEEF9000
01BFFFFFFFFFF70000
00049DEFEDB7200000
ENDCHAR
STARTCHAR K
ENCODING 75
SWIDTH 846 0
DWIDTH 20 0
BBX 19 21 1 -3
BITMAP
00164444500054444600
02C60000220A20000400
3EF6000022AB00000400
DFF600402BF501303100
EFF600402FE004004000
EFF600402F8004013000
EFF600402F2031040000
EFF60040030040034200
EFF60040000220000400
EFF60064444543300040
EFF60040000000130040
EFF60040044410030040
EFF600402FFFB0040040
EFF600402FFFC0040040
EFF600402EFFC0040040
EFF600402AFFC0040040
EFF600002AFFC0000040
EFF8000039FFD0000040
EFFFDDDD58FFFEDDD900
EFFFFFE408FFFFFF8000
BFFFFC2005FFFFE50000
ENDCHAR
STARTCHAR L
ENCODING 76
SWIDTH 795 0
DWIDTH 19 0
BBX 18 21 1 -3
BITMAP
001644445000000000
02C600002200000000
3EF600202200000000
DFF600402200000000
EFF600402200000000
EFF600402200000000
EFF600402200000000
EFF600402200000000
EFF600402200544442
EFF60040221B300004
EFF6004024DF201004
EFF600402FFF204004
EFF600402FFF204004
EFF600401444104004
EFF600400000004004
EFF600544444445004
EFF600000000000004
EFF800000000000004
EFFFDDDDDDDDDDDDA1
EFFFFFFFFFFFFFF900
BFFFFFFFFFFFFF7000
ENDCHAR
STARTCHAR M
ENCODING 77
SWIDTH 949 0
DWIDTH 23 0
BBX 21 21 1 -3
BITMAP
0016444442000044444340
02C6000003000560000030
3EF6000001105D00000040
DFF600440024F600430040
EFF60132301CD005040040
EFF6013032076041040040
EFF6013004100220040040
EFF6013000401400040040
EFF6013020144011040040
EFF6013045000081040040
EFF601304C0001E1040040
EFF601304F822BF1040040
EFF601304FFFFFF1040040
EFF601304FFBFFF1040040
EFF601304D54FFF1040040
EFF601304004FFF1030040
EFF600004004FFF1000040
EFF800004004FFF2000040
EFFFDDDC3004FFFEDDDA10
EFFFFFD20004FFFFFFA100
BFFFFB100002EFFFF80000
ENDCHAR
STARTCHAR N
ENCODING 78
SWIDTH 853 0
DWIDTH 20 0
BBX 19 21 1 -3
BITMAP
00164434200044444430
02C600003005C0000040
3EF60000024FD0000040
DFF6017100BFD0040040
EFF60135001DD0040040
EFF601305003C0040040
EFF60130040040040040
EFF60130014000040040
EFF60130002300040040
EFF60130210230040040
EFF601304A0032040040
EFF601304F8003140040
EFF601304FF500440040
EFF601304FFE30050040
EFF601304FFFC0040040
EFF601304FFFD0040040
EFF600004DFFD0000040
EFF8000047FFE0000040
EFFFDDDC47FFFEDDD700
EFFFFFD307FFFFFF6000
BFFFFB1004FFFFE40000
ENDCHAR
STARTCHAR O
ENCODING 79
SWIDTH 837 0
DWIDTH 20 0
BBX 20 21 0 -3
BITMAP
00000024443334443000
00000420000000001510
00019000243334300050
003D6004200000150031
03EF3013000000013003
0BFF203003DFE5004003
1FFF204006FFF9004004
3FFF204006FFF9004004
3FFF204004CFF9004004
3FFF204004BFF9004004
3FFF204004BFF9004004
3FFF204004BFF9004004
3FFF203004BFF9004004
3FFF3013018BA3013004
3FFF4004200000150013
2FFF9000244444300040
1FFFF600000000000330
0CFFFFB6200000259300
04FFFFFFFFEDEEFD2000
005EFFFFFFFFFFA10000
00016ADEFEEB83000000
ENDCHAR
STARTCHAR P
ENCODING 80
SWIDTH 782 0
DWIDTH 19 0
BBX 18 21 1 -3
BITMAP
001644444444333200
02C600000000000240
3EF600000000000041
DFF600544444430004
EFF600400000023004
EFF600402AA7004004
EFF600403FFF104004
EFF600403FFF204004
EFF600403FFD004004
EFF600400000004004
EFF600400000023022
EFF600644444420050
EFF600400000004500
EFF600402DDDDF7000
EFF600402FFFF50000
EFF600302FD9200000
EFF600002200000000
EFF800003100000000
EFFFDDDC4000000000
EFFFFFE30000000000
BFFFFC200000000000
ENDCHAR
STARTCHAR Q
ENCODING 81
SWIDTH 837 0
DWIDTH 20 0
BBX 20 23 0 -5
BITMAP
00000024444444443000
00000520000000001510
00019100243334200050
002D6003200000140031
02EF3003000000023003
0BFF203103DFE5004004
1FFF204006FFF9004004
2FFF204006FFF9004004
3FFF204004CFF9004004
3FFF204004BFF9004004
3FFF204004BFF9004004
3FFF204004BFF9004004
3FFF204004BFF9004004
3FFF3031029CB4004003
3FFF5004000000023012
2FFF9004200000250020
0FFFF300244544300110
0CFFFE72000400014100
05FFFFFFC001009C2000
006FFFFFE00000710000
00028DFFFEDDDA100000
000007FFFFFF90000000
000004FFFFE600000000
ENDCHAR
STARTCHAR R
ENCODING 82
SWIDTH 843 0
DWIDTH 20 0
BBX 19 21 1 -3
BITMAP
00164444444444430000
02C60000000000023000
3EF60000000000004000
DFF60054444441002200
EFF60040000005000300
EFF600402FF702200300
EFF600402FFB00301200
EFF600402FF801304000
EFF60040011002216100
EFF60040000005000410
EFF60063333354300040
EFF60040000000040040
EFF600402DDDB0040040
EFF600402FFFF2040040
EFF600402FFFF2040040
EFF6002027FFF2020040
EFF6000024FFF2000040
EFF8000024FFF3000040
EFFFDDDC33FFFFDDDB20
EFFFFFD203FFFFFFC100
BFFFFC1001EFFFF90000
ENDCHAR
STARTCHAR S
ENCODING 83
SWIDTH 750 0
DWIDTH 18 0
BBX 18 21 0 -3
BITMAP
000002433444444440
000043000000000040
000660000000000040
009F10024444441040
08FF00230000000050
1FFF004006FFFFFB10
4FFF0040039BDFB000
5FFF00400000004520
5FFF20141000000041
5FFF90002333310004
4FFFFA200000023004
1FFFFFFDB973003004
08FFFFFFFFFD003004
006E63333332004003
006F00000000014003
08FF00344444430003
4FFF00000000000040
5FFF10000000002510
5FFFEDDDDDDDDE9000
5FFFFFFFFFFFF70000
3EFFFFFFFFDA300000
ENDCHAR
STARTCHAR T
ENCODING 84
SWIDTH 756 0
DWIDTH 18 0
BBX 19 21 0 -3
BITMAP
00164444444444444500
02C70000000000000310
3DF70000000000000310
CFF70244445444430310
EFF80000004000000300
EFFFDDDB004007DDC400
EFFFFFFC004008FD3000
AFFFFFFC004008C10000
00008FFC004004000000
00008FFC004004000000
00008FFC004004000000
00008FFC004004000000
00008FFC004004000000
00008FFC004004000000
00008FFC004004000000
00008FFC003004000000
00008FFC000004000000
00008FFE000004000000
00008FFFEDDDA1000000
00008FFFFFFA00000000
00005FFFFF8000000000
ENDCHAR
STARTCHAR U
ENCODING 85
SWIDTH 846 0
DWIDTH 20 0
BBX 20 21 0 -3
BITMAP
00026444450006444443
003E40000300AB000004
05EF4012031BFB002004
0FFF4013038FFB004004
1FFF4013039FFB004004
1FFF4013039FFB004004
1FFF4013039FFB004004
1FFF4013039FFB004004
1FFF4013039FFB004004
1FFF4013039FFB004004
1FFF4013039FFB004004
1FFF4013039FFB004004
1FFF400301BFF8004004
1FFF5004000210014004
1FFF7003300000150013
0FFFC000144444300040
0DFFF800000000000330
09FFFFC6200000148300
02EFFFFFFFEDEEFC2000
003DFFFFFFFFFFA10000
00006ADEFEEC93000000
ENDCHAR
STARTCHAR V
ENCODING 86
SWIDTH 830 0
DWIDTH 20 0
BBX 20 21 0 -3
BITMAP
00045444450016444451
005F10000401C7000003
07FF1020043DF7002003
3FFF104004CFF7004003
4FFF104004DFF7004003
4FFF104004DFF7004003
4FFF104004DFF7004003
4FFF103003DFF7004003
4FFF103103DFF6004013
4FFF401300EFF1031031
4FFF8004009FB0040030
3FFFE003104F60040030
1FFFF500400910400300
0AFFFB00400000400400
04FFFF10130003201200
00DFFF70034443003000
008FFFD0000000003000
002FFFF4000000031000
000BFFFFDDDDDDB30000
0005FFFFFFFFFC100000
0000BFFFFFFFA1000000
ENDCHAR
STARTCHAR W
ENCODING 87
SWIDTH 931 0
DWIDTH 22 0
BBX 22 21 0 -3
BITMAP
0002644445000004544443
004E30000400005E000003
05FF3010040007FE001004
1FFF303004004FFE004004
2FFF303004006FFE004004
2FFF303004006FFE004004
2FFF303004046AEE004004
2FFF303004A1005E004004
2FFF30300660000C004004
2FFF303004024305004004
2FFF303100040130004003
2FFF303100210040004004
2FFF500300403113004004
2FFF80040220E504003012
1FFFD0040403F902221030
0EFFF3024107FD00440030
0AFFF800000BFF20000220
05FFFE10001EFF70000400
01EFFFEDDDBFFFFDDDA100
00AFFFFFE52FFFFFFA0000
002EFFFD3009FFFF800000
ENDCHAR
STARTCHAR X
ENCODING 88
SWIDTH 837 0
DWIDTH 20 0
BBX 20 21 0 -3
BITMAP
00026444440005444451
003E3000030089000003
04EF30000408F9000004
1EFF3030037FF9004003
2FFF402201CFF4004013
2FFF8004006FA0031040
2FFFE201300610130040
0FFFFB00310000400400
0AFFFF60040003102200
02EFFFD0025444004000
005FFF40040003102200
000AF700400000400310
000BC003102C40040040
007F501300CFE2012022
04FF303105FFF8004003
0DFF304006FFF9004004
1FFF300005EFF9000004
2FFF400004BFFB000013
2FFFFDDDC3BFFFDDDD80
2FFFFFFC20BFFFFFF600
1DFFFFA0007FFFFD3000
ENDCHAR
STARTCHAR Y
ENCODING 89
SWIDTH 805 0
DWIDTH 19 0
BBX 19 21 0 -3
BITMAP
00054444430026444450
008D00000303D4000040
0AFD0020044EF4010040
6FFD004004EFF4031040
8FFD004004FFF4031040
8FFD004004FFF4031040
8FFD004004FFD0040040
8FFF101300BF40040040
7FFF7003102500400130
7FFFF300400003200400
4FFFFC00130013004100
0BFFFF90013530022000
02EFFFF5000400040000
005FFFFE200400400000
0009FFFF600400400000
0001DFFF600300400000
00003FFF600000400000
00000EFF700001300000
00000EFFFDDDD6000000
00000EFFFFFF50000000
00000BFFFFD300000000
ENDCHAR
STARTCHAR Z
ENCODING 90
SWIDTH 760 0
DWIDTH 18 0
BBX 18 21 0 -3
BITMAP
000264444444444452
003D40000000000004
04EF40000000000004
0EFF40244444442004
1FFF60000000004004
1FFFFDDDDB10031013
1FFFFFFFF300220040
0CFFFFFF6001300310
000000A90004002300
000008C00040014000
00005D200400050000
0002E3003100410000
001D60022003200000
00BE00130005444443
08FD00400000000004
3FFD00244444444104
7FFD00000000000004
7FFE00000000000004
7FFFEDDDDDDDDDDDB2
7FFFFFFFFFFFFFFB10
4FFFFFFFFFFFFF9000
ENDCHAR
STARTCHAR bracketleft
ENCODING 91
SWIDTH 529 0
DWIDTH 13 0
BBX 13 25 0 -5
BITMAP
00014444444400
003C0000000130
04EE0000000030
3FFE0034430030
6FFE0040000030
6FFE0040023510
6FFE004009D200
6FFE0040071000
6FFE0040040000
6FFE0040040000
6FFE0040040000
6FFE0040040000
6FFE0040040000
6FFE0040040000
6FFE0040040000
6FFE0040040000
6FFE0040040000
6FFE0040044500
6FFE0040000130
6FFE0034430030
6FFE0000000030
6FFE1000000230
6FFFEDDDDDD700
6FFFFFFFFE5000
4EFFFFFFD30000
ENDCHAR
STARTCHAR backslash
ENCODING 92
SWIDTH 487 0
DWIDTH 12 0
BBX 12 25 0 -4
BITMAP
000444443000
009600004000
1BF800003000
CFFA00402200
DFFC00400400
BFFF00400400
9FFF20400400
7FFF40300400
5FFF60220400
3FFF80030300
1FFFB0040120
0DFFD0040040
0BFFF0040040
09FFF2040040
07FFF4030040
05FFF6012040
02FFF9004030
00FFFB004013
00DFFD004004
00BFFF004004
009FFF200004
006FFF500004
004FFFFDDDC2
002FFFFFFB10
000CFFFF9000
ENDCHAR
STARTCHAR bracketright
ENCODING 93
SWIDTH 529 0
DWIDTH 13 0
BBX 13 25 0 -5
BITMAP
00024444444400
002B0000000220
03ED0000000120
3EFD0044420120
7FFD0000040120
8FFE1000040120
8FFFFF70040120
7FFFFF70040120
3CDFFF70040120
000EFF70040120
000EFF70040120
000EFF70040120
000EFF70040120
000EFF70040120
000EFF70040120
000EFF70040120
000EFF70040120
000EFF60040120
002D1000040120
04ED0044420120
4FFD0000000120
7FFE0000000310
8FFFEDDDDDD500
7FFFFFFFFE4000
5FFFFFFFC20000
ENDCHAR
STARTCHAR asciicircum
ENCODING 94
SWIDTH 814 0
DWIDTH 20 0
BBX 19 16 0 2
BITMAP
00000003434444200000
00000063000000310000
000009A0044440040000
0000AF50400003040000
0006FF10400004013000
000DFB00306604004000
002FF70300BA01304000
007FF30401FE00403100
00BFD00404FF40400400
01FF902209FF80220400
05FF50400DFFC0040400
09FF10002FFFF1000130
0DFC00005BFFF6000040
2FFFDDDC37FFFFDDDA10
7FFFFFC203FFFFFF9000
6FFFFA1000BFFFE70000
ENDCHAR
STARTCHAR underscore
ENCODING 95
SWIDTH 834 0
DWIDTH 20 0
BBX 18 8 1 -5
BITMAP
000444444444444444
009700000000000004
1CF701444444444204
CFF700000000000004
DFF800000000000004
DFFFDDDDDDDDDDDDD5
DFFFFFFFFFFFFFFD30
BFFFFFFFFFFFFFB100
ENDCHAR
STARTCHAR grave
ENCODING 96
SWIDTH 600 0
DWIDTH 14 0
BBX 14 9 0 15
BITMAP
00014310000000
002A0134444442
03EB0000000004
4EFB0034444203
9FFD2000000003
9FFFFFDB986425
9FFFFFFFFFFFD3
4BDFFFFFFFFC10
000024679B9000
ENDCHAR
STARTCHAR a
ENCODING 97
SWIDTH 830 0
DWIDTH 20 0
BBX 20 21 0 -3
BITMAP
00000014444444451000
00000090000000004000
00000A80000000004000
00009F30034443002200
0004FC00210002200400
000AF600305F30300400
001FF10120AF80210130
007FB00300EFC0030040
00CF600204FFF2020040
03FF3020001110002031
09FF1030000000003013
0EFF1044444444444003
2FFF1040000000004003
4FFF1040000000004003
4FFF10400AFFF8004003
4FFF10400AFFF8004003
4FFF100009FFF8000003
4FFF200004CFFA000022
4FFFEDDDA1CFFFDDDD50
4FFFFFF900CFFFFFE400
2EFFFE70008FFFFD3000
ENDCHAR
STARTCHAR b
ENCODING 98
SWIDTH 825 0
DWIDTH 20 0
BBX 19 21 1 -3
BITMAP
00164444444444410000
02C60000000000041000
3EF60000000000004000
DFF60054444441004000
EFF60040000005003000
EFF600403FF803104000
EFF600403FFB02104000
EFF60040299402113000
EFF60040000004044100
EFF60064444465300500
EFF60040000000140120
EFF600402DDD80040040
EFF600403FFFD0040040
EFF600403FFF90040040
EFF60040000000140040
EFF60054444444400130
EFF60000000000000400
EFF80000000000025200
EFFFDDDDDDDDDDEB1000
EFFFFFFFFFFFFF900000
BFFFFFFFFFFEB5000000
ENDCHAR
STARTCHAR c
ENCODING 99
SWIDTH 728 0
DWIDTH 17 0
BBX 17 21 0 -3
BITMAP
000000444444444450
000015100000000030
0002A0000000000030
003E60014444442030
03EF30050000000030
0BFF202202BDDDDC30
1FFF203005FFFFD200
2FFF204006FFFB1000
3FFF20400400000000
3FFF20400400000000
3FFF20400400000000
3FFF20400400000000
3FFF20300400000000
3FFF30220144444440
3FFF50050000000040
2FFF90014444442030
1FFFF4000000000030
0BFFFF830000000040
04FFFFFFEDDDDDDC40
007FFFFFFFFFFFD300
0003ADFFFFFFFB1000
ENDCHAR
STARTCHAR d
ENCODING 100
SWIDTH 846 0
DWIDTH 20 0
BBX 19 21 1 -3
BITMAP
00164444444444441000
02C60000000000003300
3EF60000000000000400
DFF60054444444100040
EFF60040000000420040
EFF60040144410040040
EFF600402FFFC0040040
EFF600402FFFD0040040
EFF600402EFFD0040040
EFF6004029FFD0040040
EFF6004029FFD0040040
EFF6004029FFD0040040
EFF6004029FFC0040040
EFF60040179950040040
EFF60040000000330040
EFF60054444444200210
EFF60000000000001300
EFF80000000000154000
EFFFDDDDDDDDDEE50000
EFFFFFFFFFFFFD300000
BFFFFFFFFFEC71000000
ENDCHAR
STARTCHAR e
ENCODING 101
SWIDTH 754 0
DWIDTH 18 0
BBX 17 21 1 -3
BITMAP
001644444444444430
02C600000000000040
3EF600000000000040
DFF600544444440040
EFF600400000000030
EFF600403DDDDDD900
EFF600403FFFFF8000
EFF600400000014000
EFF600400000004000
EFF600644444104000
EFF600400000003000
EFF600401666662000
EFF600403FFFE30000
EFF600402999644420
EFF600400000000040
EFF600544444440040
EFF600000000000040
EFF800000000000040
EFFFDDDDDDDDDDDA10
EFFFFFFFFFFFFF9000
BFFFFFFFFFFFE60000
ENDCHAR
STARTCHAR f
ENCODING 102
SWIDTH 718 0
DWIDTH 17 0
BBX 17 21 1 -3
BITMAP
001644444444444500
02C600000000000210
3EF600000000000210
DFF600544444430210
EFF600400000000310
EFF600401888888400
EFF600402FFFFF7000
EFF600402FFFF80000
EFF600400000041000
EFF600400000012000
EFF600644443012000
EFF600400000032000
EFF600402DDDD80000
EFF600402FFE500000
EFF600402FD3000000
EFF600202200000000
EFF600002200000000
EFF800002100000000
EFFFDDDC3000000000
EFFFFFD20000000000
BFFFFC200000000000
ENDCHAR
STARTCHAR g
ENCODING 103
SWIDTH 808 0
DWIDTH 19 0
BBX 19 21 0 -3
BITMAP
00000044444444445100
00001610000000001200
0002A000000000001200
003E6001444444301200
03EF3005000000002100
0BFF202202BDDDDC5000
1FFF203006FFFFE30000
2FFF204006FFFC200000
3FFF2040040015444430
3FFF20400402C1000040
3FFF2040043EF0010040
3FFF204005EFF0040040
3FFF203005FFF0040040
3FFF3022003330040040
3FFF5006000000040040
2FFF9000444444450040
1FFFF400000000000040
0BFFFF83000000000030
04FFFFFFEDDDDDDDDA10
007FFFFFFFFFFFFFA100
0003ADFFFFFFFFF80000
ENDCHAR
STARTCHAR h
ENCODING 104
SWIDTH 859 0
DWIDTH 21 0
BBX 19 21 1 -3
BITMAP
00164444500054444430
02C600002207D0000040
3EF60000229FD0000040
DFF6004027FFD0040040
EFF6004029FFD0040040
EFF6004029FFD0040040
EFF60040179980040040
EFF60040000000040040
EFF60040000000040040
EFF60064444444450040
EFF60040000000040040
EFF60040000000040040
EFF600402FFFD0040040
EFF600402FFFD0040040
EFF600402EFFD0040040
EFF6004029FFD0040040
EFF6000029FFD0000040
EFF8000038FFE0000040
EFFFDDDD57FFFEDDD910
EFFFFFE407FFFFFF8000
BFFFFC2004FFFFE60000
ENDCHAR
STARTCHAR i
ENCODING 105
SWIDTH 705 0
DWIDTH 17 0
BBX 17 21 0 -3
BITMAP
000354444444444510
004E00000000000030
06FF00000000000030
3FFF00344454430030
4FFF10000120000030
4FFFA7720120177500
4FFFFFF401203F9000
4FFFFFF40120380000
0566FFF40120300000
0001FFF40120300000
0001FFF40120300000
0001FFF40120300000
0001FFF40120300000
0001C9920120244500
002C10000120000130
03EF00344454430030
2FFF00000000000030
4FFF20000000000130
4FFFEDDDDDDDDDD700
4FFFFFFFFFFFFE5000
2EFFFFFFFFFFD30000
ENDCHAR
STARTCHAR j
ENCODING 106
SWIDTH 788 0
DWIDTH 19 0
BBX 18 21 0 -3
BITMAP
000000000002544445
00000000003E400003
0000000004EF401104
000000001EFF402104
000000001FFF402104
000000001FFF402104
000000001FFF402104
000000001FFF402104
000244445FFF402104
005B00001FFF402104
07FB00101FFF402104
6FFB00401FFF402104
9FFB00400EFF203104
9FFC00400132004003
9FFD00240000023003
9FFF30014434420004
7FFFC1000000000041
3FFFFE730000025710
0BFFFFFFFEDEEF9000
01BFFFFFFFFFF70000
00049DEFEDB7200000
ENDCHAR
STARTCHAR k
ENCODING 107
SWIDTH 846 0
DWIDTH 20 0
BBX 19 21 1 -3
BITMAP
00164444500054444600
02C60000220A20000400
3EF6000022AB00000400
DFF600402BF501303100
EFF600402FE004004000
EFF600402F8004013000
EFF600402F2031040000
EFF60040030040034200
EFF60040000220000400
EFF60064444543300040
EFF60040000000130040
EFF60040044410030040
EFF600402FFFB0040040
EFF600402FFFC0040040
EFF600402EFFC0040040
EFF600402AFFC0040040
EFF600002AFFC0000040
EFF8000039FFD0000040
EFFFDDDD58FFFEDDD900
EFFFFFE408FFFFFF8000
BFFFFC2005FFFFE50000
ENDCHAR
STARTCHAR l
ENCODING 108
SWIDTH 795 0
DWIDTH 19 0
BBX 18 21 1 -3
BITMAP
001644445000000000
02C600002200000000
3EF600202200000000
DFF600402200000000
EFF600402200000000
EFF600402200000000
EFF600402200000000
EFF600402200000000
EFF600402200544442
EFF60040221B300004
EFF6004024DF201004
EFF600402FFF204004
EFF600402FFF204004
EFF600401444104004
EFF600400000004004
EFF600544444445004
EFF600000000000004
EFF800000000000004
EFFFDDDDDDDDDDDDA1
EFFFFFFFFFFFFFF900
BFFFFFFFFFFFFF7000
ENDCHAR
STARTCHAR m
ENCODING 109
SWIDTH 949 0
DWIDTH 23 0
BBX 21 21 1 -3
BITMAP
0016444442000044444340
02C6000003000560000030
3EF6000001105D00000040
DFF600440024F600430040
EFF60132301CD005040040
EFF6013032076041040040
EFF6013004100220040040
EFF6013000401400040040
EFF6013020144011040040
EFF6013045000081040040
EFF601304C0001E1040040
EFF601304F822BF1040040
EFF601304FFFFFF1040040
EFF601304FFBFFF1040040
EFF601304D54FFF1040040
EFF601304004FFF1030040
EFF600004004FFF1000040
EFF800004004FFF2000040
EFFFDDDC3004FFFEDDDA10
EFFFFFD20004FFFFFFA100
BFFFFB100002EFFFF80000
ENDCHAR
STARTCHAR n
ENCODING 110
SWIDTH 853 0
DWIDTH 20 0
BBX 19 21 1 -3
BITMAP
00164434200044444430
02C600003005C0000040
3EF60000024FD0000040
DFF6017100BFD0040040
EFF60135001DD0040040
EFF601305003C0040040
EFF60130040040040040
EFF60130014000040040
EFF60130002300040040
EFF60130210230040040
EFF601304A0032040040
EFF601304F8003140040
EFF601304FF500440040
EFF601304FFE30050040
EFF601304FFFC0040040
EFF601304FFFD0040040
EFF600004DFFD0000040
EFF8000047FFE0000040
EFFFDDDC47FFFEDDD700
EFFFFFD307FFFFFF6000
BFFFFB1004FFFFE40000
ENDCHAR
STARTCHAR o
ENCODING 111
SWIDTH 837 0
DWIDTH 20 0
BBX 20 21 0 -3
BITMAP
00000024443334443000
00000420000000001510
00019000243334300050
003D6004200000150031
03EF3013000000013003
0BFF203003DFE5004003
1FFF204006FFF9004004
3FFF204006FFF9004004
3FFF204004CFF9004004
3FFF204004BFF9004004
3FFF204004BFF9004004
3FFF204004BFF9004004
3FFF203004BFF9004004
3FFF3013018BA3013004
3FFF4004200000150013
2FFF9000244444300040
1FFFF600000000000330
0CFFFFB6200000259300
04FFFFFFFFEDEEFD2000
005EFFFFFFFFFFA10000
00016ADEFEEB83000000
ENDCHAR
STARTCHAR p
ENCODING 112
SWIDTH 782 0
DWIDTH 19 0
BBX 18 21 1 -3
BITMAP
001644444444333200
02C600000000000240
3EF600000000000041
DFF600544444430004
EFF600400000023004
EFF600402AA7004004
EFF600403FFF104004
EFF600403FFF204004
EFF600403FFD004004
EFF600400000004004
EFF600400000023022
EFF600644444420050
EFF600400000004500
EFF600402DDDDF7000
EFF600402FFFF50000
EFF600302FD9200000
EFF600002200000000
EFF800003100000000
EFFFDDDC4000000000
EFFFFFE30000000000
BFFFFC200000000000
ENDCHAR
STARTCHAR q
ENCODING 113
SWIDTH 837 0
DWIDTH 20 0
BBX 20 23 0 -5
BITMAP
00000024444444443000
00000520000000001510
00019100243334200050
002D6003200000140031
02EF3003000000023003
0BFF203103DFE5004004
1FFF204006FFF9004004
2FFF204006FFF9004004
3FFF204004CFF9004004
3FFF204004BFF9004004
3FFF204004BFF9004004
3FFF204004BFF9004004
3FFF204004BFF9004004
3FFF3031029CB4004003
3FFF5004000000023012
2FFF9004200000250020
0FFFF300244544300110
0CFFFE72000400014100
05FFFFFFC001009C2000
006FFFFFE00000710000
00028DFFFEDDDA100000
000007FFFFFF90000000
000004FFFFE600000000
ENDCHAR
STARTCHAR r
ENCODING 114
SWIDTH 843 0
DWIDTH 20 0
BBX 19 21 1 -3
BITMAP
00164444444444430000
02C60000000000023000
3EF60000000000004000
DFF60054444441002200
EFF60040000005000300
EFF600402FF702200300
EFF600402FFB00301200
EFF600402FF801304000
EFF60040011002216100
EFF60040000005000410
EFF60063333354300040
EFF60040000000040040
EFF600402DDDB0040040
EFF600402FFFF2040040
EFF600402FFFF2040040
EFF6002027FFF2020040
EFF6000024FFF2000040
EFF8000024FFF3000040
EFFFDDDC33FFFFDDDB20
EFFFFFD203FFFFFFC100
BFFFFC1001EFFFF90000
ENDCHAR
STARTCHAR s
ENCODING 115
SWIDTH 750 0
DWIDTH 18 0
BBX 18 21 0 -3
BITMAP
000002433444444440
000043000000000040
000660000000000040
009F10024444441040
08FF00230000000050
1FFF004006FFFFFB10
4FFF0040039BDFB000
5FFF00400000004520
5FFF20141000000041
5FFF90002333310004
4FFFFA200000023004
1FFFFFFDB973003004
08FFFFFFFFFD003004
006E63333332004003
006F00000000014003
08FF00344444430003
4FFF00000000000040
5FFF10000000002510
5FFFEDDDDDDDDE9000
5FFFFFFFFFFFF70000
3EFFFFFFFFDA300000
ENDCHAR
STARTCHAR t
ENCODING 116
SWIDTH 756 0
DWIDTH 18 0
BBX 19 21 0 -3
BITMAP
00164444444444444500
02C70000000000000310
3DF70000000000000310
CFF70244445444430310
EFF80000004000000300
EFFFDDDB004007DDC400
EFFFFFFC004008FD3000
AFFFFFFC004008C10000
00008FFC004004000000
00008FFC004004000000
00008FFC004004000000
00008FFC004004000000
00008FFC004004000000
00008FFC004004000000
00008FFC004004000000
00008FFC003004000000
00008FFC000004000000
00008FFE000004000000
00008FFFEDDDA1000000
00008FFFFFFA00000000
00005FFFFF8000000000
ENDCHAR
STARTCHAR u
ENCODING 117
SWIDTH 846 0
DWIDTH 20 0
BBX 20 21 0 -3
BITMAP
00026444450006444443
003E40000300AB000004
05EF4012031BFB002004
0FFF4013038FFB004004
1FFF4013039FFB004004
1FFF4013039FFB004004
1FFF4013039FFB004004
1FFF4013039FFB004004
1FFF4013039FFB004004
1FFF4013039FFB004004
1FFF4013039FFB004004
1FFF4013039FFB004004
1FFF400301BFF8004004
1FFF5004000210014004
1FFF7003300000150013
0FFFC000144444300040
0DFFF800000000000330
09FFFFC6200000148300
02EFFFFFFFEDEEFC2000
003DFFFFFFFFFFA10000
00006ADEFEEC93000000
ENDCHAR
STARTCHAR v
ENCODING 118
SWIDTH 830 0
DWIDTH 20 0
BBX 20 21 0 -3
BITMAP
00045444450016444451
005F10000401C7000003
07FF1020043DF7002003
3FFF104004CFF7004003
4FFF104004DFF7004003
4FFF104004DFF7004003
4FFF104004DFF7004003
4FFF103003DFF7004003
4FFF103103DFF6004013
4FFF401300EFF1031031
4FFF8004009FB0040030
3FFFE003104F60040030
1FFFF500400910400300
0AFFFB00400000400400
04FFFF10130003201200
00DFFF70034443003000
008FFFD0000000003000
002FFFF4000000031000
000BFFFFDDDDDDB30000
0005FFFFFFFFFC100000
0000BFFFFFFFA1000000
ENDCHAR
STARTCHAR w
ENCODING 119
SWIDTH 931 0
DWIDTH 22 0
BBX 22 21 0 -3
BITMAP
0002644445000004544443
004E30000400005E000003
05FF3010040007FE001004
1FFF303004004FFE004004
2FFF303004006FFE004004
2FFF303004006FFE004004
2FFF303004046AEE004004
2FFF303004A1005E004004
2FFF30300660000C004004
2FFF303004024305004004
2FFF303100040130004003
2FFF303100210040004004
2FFF500300403113004004
2FFF80040220E504003012
1FFFD0040403F902221030
0EFFF3024107FD00440030
0AFFF800000BFF20000220
05FFFE10001EFF70000400
01EFFFEDDDBFFFFDDDA100
00AFFFFFE52FFFFFFA0000
002EFFFD3009FFFF800000
ENDCHAR
STARTCHAR x
ENCODING 120
SWIDTH 837 0
DWIDTH 20 0
BBX 20 21 0 -3
BITMAP
00026444440005444451
003E3000030089000003
04EF30000408F9000004
1EFF3030037FF9004003
2FFF402201CFF4004013
2FFF8004006FA0031040
2FFFE201300610130040
0FFFFB00310000400400
0AFFFF60040003102200
02EFFFD0025444004000
005FFF40040003102200
000AF700400000400310
000BC003102C40040040
007F501300CFE2012022
04FF303105FFF8004003
0DFF304006FFF9004004
1FFF300005EFF9000004
2FFF400004BFFB000013
2FFFFDDDC3BFFFDDDD80
2FFFFFFC20BFFFFFF600
1DFFFFA0007FFFFD3000
ENDCHAR
STARTCHAR y
ENCODING 121
SWIDTH 805 0
DWIDTH 19 0
BBX 19 21 0 -3
BITMAP
00054444430026444450
008D00000303D4000040
0AFD0020044EF4010040
6FFD004004EFF4031040
8FFD004004FFF4031040
8FFD004004FFF4031040
8FFD004004FFD0040040
8FFF101300BF40040040
7FFF7003102500400130
7FFFF300400003200400
4FFFFC00130013004100
0BFFFF90013530022000
02EFFFF5000400040000
005FFFFE200400400000
0009FFFF600400400000
0001DFFF600300400000
00003FFF600000400000
00000EFF700001300000
00000EFFFDDDD6000000
00000EFFFFFF50000000
00000BFFFFD300000000
ENDCHAR
STARTCHAR z
ENCODING 122
SWIDTH 760 0
DWIDTH 18 0
BBX 18 21 0 -3
BITMAP
000264444444444452
003D40000000000004
04EF40000000000004
0EFF40244444442004
1FFF60000000004004
1FFFFDDDDB10031013
1FFFFFFFF300220040
0CFFFFFF6001300310
000000A90004002300
000008C00040014000
00005D200400050000
0002E3003100410000
001D60022003200000
00BE00130005444443
08FD00400000000004
3FFD00244444444104
7FFD00000000000004
7FFE00000000000004
7FFFEDDDDDDDDDDDB2
7FFFFFFFFFFFFFFB10
4FFFFFFFFFFFFF9000
ENDCHAR
STARTCHAR braceleft
ENCODING 123
SWIDTH 555 0
DWIDTH 13 0
BBX 14 25 -1 -5
BITMAP
00000000244443
00000015200004
00000180000004
00002D30023204
0002EE00220004
000DFC00300134
004FFC00300A90
007FFC00400600
008FFC00400400
008FE500400300
008F6004000400
00BF4022097000
0AFF4013014200
1FFFA003300300
1FFFFB00400400
0EFFFC00400400
05EFFC00400400
008FFC00400344
008FFE00320004
008FFF30024204
008FFFC1000004
006FFFFD510004
001EFFFFFFEEC3
0005EFFFFFFC20
000028CEFFA100
ENDCHAR
STARTCHAR bar
ENCODING 124
SWIDTH 447 0
DWIDTH 11 0
BBX 9 25 1 -4
BITMAP
0004444430
0095000040
1CF5000040
CFF5031040
FFF5031040
FFF5031040
FFF5031040
FFF5031040
FFF5031040
FFF5031040
FFF5031040
FFF5031040
FFF5031040
FFF5031040
FFF5031040
FFF5031040
FFF5031040
FFF5031040
FFF5031040
FFF5031040
FFF5010040
FFF6000040
FFFFDDDC20
FFFFFFB100
CFFFF90000
ENDCHAR
STARTCHAR braceright
ENCODING 125
SWIDTH 555 0
DWIDTH 13 0
BBX 14 25 0 -5
BITMAP
00024433300000
002B0000042000
03ED0000004100
3EFD0034000500
7FFD0000400400
8FFE1000300400
8FFFFE10310400
7FFFFF30310400
3CEFFF30310400
003FFF30310230
002FFF40142013
002FFFC6104004
002FFFC7204003
001EFF40142012
0004FF30310340
000DFF30310400
002FFF30310400
002FFE10300400
004E1000500400
05ED0034000500
4FFD0000005200
7FFE0000373000
8FFFEDEFC10000
7FFFFFF9000000
5FFEDA40000000
ENDCHAR
STARTCHAR asciitilde
ENCODING 126
SWIDTH 834 0
DWIDTH 20 0
BBX 18 9 1 3
BITMAP
000024434432000243
001620000001333104
02C702344442000104
4EF700000001334204
DFF701444200000025
DFFECFFFFFFEBAAC80
DFFFFFFFFFFFFFE500
BEA7789BDFFFE92000
000000000011000000
ENDCHAR
STARTCHAR uni00A0
ENCODING 160
SWIDTH 325 0
DWIDTH 8 0
BBX 1 1 0 0
BITMAP
00
ENDCHAR
STARTCHAR exclamdown
ENCODING 161
SWIDTH 523 0
DWIDTH 13 0
BBX 11 21 1 -3
BITMAP
000544444510
007C00000130
09FC00000130
6FFC00300130
8FFC00000130
8FFE32222410
8FFFFFFFD200
8FFF95554500
29EF10000400
08FF10300400
3FFF00400400
4FFF00400400
4FFE00400300
5FFE00400310
6FFD00400220
6FFC00400220
7FFC00000130
7FFC00000220
8FFFDDDDD600
8FFFFFFF5000
6FFFFFD30000
ENDCHAR
STARTCHAR cent
ENCODING 162
SWIDTH 728 0
DWIDTH 17 0
BBX 17 23 0 -4
BITMAP
000000002444441000
00000003C000004000
0000005D9001004330
000003300004000040
000061004445442030
000970050000000030
01BF40220000000040
09FF203002CDDDDD50
0EFF204005FFFFD300
2FFF204006FFFB2000
3FFF20400400000000
3FFF20400400000000
3FFF20300400000000
3FFF30220144444440
3FFF50050000000040
2FFFA0014445442030
0FFFF6000004000030
0BFFFFB63003001160
04FFFFFFD00000EE40
006FFFFFE00001C200
00028DFFFEDDD91000
000007FFFFFF600000
000004FFFFD4000000
ENDCHAR
STARTCHAR sterling
ENCODING 163
SWIDTH 795 0
DWIDTH 19 0
BBX 20 21 -1 -3
BITMAP
00000002334444445000
00000051000000003000
00000920000000004000
0001BA00044444204000
000CF700400000005000
007FF600400CFFFE3000
00BFF600402FFFD20000
00DF600040004B100000
00EF4000400022000000
05FF4024643022000000
1FFF4000400022544442
1FFF600040004D300004
1FFFF600402FFF201004
1FFFF600402CCC204004
06FFF600400000004004
00EFF600544444445004
00EFF600000000000004
00EFF800000000000004
00EFFFDDDDDDDDDDDDB2
00EFFFFFFFFFFFFFFA10
00BFFFFFFFFFFFFF7000
ENDCHAR
STARTCHAR currency
ENCODING 164
SWIDTH 921 0
DWIDTH 22 0
BBX 22 21 0 -3
BITMAP
0000013200000000013200
0000240320000000250320
0004600034444445700032
004E101200000000003005
04FFB10410333331050051
3FFFFB1044000002510510
4FFFFF6030000000301300
06FFFF60401CFE50401300
006FFF60403FFF90401300
000DFF60403FFF90401300
000EFF60403FFF90401300
000EFF60403FFF90401300
000EFF6050068720501400
000EF90046000003600420
000E900320443342040042
002E001100000000003005
03EF90005EBA9ABD800032
2EFFF905FFFFFFFFF90320
4FFFFFBEFFFFDFFFFFA200
06FFFA00111005FFFB1000
006F80000000005F800000
ENDCHAR
STARTCHAR yen
ENCODING 165
SWIDTH 803 0
DWIDTH 19 0
BBX 19 21 0 -3
BITMAP
00064444430016444440
009C00000302D5000030
1BFC0020043EF5010040
7FFC004004EFF5031040
8FFD003004FFF5031030
8FFE003004FFF3030030
8FFF301202EFB0030040
7FFFC003006C20210410
5FFFF900300001202200
1DFFFF50110002014000
04FFFC80000200044200
007FF100000400000400
005FF103444644410400
02FFF100000400000400
04FFF744200400445500
04FFFFFF800302FF9000
04FFFFFF800002F70000
02CDDFFF900003500000
00000CFFFDDDD5000000
00000CFFFFFE40000000
000009FFFFC200000000
ENDCHAR
STARTCHAR brokenbar
ENCODING 166
SWIDTH 447 0
DWIDTH 11 0
BBX 9 25 1 -4
BITMAP
0004444430
0095000040
1BF5000040
CFF5031040
FFF5031040
FFF5031040
FFF5031040
FFF5031040
FFF5020040
FFF5000040
FFFA544540
FFFFFFF700
FFFD997430
7AF5000040
1BF5000040
CFF5031040
FFF5031040
FFF5031040
FFF5031040
FFF5031040
FFF5020040
FFF6000040
FFFFDDDC30
FFFFFFC100
CFFFF90000
ENDCHAR
STARTCHAR section
ENCODING 167
SWIDTH 750 0
DWIDTH 18 0
BBX 18 21 0 -3
BITMAP
000000434444444440
000024000000000040
000390014444441040
004E40150001111150
04FF105008FFFFFD20
0DFF00400233469200
2FFF00400000000220
4FFF00544444430031
5FFF103007A7013003
5FFF303008FF202103
5FFF90040000000303
4FFFF4004444444404
2FFFFFA52111000404
0BFFFFFFFFFE100304
02DF93333331002204
003F40000000006022
03DF40244444440040
0EFF50000000014500
1FFFFDDDDDDDEF6000
1FFFFFFFFFFFE40000
0DFFFFFFFEC8100000
ENDCHAR
STARTCHAR dieresis
ENCODING 168
SWIDTH 600 0
DWIDTH 14 0
BBX 16 8 -1 15
BITMAP
0000444441444442
001C20000C600004
03DF20300E503004
1EFF20100E501004
3FFF40002F800014
3FFFFFFFFFFFFFA0
3FFFFFEFFFFFF700
1BDDDC3ADDDD5000
ENDCHAR
STARTCHAR copyright
ENCODING 169
SWIDTH 967 0
DWIDTH 23 0
BBX 23 25 0 -4
BITMAP
000000002444444443000000
000000343444444443441000
000005353000000002434100
0001A24049CEFFEDB6123400
003D740AFFFFFFFFFFD24210
02EF443DCD7322222AF84040
0AFF3441A204344307FB3140
0EFF345DA040000008FB3140
1FFF346F80405DDDDFFB3140
2FFF346F70409FFCBFFB3140
2FFF346F70409FA19FFB3140
2FFF346F704040009FFB3140
2FFF346F704040009FFB3140
2FFF346F704040009FFB3140
2FFF346F804034447DFB3140
2FFF346FC004444307FB3140
2FFF346FF700000007FB3140
2FFF544FFFD988888DF94040
2FFF940AFFFFFFFFDFD24310
1FFFE3405ACEFFE787133400
0CFFFD553000000002546000
06FFFFFB7744444467980000
00BFFFFFFFFEEEEFFF600000
0008FFFFFFFFFFFFD3000000
000016ADEFFEDC9400000000
ENDCHAR
STARTCHAR ordfeminine
ENCODING 170
SWIDTH 620 0
DWIDTH 15 0
BBX 15 21 0 -3
BITMAP
0000054444443000
0000860000004000
000AF10333201200
009FB02100310400
01EF603065030400
05FF1030CA040130
0AFC0301DD013040
1FFA030000003040
6FF9043333334040
9FF9030000003040
AFF90306DD503040
BFF90207FF502040
BFFB0008FF600040
BFFFEECFFFFEEB10
BFFEA95999999420
9FFA000000000040
07F9023333332040
6FFA000000000030
BFFFDDDDDDDDDA10
BFFFFFFFFFFF9000
8FFFFFFFFFF80000
ENDCHAR
STARTCHAR guillemotleft
ENCODING 171
SWIDTH 912 0
DWIDTH 22 0
BBX 22 16 0 -1
BITMAP
0000000000341000001430
0000001443104002443040
0000153000004242000031
0002600034007500033031
004E10341000D004400040
06FF0040004AD004001540
1EFE00404EFFD00409E500
5FFF0040038DD004014430
6FFF10420000D004100040
6FFF60024400C500343031
5FFFE6000000CE50000031
3FFFFFE95100DFFE951031
0BFFFFFFFFC9FFFFFFFB60
008EFFFFFFD9FFFFFFF800
000049DFFB10159DFF6000
0000000240000000220000
ENDCHAR
STARTCHAR logicalnot
ENCODING 172
SWIDTH 834 0
DWIDTH 20 0
BBX 18 14 1 -1
BITMAP
000444444444444444
008700000000000004
1AF700000000000004
AFF701444444444304
DFF800000000000404
DFFFDDDDDDDDD00404
DFFFFFFFFFFFF00404
AFFFFFFFFFFFF00404
0000000005FFF00304
0000000005FFF00004
0000000005FFF10004
0000000005FFFEDDC3
0000000005FFFFFD20
0000000003EFFFB100
ENDCHAR
STARTCHAR uni00AD
ENCODING 173
SWIDTH 520 0
DWIDTH 12 0
BBX 13 8 0 3
BITMAP
00034444444500
006B0000000220
09FB0044430220
8FFB0000000220
9FFC0000000310
9FFFEDDDDDD700
9FFFFFFFFE5000
7FFFFFFFD30000
ENDCHAR
STARTCHAR registered
ENCODING 174
SWIDTH 660 0
DWIDTH 16 0
BBX 16 16 0 2
BITMAP
000005889A988500
0000769FFFFE9640
002C86A5556BF660
03EF67834430F661
0DFF57844D40E661
2FFF57841242E661
3FFF578544636661
4FFF57843B544661
4FFF57824F724661
4FFF56DBCFDBC651
4FFF768DEFED8550
2FFFF85333345740
0EFFFFFECCCED300
07FFFFFFFFFB1000
005CFFFFFD700000
0000133310000000
ENDCHAR
STARTCHAR macron
ENCODING 175
SWIDTH 600 0
DWIDTH 14 0
BBX 14 8 0 15
BITMAP
00024444444444
004A0000000003
05FB0000000003
5FFB0044444203
9FFC1000000003
9FFFFFFFFFFFD2
9FFFFFFFFFFB10
5DDDDDDDDD9000
ENDCHAR
STARTCHAR degree
ENCODING 176
SWIDTH 583 0
DWIDTH 14 0
BBX 14 14 0 4
BITMAP
00002433334420
00044044444032
006E0310000404
08FD0402630404
4FFD0409FB0404
7FFD0409FC0404
8FFD0307F90304
8FFD0310000404
8FFF1034444004
7FFFB300000260
5FFFFFECCCE900
1DFFFFFFFF7000
02AFFFFFC40000
00002331000000
ENDCHAR
STARTCHAR plusminus
ENCODING 177
SWIDTH 834 0
DWIDTH 20 0
BBX 18 21 1 -3
BITMAP
000000016444510000
0000001C3000120000
000001CF3000120000
00000CFF3040120000
00002FFF3040120000
000449992040144444
008700000040000003
0AF701444464444204
AFF700000040000004
DFF911110040011116
DFFFFFFF30401FFFE4
DFFFFFFF30401FFD30
BFFFFFFF30301FC100
011559992000154444
008700000000000004
1AF702444444444204
AFF700000000000004
DFF800000000000004
DFFFDDDDDDDDDDDDC3
DFFFFFFFFFFFFFFD20
AFFFFFFFFFFFFFB100
ENDCHAR
STARTCHAR twosuperior
ENCODING 178
SWIDTH 585 0
DWIDTH 14 0
BBX 14 16 0 2
BITMAP
00027444444420
004E6044444041
06FF6000001304
0EFFEBBBB20404
0FFFFFFC700404
0EFFF820014104
03586003430041
004D0241001620
05FB03016BC200
2FFB0303994442
7FFB0300000004
9FFB0333333204
9FFC0000000004
9FFFFFFFFFFF90
9FFFFFFFFFF700
6DDDDDDDDD5000
ENDCHAR
STARTCHAR threesuperior
ENCODING 179
SWIDTH 584 0
DWIDTH 14 0
BBX 14 16 0 2
BITMAP
00064444434300
009E0244440220
1BFE0000013030
6FFF2111003040
6FFFFFFF603040
6FFFF943113420
177EF504453032
009FF700000404
00FFFFFFF70304
00FF9888730304
00EE0000000404
04EE0233334013
3FFF1000001450
6FFFFFFFFFF700
6FFFFFFFFE4000
3DDDDDDC920000
ENDCHAR
STARTCHAR acute
ENCODING 180
SWIDTH 600 0
DWIDTH 14 0
BBX 14 9 0 15
BITMAP
00000000000232
00003444443204
00181000000003
02DB0044444203
3EFB0000000015
9FFD23578ACEC2
9FFFFFFFFFFA10
9FFFFFFFEC7000
5BA86421000000
ENDCHAR
STARTCHAR mu
ENCODING 181
SWIDTH 813 0
DWIDTH 20 0
BBX 19 20 0 -5
BITMAP
00004444440004444330
001A40000401A3000040
01CF3000041BF2000040
0DFF302104CFF2040040
2FFF302105FFF2040040
2FFF302105FFF2040040
2FFF302105FFF2040040
2FFF302105FFF2040040
2FFF302105FFF2040040
2FFF302204FFF1030040
2FFF3024004530040040
2FFF3025200000320040
2FFF3021233344100140
2FFF3021000000001600
2FFF3011012112488000
2FFF300005FFFFF70000
2FFF711118FFFE500000
2FFFFFFFFFEB71000000
2FFFFFFB100000000000
0DFFFFA0000000000000
ENDCHAR
STARTCHAR paragraph
ENCODING 182
SWIDTH 782 0
DWIDTH 19 0
BBX 18 21 0 -3
BITMAP
000002333444444444
000051000000000004
000930000000000004
01BC00144444444304
0CF900500000000404
5FF903100000000404
9FF904000000000404
BFF904000000000404
BFFA03100000000404
BFFB00500000000404
BFFF20144544444404
AFFFA0000400000404
8FFFFD710400100404
3FFFFFF40404F00404
09FFFFF40404F00404
004AFFF40304F00304
0001FFF40004F00004
0001FFF50005F10004
0001FFFFDDDEFEDDA1
0001FFFFFFFFFFFA10
0000DFFFB4EFFF8000
ENDCHAR
STARTCHAR periodcentered
ENCODING 183
SWIDTH 464 0
DWIDTH 11 0
BBX 11 10 0 2
BITMAP
000244444430
004C00000040
06FD00010040
5FFD00040040
7FFD00040040
7FFD00000040
7FFE00000040
7FFFEDDDDB20
7FFFFFFFA100
5FFFFFF80000
ENDCHAR
STARTCHAR cedilla
ENCODING 184
SWIDTH 600 0
DWIDTH 14 0
BBX 11 11 2 -6
BITMAP
000000100000
000026343000
0004E2010510
005FC0040400
00EF60310400
05FF10401300
0AFA00004000
1FF600005000
7FFEDDD90000
CFFFFF700000
DFFFE5000000
ENDCHAR
STARTCHAR onesuperior
ENCODING 185
SWIDTH 557 0
DWIDTH 13 0
BBX 13 16 0 2
BITMAP
00036444444000
004E4144304000
06FF4000304000
1FFF7310304000
1FFFFF70304000
1FFFFF70304000
09AEFF70304000
000DFF70304000
000DFF70304000
000DA940303440
003D0000300030
05FE0233433130
4FFE1000000040
6FFFFFFFFFFE50
6FFFFFFFFFD300
4DDDDDDDDB1000
ENDCHAR
STARTCHAR ordmasculine
ENCODING 186
SWIDTH 625 0
DWIDTH 15 0
BBX 15 21 0 -3
BITMAP
0000044444444100
0002500000000510
003C002333320040
04EB013000022040
2FFB0302EE403040
7FFB0304FF603040
9FFB0304FF603040
AFFB0304FF603040
AFFB0304FF603040
AFFB0302EE403040
AFFC013000022040
AFFF202333320130
9FFFD40000003400
8FFFFFEBAABD6000
2FFFA99999974430
04DB000000000040
05FB023333332040
5FFC000000000040
AFFFEDDDDDDDDA10
AFFFFFFFFFFFA000
7FFFFFFFFFF80000
ENDCHAR
STARTCHAR guillemotright
ENCODING 187
SWIDTH 912 0
DWIDTH 22 0
BBX 22 15 0 0
BITMAP
0002996100006995100000
003D4048A728D014996100
05EF3000029FD000003940
1FFF30344006D003430070
2FFF40000500D000014013
2FFFD6100400DA40004004
2FFFFFF80400CFFE404004
0BFFE9510400DD83004003
004E50014300D000243012
02DF30320004D004200010
0EFF3000005ED000000200
2FFF30159CFFD001597000
2FFFBBFF88FFF8CFF60000
2FFFFE9308FFFFE9200000
1EC8300006FC7300000000
ENDCHAR
STARTCHAR onequarter
ENCODING 188
SWIDTH 1303 0
DWIDTH 31 0
BBX 31 21 0 -3
BITMAP
00036444444000044444300000000000
004E40000040005B0000400000000000
05FF4144304006F90000400000000000
1FFF731030404FF60401300000000000
1FFFFF7030409FF40404000000000000
1FFFFF703040BFF10404444430444430
0BCFFF703040EFD0030970004A800040
000DFF703042FFB0220C70409F804040
000DFF703045FF80300F70409F804040
000DA9403036CF50403F70409F804040
003D000030003F20405F70409F804040
05FE023343313F00408F704026304040
4FFE000000004C0130BF804000004040
6FFFEDDDDDDDE90300DFA01433335040
6FFFFFFFFFFFF70401FFF60000004040
4FFFFFFFFDBFF40304FFFFFDDD704040
0000000000CFF10006FFFFFFFF801040
0000000000EFF000049EFFFFFF900040
0000000002FFFEDD9100000CFFFDDB20
0000000005FFFFF90000000CFFFFC100
0000000003EFFF700000000AFFF90000
ENDCHAR
STARTCHAR onehalf
ENCODING 189
SWIDTH 1260 0
DWIDTH 30 0
BBX 30 21 0 -3
BITMAP
000364444440000444443000000000
003E40000040005B00004000000000
04EF4144304006F900004000000000
1EFF731030404FF604013000000000
1FFFFF7030409FF404040000000000
1FFFFF703040BFF104053444444410
1FFFFF703040EFD003098000000041
023DFF703042FFB0220C8033334004
000DFF703045FF80300FB444310403
000DA9403036CF50403FFFFFF40404
003D000030003F20405FFFA5100404
05FE023343313F004069C200133123
4FFE000000004C01304B4034200540
6FFFEDDDDDDDE90300DF02105AD300
6FFFFFFFFFFFF70401FE0301995443
4FFFFFFFFCBFF40304FE0300000004
0000000000CFF10006FE0233333304
0000000000EFF0000AFE0000000004
0000000002FFFEDDDFFFEDDDDDDDA1
0000000005FFFFFA7FFFFFFFFFFA10
0000000003EFFF805FFFFFFFFF8000
ENDCHAR
STARTCHAR threequarters
ENCODING 190
SWIDTH 1313 0
DWIDTH 32 0
BBX 31 21 0 -3
BITMAP
00064444434300025444400000000000
009E00000002202D0000400000000000
1BFE0244440032ED0000400000000000
6FFF211100304EFA0220400000000000
6FFFFFFF60309FF70401300000000000
6FFFF9431034AFF40403544440344440
177EF50445316FF20406B00047C00040
009FF50000040BE00409B0406FC04040
00FFFC88730309B0130BB0406FC04040
00FFFFFFF7030990300EB0406FC04040
00EF100000040A60402FB0406FC04040
02DE023333401D30404FB03027604040
3EFE00000002AF10407FB03100004040
6FFFEDDDDDEFFD0030AFE00333336040
6FFFFFFFFFAFFA0310CFF91000004040
4FFFFFFEB45FF80300FFFFFEDDA04040
00000000008FF50003FFFFFFFFC01040
0000000000BFF400036DFFFFFFC00040
0000000000DFFFDDB2000008FFFDDC40
0000000001FFFFFC10000008FFFFE300
0000000001DFFFA100000006FFFC2000
ENDCHAR
STARTCHAR questiondown
ENCODING 191
SWIDTH 756 0
DWIDTH 18 0
BBX 18 21 0 -3
BITMAP
000000001644444400
00000001C600000400
0000001CF600000400
000000BFF600300400
000000EFF600000400
000000EFF800001400
000000EFFFFFDBA100
000001B86420000300
000022000000000300
000730003333410400
009E00331000000300
0AFD00400000247400
4FFD004007DFFE5000
7FFD00400599964443
7FFD00320000000004
8FFF10034444444104
7FFFA0000000000004
6FFFFB300000000004
2FFFFFFEDDDDDDDDB2
07FFFFFFFFFFFFFA10
004AEFFFFFFFFF8000
ENDCHAR
STARTCHAR Agrave
ENCODING 192
SWIDTH 830 0
DWIDTH 20 0
BBX 20 27 0 -3
BITMAP
00000047642000000000
00000790135777773000
00009F70131000005000
000AFF70013444104000
000DFFA2000000004000
000DFFFFEDB975323000
000DFFFC8888888A0000
0007EFE1000000013000
00000990000000004000
00008F40034443003100
0004FD00210002200400
000AF800305F30300400
001FF20120AF80210220
007FC00300EFC0030040
00CF700204FFF2020040
03FF3020001110002031
09FF2030000000003013
0EFF1044444444444003
2FFF1040000000004003
4FFF1040000000004003
4FFF10400AFFF8004003
4FFF10400AFFF8004003
4FFF100009FFF8000003
4FFF200004CFFA000022
4FFFEDDDA1CFFFDDDD60
4FFFFFF900CFFFFFE400
2EFFFE70008FFFFD3000
ENDCHAR
STARTCHAR Aacute
ENCODING 193
SWIDTH 830 0
DWIDTH 20 0
BBX 20 27 0 -3
BITMAP
000000000024689B7000
0000006BBA9753105000
00000990001344104000
0001BF70143100003000
000BFF70000000010000
000DFFA23579BDD30000
000DFFF9444444451000
000DFFE0000000004000
000BFF80000000004000
0001AF30034443002200
0004FC00210002200400
000AF600305F30300400
001FF10120AF80210130
007FB00300EFC0030040
00CF600204FFF2020040
03FF3020001110002031
09FF1030000000003013
0EFF1044444444444003
2FFF1040000000004003
4FFF1040000000004003
4FFF10400AFFF8004003
4FFF10400AFFF8004003
4FFF100009FFF8000003
4FFF200004CFFA000022
4FFFEDDDA1CFFFDDDD50
4FFFFFF900CFFFFFE400
2EFFFE70008FFFFD3000
ENDCHAR
STARTCHAR Acircumflex
ENCODING 194
SWIDTH 830 0
DWIDTH 20 0
BBX 20 27 0 -3
BITMAP
00000000013441000000
00000003430003430000
00000161014441015000
00001C70230003204000
0002DF70000000004000
000BFF8048CFC8404000
000DFFEEEEEEEEEE4000
000DFFF4000000032000
000CFFC0000000004000
00029F60034443004000
0004FE10210002201300
000AF900305F30300400
001FF40120AF80210310
007FD00300EFC0030040
00CF800204FFF2020040
03FF4020001110002030
09FF2030000000003012
0EFF1044444444444003
2FFF1040000000004003
4FFF1040000000004003
4FFF10400AFFF8004003
4FFF10400AFFF8004003
4FFF100009FFF8000003
4FFF200004CFFA000013
4FFFEDDDA1CFFFDDDD70
4FFFFFF900CFFFFFE500
2EFFFE70008FFFFD3000
ENDCHAR
STARTCHAR Atilde
ENCODING 195
SWIDTH 830 0
DWIDTH 20 0
BBX 20 26 0 -3
BITMAP
00000023100000112000
00000370000000003000
00004E70133442104000
0005FF70000002104000
000DFF93676420154000
000DFFFFCCCCCCC80000
000DFFF3000000022000
000CEEB0000000004000
00018F50034443004000
0004FE00210002200300
000AF900305F30300400
001FF30120AF80210210
007FC00300EFC0030040
00CF800204FFF2020040
03FF4020001110002030
09FF2030000000003012
0EFF1044444444444003
2FFF1040000000004003
4FFF1040000000004003
4FFF10400AFFF8004003
4FFF10400AFFF8004003
4FFF100009FFF8000003
4FFF200004CFFA000012
4FFFEDDDA1CFFFDDDD60
4FFFFFF900CFFFFFE500
2EFFFE70008FFFFD3000
ENDCHAR
STARTCHAR Adieresis
ENCODING 196
SWIDTH 830 0
DWIDTH 20 0
BBX 20 26 0 -3
BITMAP
00000244444154444100
00003C00003D20000300
0004EE00403F20300400
004FFE00103F20100400
007FFF10005F40002300
007FFFFFFFFFFFFF6000
007FFFF5000000042000
005FFFC0000000004000
00018F60034443004000
0004FE10210002201300
000AF900305F30300400
001FF40120AF80210310
007FD00300EFC0030040
00CF800204FFF2020040
03FF4020001110002030
09FF2030000000003012
0EFF1044444444444003
2FFF1040000000004003
4FFF1040000000004003
4FFF10400AFFF8004003
4FFF10400AFFF8004003
4FFF100009FFF8000003
4FFF200004CFFA000013
4FFFEDDDA1CFFFDDDD70
4FFFFFF900CFFFFFE500
2EFFFE70008FFFFD3000
ENDCHAR
STARTCHAR Aring
ENCODING 197
SWIDTH 830 0
DWIDTH 20 0
BBX 20 27 0 -3
BITMAP
00000000343334300000
00000025100000151000
00000390034444004000
00005F60410000504000
0005FF50409FB0404000
000DFF5040CFE0404000
000FFF60408D90404000
000FFFB0410000504000
000FFFD0034344004000
000CFF70034443004000
0007FF10210002201300
000CFA00305F30300400
002FF40120AF80210310
008FD00300EFC0030040
00EF800204FFF2020040
04FF4020001110002030
0AFF2030000000003012
0EFF1044444444444003
2FFF1040000000004003
4FFF1040000000004003
4FFF10400AFFF8004003
4FFF10400AFFF8004003
4FFF100009FFF8000003
4FFF200004CFFA000013
4FFFEDDDA1CFFFDDDD70
4FFFFFF900CFFFFFE500
2EFFFE70008FFFFD3000
ENDCHAR
STARTCHAR AE
ENCODING 198
SWIDTH 1105 0
DWIDTH 27 0
BBX 26 21 0 -3
BITMAP
00000025444444444444444445
000004A0000000000000000004
00005F60000000000000000004
0004FF10144444445444444204
000AFB00400000013000000004
001FF500403FF501304FFFFFD2
006FE103109FF501303DDDDC10
00BFA00400EFF5013000000400
02FF601304FFF5013000000400
07FF3040013331010333320400
0CFF1040000000013000000400
1FFF104444444444302AAAA600
3FFF104000000001304FFF8000
4FFF1040000000013029984444
4FFF10400BFFF5013000000004
4FFF10200BFFF5015444444204
4FFF10000AFFF5000000000004
4FFF200005FFF6000000000004
4FFFEDDDA1FFFFDDDDDDDDDDC4
4FFFFFF900FFFFFFFFFFFFFD20
2EFFFE6000CFFFFFFFFFFFB100
ENDCHAR
STARTCHAR Ccedilla
ENCODING 199
SWIDTH 728 0
DWIDTH 17 0
BBX 17 24 0 -6
BITMAP
000000344344444450
000015000000000030
000290004444442030
003E60060000000030
03EF30220000000040
0BFF203003EFFFFD30
1FFF204006FFFFC100
2FFF204005DDD90000
3FFF20400400000000
3FFF20400400000000
3FFF20400400000000
3FFF20400400000000
3FFF20300144444440
3FFF30220000000030
3FFF50050000000030
2FFFB0014444542030
0FFFF7000001200030
0BFFFFC64004002220
03FFFFFFD00303F900
006FFFFF8000088000
00028CFF6000140000
000008FFFFFE400000
00000EFFFFE3000000
00000BDDDB20000000
ENDCHAR
STARTCHAR Egrave
ENCODING 200
SWIDTH 754 0
DWIDTH 18 0
BBX 17 27 1 -3
BITMAP
00007BA86420000000
000AA013579ABB6000
01CF80144310005000
0AFF80000024204000
0CFFB2000000003000
0CFFFFFDB975421000
0BFB44444444444430
04E600000000000040
09F600000000000040
AFF600544444440040
EFF600400000000030
EFF600403DDDDDD900
EFF600403FFFFF8000
EFF600400000014000
EFF600400000004000
EFF600644444104000
EFF600400000003000
EFF600401666662000
EFF600403FFFE30000
EFF600402999644420
EFF600400000000040
EFF600544444440040
EFF600000000000040
EFF800000000000040
EFFFDDDDDDDDDDDA10
EFFFFFFFFFFFFF9000
BFFFFFFFFFFFE60000
ENDCHAR
STARTCHAR Eacute
ENCODING 201
SWIDTH 754 0
DWIDTH 18 0
BBX 17 27 1 -3
BITMAP
0000000012468AB400
000008BBA875310500
0001B6000134410400
002DF4024200000300
00EFF4000000001000
01FFF724679BDC2000
01FB44444444444430
02F600000000000040
3EF600000000000040
DFF600544444440040
EFF600400000000030
EFF600403DDDDDD900
EFF600403FFFFF8000
EFF600400000014000
EFF600400000004000
EFF600644444104000
EFF600400000003000
EFF600401666662000
EFF600403FFFE30000
EFF600402999644420
EFF600400000000040
EFF600544444440040
EFF600000000000040
EFF800000000000040
EFFFDDDDDDDDDDDA10
EFFFFFFFFFFFFF9000
BFFFFFFFFFFFE60000
ENDCHAR
STARTCHAR Ecircumflex
ENCODING 202
SWIDTH 754 0
DWIDTH 18 0
BBX 17 27 1 -3
BITMAP
000000003343000000
000001230001442000
000060014443004100
001AC0030001202200
01CFC0015873002200
07FFE7BFFFFFE96000
08FB44444444444430
08F600000000000040
0AF600000000000040
9FF600544444440040
EFF600400000000030
EFF600403DDDDDD900
EFF600403FFFFF8000
EFF600400000014000
EFF600400000004000
EFF600644444104000
EFF600400000003000
EFF600401666662000
EFF600403FFFE30000
EFF600402999644420
EFF600400000000040
EFF600544444440040
EFF600000000000040
EFF800000000000040
EFFFDDDDDDDDDDDA10
EFFFFFFFFFFFFF9000
BFFFFFFFFFFFE60000
ENDCHAR
STARTCHAR Edieresis
ENCODING 203
SWIDTH 754 0
DWIDTH 18 0
BBX 17 26 1 -3
BITMAP
000044444234444400
0008700008B0000400
00AF703109A0030400
0AFF700009A0010400
0DFF90000BC1000100
0DFFFFFFFFFFFFFE50
0DF900000000000050
0BF600000000000040
5EF600544444440040
DFF600400000000040
EFF600403DDDDDD900
EFF600403FFFFF8000
EFF600400000014000
EFF600400000004000
EFF600644444104000
EFF600400000003000
EFF600401666662000
EFF600403FFFE30000
EFF600402999644420
EFF600400000000040
EFF600544444440040
EFF600000000000040
EFF800000000000040
EFFFDDDDDDDDDDDA10
EFFFFFFFFFFFFF9000
BFFFFFFFFFFFE60000
ENDCHAR
STARTCHAR Igrave
ENCODING 204
SWIDTH 705 0
DWIDTH 17 0
BBX 17 27 0 -3
BITMAP
00003BA97531000000
0005E102468ABBA100
007FF0034320002400
04FFF0000023300400
06FFF4000000000300
06FFFFFECA86420100
05FF64444444444510
01BF00000000000030
02DF00000000000030
1EFF00344454430030
4FFF10000120000030
4FFFA7720120177500
4FFFFFF401203F9000
4FFFFFF40120380000
0566FFF40120300000
0001FFF40120300000
0001FFF40120300000
0001FFF40120300000
0001FFF40120300000
0001C9920120244500
002C10000120000130
03EF00344454430030
2FFF00000000000030
4FFF20000000000130
4FFFEDDDDDDDDDD700
4FFFFFFFFFFFFE5000
2EFFFFFFFFFFD30000
ENDCHAR
STARTCHAR Iacute
ENCODING 205
SWIDTH 705 0
DWIDTH 17 0
BBX 17 27 0 -3
BITMAP
0000000013579AB100
00002ABBA864201400
0003E2000234300400
005FF0033200000300
04FFF0000000000000
06FFF32468ACE90000
06FF64444444444510
06FF00000000000030
04FF00000000000030
0BFF00344454430030
4FFF10000120000030
4FFFA7720120177500
4FFFFFF401203F9000
4FFFFFF40120380000
0566FFF40120300000
0001FFF40120300000
0001FFF40120300000
0001FFF40120300000
0001FFF40120300000
0001C9920120244500
002C10000120000130
03EF00344454430030
2FFF00000000000030
4FFF20000000000130
4FFFEDDDDDDDDDD700
4FFFFFFFFFFFFE5000
2EFFFFFFFFFFD30000
ENDCHAR
STARTCHAR Icircumflex
ENCODING 206
SWIDTH 705 0
DWIDTH 17 0
BBX 17 27 0 -3
BITMAP
000000002343000000
000001220000343000
000051003443001300
0007E0020000200400
009FF0004774000300
04FFF7AEFFFFEA6100
06FF64444444444510
06FF00000000000030
05FF00000000000030
0AFF00344454430030
4FFF10000120000030
4FFFA7720120177500
4FFFFFF401203F9000
4FFFFFF40120380000
0566FFF40120300000
0001FFF40120300000
0001FFF40120300000
0001FFF40120300000
0001FFF40120300000
0001C9920120244500
002C10000120000130
03EF00344454430030
2FFF00000000000030
4FFF20000000000130
4FFFEDDDDDDDDDD700
4FFFFFFFFFFFFE5000
2EFFFFFFFFFFD30000
ENDCHAR
STARTCHAR Idieresis
ENCODING 207
SWIDTH 705 0
DWIDTH 17 0
BBX 17 26 0 -3
BITMAP
000044444234444300
000960000990000400
01AF60300A90130400
0BFF60100A90000400
0EFF80001CB0001100
0EFFFFFFFFFFFFFE10
0EFF30000000000230
0CFF00000000000030
0AFF00344454430030
4FFF10000120000030
4FFFA7720120177500
4FFFFFF401203F9000
4FFFFFF40120380000
0566FFF40120300000
0001FFF40120300000
0001FFF40120300000
0001FFF40120300000
0001FFF40120300000
0001C9920120244500
002C10000120000130
03EF00344454430030
2FFF00000000000030
4FFF20000000000130
4FFFEDDDDDDDDDD700
4FFFFFFFFFFFFE5000
2EFFFFFFFFFFD30000
ENDCHAR
STARTCHAR Eth
ENCODING 208
SWIDTH 856 0
DWIDTH 21 0
BBX 21 21 -1 -3
BITMAP
0000064444444433332000
0000AA0000000000002400
001BFA0000000000000330
009FFA0044444444200040
00AFFA0040000000240040
00AFFA00400FFFC0040040
00AFFA00400FFFF1040040
00AF610040015FF1040040
00AF400040002FF1040040
05FF402464302FF1040040
1FFF400040002FF1040040
1FFF600040004FF1040040
1FFFFA00400EFFF1040040
1FFFFA004009CCA0040030
06DFFA0040000000240040
00AFFA0044444444300130
00AFFA0000000000000400
00AFFB0000000000045000
00AFFFDDDDDDDDDEF80000
00AFFFFFFFFFFFFF600000
007FFFFFFFFFEC92000000
ENDCHAR
STARTCHAR Ntilde
ENCODING 209
SWIDTH 853 0
DWIDTH 20 0
BBX 19 26 1 -3
BITMAP
00000141000112220000
00002A00000000030000
0004EB00434431030000
005FFB00000011030000
009FFC36775311210000
009B4447FFFFE4444430
01C600006FFFD0000040
1CF6000008EFD0000040
CFF6017100BFD0040040
EFF60135001DD0040040
EFF601305003C0040040
EFF60130040040040040
EFF60130014000040040
EFF60130002300040040
EFF60130210230040040
EFF601304A0032040040
EFF601304F8003140040
EFF601304FF500440040
EFF601304FFE30050040
EFF601304FFFC0040040
EFF601304FFFD0040040
EFF600004DFFD0000040
EFF8000047FFE0000040
EFFFDDDC47FFFEDDD700
EFFFFFD307FFFFFF6000
BFFFFB1004FFFFE40000
ENDCHAR
STARTCHAR Ograve
ENCODING 210
SWIDTH 837 0
DWIDTH 20 0
BBX 20 27 0 -3
BITMAP
00000058754200000000
000008A0135788884000
0000AF80143100005000
0009FF80000244204000
000CFFB2000000003000
000CFFFFFDB975422000
000BFFD8421011364100
00039800000000000420
00028000243334300040
004E5004200000150021
04FF3013000000013003
0CFF203003DFE5004004
1FFF204006FFF9004004
3FFF204006FFF9004004
3FFF204004CFF9004004
3FFF204004BFF9004004
3FFF204004BFF9004004
3FFF204004BFF9004004
3FFF203004BFF9004004
3FFF3013018BA3013004
3FFF4004200000150012
2FFF9000244444300040
1FFFF600000000000330
0CFFFFB6200000258300
04FFFFFFFFEDEEFC2000
005EFFFFFFFFFFA10000
00016ADEFEEB83000000
ENDCHAR
STARTCHAR Oacute
ENCODING 211
SWIDTH 837 0
DWIDTH 20 0
BBX 20 27 0 -3
BITMAP
00000000000246796000
00000049999753105000
000006A0000134204000
00009F80144310003000
0009FF80000000011000
000CFFB23579BCE60000
000CFFD8421011344100
000BF800000000000420
0006B000243334300040
003E5004200000150022
03FF3013000000013003
0CFF203003DFE5004004
1FFF204006FFF9004004
3FFF204006FFF9004004
3FFF204004CFF9004004
3FFF204004BFF9004004
3FFF204004BFF9004004
3FFF204004BFF9004004
3FFF203004BFF9004004
3FFF3013018BA3013004
3FFF4004200000150012
2FFF9000244444300040
1FFFF600000000000330
0CFFFFB6200000258300
04FFFFFFFFEDEEFC2000
005EFFFFFFFFFFA10000
00016ADEFEEB83000000
ENDCHAR
STARTCHAR Ocircumflex
ENCODING 212
SWIDTH 837 0
DWIDTH 20 0
BBX 20 27 0 -3
BITMAP
00000000013332000000
00000002320002331000
00000160024442004000
00003D80120001103000
0005FF80026872004000
000BFFC8CFFFFFD96000
000CFFD8421011364100
000CF800000000000420
0008B000243334300040
003E5004200000150022
03FF3013000000013003
0CFF203003DFE5004004
1FFF204006FFF9004004
3FFF204006FFF9004004
3FFF204004CFF9004004
3FFF204004BFF9004004
3FFF204004BFF9004004
3FFF204004BFF9004004
3FFF203004BFF9004004
3FFF3013018BA3013004
3FFF4004200000150012
2FFF9000244444300040
1FFFF600000000000330
0CFFFFB6200000258300
04FFFFFFFFEDEEFC2000
005EFFFFFFFFFFA10000
00016ADEFEEB83000000
ENDCHAR
STARTCHAR Otilde
ENCODING 213
SWIDTH 837 0
DWIDTH 20 0
BBX 20 27 0 -3
BITMAP
00000004444430154000
00000171000014304000
00001C80010000004000
0002DF80134455204000
000AFF80000000003000
000CFFA3797521153000
000CFFFDA87667982000
000CFC40000000002500
0006D100243334300040
003E6004200000150021
03EF3013000000013003
0CFF203003DFE5004003
1FFF204006FFF9004004
3FFF204006FFF9004004
3FFF204004CFF9004004
3FFF204004BFF9004004
3FFF204004BFF9004004
3FFF204004BFF9004004
3FFF203004BFF9004004
3FFF3013018BA3013004
3FFF4004200000150013
2FFF9000244444300040
1FFFF500000000000330
0CFFFFB5200000148400
04FFFFFFFFEDEEFD2000
005EFFFFFFFFFFA10000
00016ADEFEEB83000000
ENDCHAR
STARTCHAR Odieresis
ENCODING 214
SWIDTH 837 0
DWIDTH 20 0
BBX 20 27 0 -3
BITMAP
00000144444044444100
00002C00002830000400
0003DF00002F30000400
002EFF00302F30400400
005FFF00102F30100300
005FFF20004F60002200
005FFFFFDBA9ABDF6000
005FFE72000000015500
0007E200243334300150
003E7004200000150030
03FF4013000000013003
0CFF203003DFE5004003
1FFF204006FFF9004004
3FFF204006FFF9004004
3FFF204004CFF9004004
3FFF204004BFF9004004
3FFF204004BFF9004004
3FFF204004BFF9004004
3FFF203004BFF9004004
3FFF3013018BA3013004
3FFF4004200000150013
2FFF9000244444300040
1FFFF500000000000340
0CFFFFB5200000149400
04FFFFFFFFEDEEFD2000
005EFFFFFFFFFFA10000
00016ADEFEEB83000000
ENDCHAR
STARTCHAR multiply
ENCODING 215
SWIDTH 834 0
DWIDTH 20 0
BBX 18 17 1 -1
BITMAP
000002430000024300
000034023000430330
000650002306400033
007D00010284010005
07FFA0032000140041
5FFFFA003201400410
4FFFFFA00334004100
05FFFFE30172014000
005FFE401403202300
0005E3014000320230
000930040060030013
009E100008FB000005
0AFFC1008FFFB00061
6FFFFC25FFFFFB1610
3EFFFFA05FFFFFA100
03EFF70005FFF80000
003C5000006E500000
ENDCHAR
STARTCHAR Oslash
ENCODING 216
SWIDTH 837 0
DWIDTH 20 0
BBX 20 25 0 -5
BITMAP
00000000000002444410
00000000000036000220
00000024444441000400
00000420000000310410
00018000344444300040
003D6005100001101021
03EF3040002302003003
0BFF20400AF911004003
1FFF20400DF320004004
2FFF20400DB021104004
3FFF20400D5206204004
3FFF20400C020C204004
3FFF204006114F204004
3FFF20400020AF204004
3FFF20400022FF104004
3FFF30300208EA004004
3FFF5001020000151023
2FFFB000344444300050
1FFFF900400000000530
0CFFFB0000001136A300
06FFF60003FFFFFC2000
00AFFB888DFFFFA10000
00AFFFFFFEEB83000000
01FFFFE3000000000000
00677720000000000000
ENDCHAR
STARTCHAR Ugrave
ENCODING 217
SWIDTH 846 0
DWIDTH 20 0
BBX 20 27 0 -3
BITMAP
0000008B986420000000
00001B8013579ABB5000
0002DF70144310005000
000CFF70000134104000
000EFFA1000000004000
000EFFFFEDB975321000
000C944448FFFE444443
003E400003FFFB000004
05FF4012032DFB002004
0FFF4013038FFB004004
1FFF4013039FFB004004
1FFF4013039FFB004004
1FFF4013039FFB004004
1FFF4013039FFB004004
1FFF4013039FFB004004
1FFF4013039FFB004004
1FFF4013039FFB004004
1FFF4013039FFB004004
1FFF400301BFF8004004
1FFF5004000210014004
1FFF7003300000150013
0FFFC000144444300040
0DFFF800000000000330
09FFFFC6200000148300
02EFFFFFFFEDEEFC2000
003DFFFFFFFFFFA10000
00006ADEFEEC93000000
ENDCHAR
STARTCHAR Uacute
ENCODING 218
SWIDTH 846 0
DWIDTH 20 0
BBX 20 27 0 -3
BITMAP
000000000013579AA100
0000002ABBA864202300
000004D1000244300300
00006FE0033100000300
0004FFE0000000010000
0006FFF23468ACE80000
0006944448FFFE444443
003E40000397EB000004
05FF4012031BFB002004
0FFF4013038FFB004004
1FFF4013039FFB004004
1FFF4013039FFB004004
1FFF4013039FFB004004
1FFF4013039FFB004004
1FFF4013039FFB004004
1FFF4013039FFB004004
1FFF4013039FFB004004
1FFF4013039FFB004004
1FFF400301BFF8004004
1FFF5004000210014004
1FFF7003300000150013
0FFFC000144444300040
0DFFF800000000000330
09FFFFC6200000148300
02EFFFFFFFEDEEFC2000
003DFFFFFFFFFFA10000
00006ADEFEEC93000000
ENDCHAR
STARTCHAR Ucircumflex
ENCODING 219
SWIDTH 846 0
DWIDTH 20 0
BBX 20 27 0 -3
BITMAP
00000000013332000000
00000001220001221000
00000270024343003000
00004EA0010000104000
0005FFA037BED9414000
000AFFFEFFFFFFFF9000
000A944448FFFE444443
003E4000039DFB000004
05FF4012031BFB002004
0FFF4013038FFB004004
1FFF4013039FFB004004
1FFF4013039FFB004004
1FFF4013039FFB004004
1FFF4013039FFB004004
1FFF4013039FFB004004
1FFF4013039FFB004004
1FFF4013039FFB004004
1FFF4013039FFB004004
1FFF400301AFE7004004
1FFF5004000000014004
1FFF7003300000150013
0FFFC000144444300040
0DFFF800000000000330
09FFFFC6200000148300
02EFFFFFFFEDEEFC2000
003DFFFFFFFFFFA10000
00006ADEFEEC93000000
ENDCHAR
STARTCHAR Udieresis
ENCODING 220
SWIDTH 846 0
DWIDTH 20 0
BBX 20 27 0 -3
BITMAP
00000154444034444200
00001C20001850000400
0003DF10000F50000400
001EFF10300F50300400
003FFF10100F50100300
004FFF40003F70002000
004FFFFFFFFFFFFFFFE3
005F600005FFFD100015
06FF400003BDFB000004
0FFF4013034FFB004004
1FFF4013039FFB004004
1FFF4013039FFB004004
1FFF4013039FFB004004
1FFF4013039FFB004004
1FFF4013039FFB004004
1FFF4013039FFB004004
1FFF4013039FFB004004
1FFF4013039FFB004004
1FFF401302BFF9004004
1FFF5004001330004004
1FFF6003300000150003
0FFFB000244444300030
0DFFF700000000000220
09FFFFC6200000148300
02EFFFFFFFEDEEFC2000
003DFFFFFFFFFFA10000
00006ADEFEEC93000000
ENDCHAR
STARTCHAR Yacute
ENCODING 221
SWIDTH 805 0
DWIDTH 19 0
BBX 19 27 0 -3
BITMAP
00000000002468AB6000
0000007BBA9753105000
00000A80001344104000
0001CF60242100003000
000CFF60000000010000
000EFF924579BDD30000
000D54444DFFF9444450
008D00000889F4000040
0AFD0020044EF4010040
6FFD004004EFF4031040
8FFD004004FFF4031040
8FFD004004FFF4031040
8FFD004004FFD0040040
8FFF101300BF40040040
7FFF7003102500400130
7FFFF300400003200400
4FFFFC00130013004100
0BFFFF90013530022000
02EFFFF5000400040000
005FFFFE200400400000
0009FFFF600400400000
0001DFFF600300400000
00003FFF600000400000
00000EFF700001300000
00000EFFFDDDD6000000
00000EFFFFFF50000000
00000BFFFFD300000000
ENDCHAR
STARTCHAR Thorn
ENCODING 222
SWIDTH 792 0
DWIDTH 19 0
BBX 18 21 1 -3
BITMAP
001644445000000000
02C600002200000000
3EF600002211000000
DFF600400333444300
EFF600400000000240
EFF600644444420041
EFF600400000023004
EFF600400000004004
EFF600403FFD004004
EFF600403FFF204004
EFF600403FFF104004
EFF600402AA7004004
EFF600400000023004
EFF600644444420032
EFF600400000000140
EFF600400000126500
EFF600002FFFFE5000
EFF800003FFFD30000
EFFFDDDDDCA6100000
EFFFFFF70000000000
BFFFFC300000000000
ENDCHAR
STARTCHAR germandbls
ENCODING 223
SWIDTH 859 0
DWIDTH 21 0
BBX 20 21 1 -3
BITMAP
00174444444444440000
02C60000000000014000
3EF60000000000004000
DFF60044444442003100
EFF60040000004003100
EFF60040154004004000
EFF600402FF204004000
EFF600402FE004005100
EFF600402FB012000320
EFF600402F7034430031
EFF600402F8000013004
EFF600402FFFF9004004
EFF600402FFFFA004004
EFF600402FA542004004
EFF600402F4000013004
EFF600202F4024440013
EFF600002F4000000050
EFF800003F6000003610
EFFFDDDDFFFDDDDE9000
EFFFFFEFFFFFFFF70000
BFFFFC2CFFFFEA300000
ENDCHAR
STARTCHAR agrave
ENCODING 224
SWIDTH 830 0
DWIDTH 20 0
BBX 20 27 0 -3
BITMAP
00000047642000000000
00000790135777773000
00009F70131000005000
000AFF70013444104000
000DFFA2000000004000
000DFFFFEDB975323000
000DFFFC8888888A0000
0007EFE1000000013000
00000990000000004000
00008F40034443003100
0004FD00210002200400
000AF800305F30300400
001FF20120AF80210220
007FC00300EFC0030040
00CF700204FFF2020040
03FF3020001110002031
09FF2030000000003013
0EFF1044444444444003
2FFF1040000000004003
4FFF1040000000004003
4FFF10400AFFF8004003
4FFF10400AFFF8004003
4FFF100009FFF8000003
4FFF200004CFFA000022
4FFFEDDDA1CFFFDDDD60
4FFFFFF900CFFFFFE400
2EFFFE70008FFFFD3000
ENDCHAR
STARTCHAR aacute
ENCODING 225
SWIDTH 830 0
DWIDTH 20 0
BBX 20 27 0 -3
BITMAP
000000000024689B7000
0000006BBA9753105000
00000990001344104000
0001BF70143100003000
000BFF70000000010000
000DFFA23579BDD30000
000DFFF9444444451000
000DFFE0000000004000
000BFF80000000004000
0001AF30034443002200
0004FC00210002200400
000AF600305F30300400
001FF10120AF80210130
007FB00300EFC0030040
00CF600204FFF2020040
03FF3020001110002031
09FF1030000000003013
0EFF1044444444444003
2FFF1040000000004003
4FFF1040000000004003
4FFF10400AFFF8004003
4FFF10400AFFF8004003
4FFF100009FFF8000003
4FFF200004CFFA000022
4FFFEDDDA1CFFFDDDD50
4FFFFFF900CFFFFFE400
2EFFFE70008FFFFD3000
ENDCHAR
STARTCHAR acircumflex
ENCODING 226
SWIDTH 830 0
DWIDTH 20 0
BBX 20 27 0 -3
BITMAP
00000000013441000000
00000003430003430000
00000161014441015000
00001C70230003204000
0002DF70000000004000
000BFF8048CFC8404000
000DFFEEEEEEEEEE4000
000DFFF4000000032000
000CFFC0000000004000
00029F60034443004000
0004FE10210002201300
000AF900305F30300400
001FF40120AF80210310
007FD00300EFC0030040
00CF800204FFF2020040
03FF4020001110002030
09FF2030000000003012
0EFF1044444444444003
2FFF1040000000004003
4FFF1040000000004003
4FFF10400AFFF8004003
4FFF10400AFFF8004003
4FFF100009FFF8000003
4FFF200004CFFA000013
4FFFEDDDA1CFFFDDDD70
4FFFFFF900CFFFFFE500
2EFFFE70008FFFFD3000
ENDCHAR
STARTCHAR atilde
ENCODING 227
SWIDTH 830 0
DWIDTH 20 0
BBX 20 26 0 -3
BITMAP
00000023100000112000
00000370000000003000
00004E70133442104000
0005FF70000002104000
000DFF93676420154000
000DFFFFCCCCCCC80000
000DFFF3000000022000
000CEEB0000000004000
00018F50034443004000
0004FE00210002200300
000AF900305F30300400
001FF30120AF80210210
007FC00300EFC0030040
00CF800204FFF2020040
03FF4020001110002030
09FF2030000000003012
0EFF1044444444444003
2FFF1040000000004003
4FFF1040000000004003
4FFF10400AFFF8004003
4FFF10400AFFF8004003
4FFF100009FFF8000003
4FFF200004CFFA000012
4FFFEDDDA1CFFFDDDD60
4FFFFFF900CFFFFFE500
2EFFFE70008FFFFD3000
ENDCHAR
STARTCHAR adieresis
ENCODING 228
SWIDTH 830 0
DWIDTH 20 0
BBX 20 26 0 -3
BITMAP
00000244444154444100
00003C00003D20000300
0004EE00403F20300400
004FFE00103F20100400
007FFF10005F40002300
007FFFFFFFFFFFFF6000
007FFFF5000000042000
005FFFC0000000004000
00018F60034443004000
0004FE10210002201300
000AF900305F30300400
001FF40120AF80210310
007FD00300EFC0030040
00CF800204FFF2020040
03FF4020001110002030
09FF2030000000003012
0EFF1044444444444003
2FFF1040000000004003
4FFF1040000000004003
4FFF10400AFFF8004003
4FFF10400AFFF8004003
4FFF100009FFF8000003
4FFF200004CFFA000013
4FFFEDDDA1CFFFDDDD70
4FFFFFF900CFFFFFE500
2EFFFE70008FFFFD3000
ENDCHAR
STARTCHAR aring
ENCODING 229
SWIDTH 830 0
DWIDTH 20 0
BBX 20 27 0 -3
BITMAP
00000000343334300000
00000025100000151000
00000390034444004000
00005F60410000504000
0005FF50409FB0404000
000DFF5040CFE0404000
000FFF60408D90404000
000FFFB0410000504000
000FFFD0034344004000
000CFF70034443004000
0007FF10210002201300
000CFA00305F30300400
002FF40120AF80210310
008FD00300EFC0030040
00EF800204FFF2020040
04FF4020001110002030
0AFF2030000000003012
0EFF1044444444444003
2FFF1040000000004003
4FFF1040000000004003
4FFF10400AFFF8004003
4FFF10400AFFF8004003
4FFF100009FFF8000003
4FFF200004CFFA000013
4FFFEDDDA1CFFFDDDD70
4FFFFFF900CFFFFFE500
2EFFFE70008FFFFD3000
ENDCHAR
STARTCHAR ae
ENCODING 230
SWIDTH 1105 0
DWIDTH 27 0
BBX 26 21 0 -3
BITMAP
00000025444444444444444445
000004A0000000000000000004
00005F60000000000000000004
0004FF10144444445444444204
000AFB00400000013000000004
001FF500403FF501304FFFFFD2
006FE103109FF501303DDDDC10
00BFA00400EFF5013000000400
02FF601304FFF5013000000400
07FF3040013331010333320400
0CFF1040000000013000000400
1FFF104444444444302AAAA600
3FFF104000000001304FFF8000
4FFF1040000000013029984444
4FFF10400BFFF5013000000004
4FFF10200BFFF5015444444204
4FFF10000AFFF5000000000004
4FFF200005FFF6000000000004
4FFFEDDDA1FFFFDDDDDDDDDDC4
4FFFFFF900FFFFFFFFFFFFFD20
2EFFFE6000CFFFFFFFFFFFB100
ENDCHAR
STARTCHAR ccedilla
ENCODING 231
SWIDTH 728 0
DWIDTH 17 0
BBX 17 24 0 -6
BITMAP
000000344344444450
000015000000000030
000290004444442030
003E60060000000030
03EF30220000000040
0BFF203003EFFFFD30
1FFF204006FFFFC100
2FFF204005DDD90000
3FFF20400400000000
3FFF20400400000000
3FFF20400400000000
3FFF20400400000000
3FFF20300144444440
3FFF30220000000030
3FFF50050000000030
2FFFB0014444542030
0FFFF7000001200030
0BFFFFC64004002220
03FFFFFFD00303F900
006FFFFF8000088000
00028CFF6000140000
000008FFFFFE400000
00000EFFFFE3000000
00000BDDDB20000000
ENDCHAR
STARTCHAR egrave
ENCODING 232
SWIDTH 754 0
DWIDTH 18 0
BBX 17 27 1 -3
BITMAP
00007BA86420000000
000AA013579ABB6000
01CF80144310005000
0AFF80000024204000
0CFFB2000000003000
0CFFFFFDB975421000
0BFB44444444444430
04E600000000000040
09F600000000000040
AFF600544444440040
EFF600400000000030
EFF600403DDDDDD900
EFF600403FFFFF8000
EFF600400000014000
EFF600400000004000
EFF600644444104000
EFF600400000003000
EFF600401666662000
EFF600403FFFE30000
EFF600402999644420
EFF600400000000040
EFF600544444440040
EFF600000000000040
EFF800000000000040
EFFFDDDDDDDDDDDA10
EFFFFFFFFFFFFF9000
BFFFFFFFFFFFE60000
ENDCHAR
STARTCHAR eacute
ENCODING 233
SWIDTH 754 0
DWIDTH 18 0
BBX 17 27 1 -3
BITMAP
0000000012468AB400
000008BBA875310500
0001B6000134410400
002DF4024200000300
00EFF4000000001000
01FFF724679BDC2000
01FB44444444444430
02F600000000000040
3EF600000000000040
DFF600544444440040
EFF600400000000030
EFF600403DDDDDD900
EFF600403FFFFF8000
EFF600400000014000
EFF600400000004000
EFF600644444104000
EFF600400000003000
EFF600401666662000
EFF600403FFFE30000
EFF600402999644420
EFF600400000000040
EFF600544444440040
EFF600000000000040
EFF800000000000040
EFFFDDDDDDDDDDDA10
EFFFFFFFFFFFFF9000
BFFFFFFFFFFFE60000
ENDCHAR
STARTCHAR ecircumflex
ENCODING 234
SWIDTH 754 0
DWIDTH 18 0
BBX 17 27 1 -3
BITMAP
000000003343000000
000001230001442000
000060014443004100
001AC0030001202200
01CFC0015873002200
07FFE7BFFFFFE96000
08FB44444444444430
08F600000000000040
0AF600000000000040
9FF600544444440040
EFF600400000000030
EFF600403DDDDDD900
EFF600403FFFFF8000
EFF600400000014000
EFF600400000004000
EFF600644444104000
EFF600400000003000
EFF600401666662000
EFF600403FFFE30000
EFF600402999644420
EFF600400000000040
EFF600544444440040
EFF600000000000040
EFF800000000000040
EFFFDDDDDDDDDDDA10
EFFFFFFFFFFFFF9000
BFFFFFFFFFFFE60000
ENDCHAR
STARTCHAR edieresis
ENCODING 235
SWIDTH 754 0
DWIDTH 18 0
BBX 17 26 1 -3
BITMAP
000044444234444400
0008700008B0000400
00AF703109A0030400
0AFF700009A0010400
0DFF90000BC1000100
0DFFFFFFFFFFFFFE50
0DF900000000000050
0BF600000000000040
5EF600544444440040
DFF600400000000040
EFF600403DDDDDD900
EFF600403FFFFF8000
EFF600400000014000
EFF600400000004000
EFF600644444104000
EFF600400000003000
EFF600401666662000
EFF600403FFFE30000
EFF600402999644420
EFF600400000000040
EFF600544444440040
EFF600000000000040
EFF800000000000040
EFFFDDDDDDDDDDDA10
EFFFFFFFFFFFFF9000
BFFFFFFFFFFFE60000
ENDCHAR
STARTCHAR igrave
ENCODING 236
SWIDTH 705 0
DWIDTH 17 0
BBX 17 27 0 -3
BITMAP
00003BA97531000000
0005E102468ABBA100
007FF0034320002400
04FFF0000023300400
06FFF4000000000300
06FFFFFECA86420100
05FF64444444444510
01BF00000000000030
02DF00000000000030
1EFF00344454430030
4FFF10000120000030
4FFFA7720120177500
4FFFFFF401203F9000
4FFFFFF40120380000
0566FFF40120300000
0001FFF40120300000
0001FFF40120300000
0001FFF40120300000
0001FFF40120300000
0001C9920120244500
002C10000120000130
03EF00344454430030
2FFF00000000000030
4FFF20000000000130
4FFFEDDDDDDDDDD700
4FFFFFFFFFFFFE5000
2EFFFFFFFFFFD30000
ENDCHAR
STARTCHAR iacute
ENCODING 237
SWIDTH 705 0
DWIDTH 17 0
BBX 17 27 0 -3
BITMAP
0000000013579AB100
00002ABBA864201400
0003E2000234300400
005FF0033200000300
04FFF0000000000000
06FFF32468ACE90000
06FF64444444444510
06FF00000000000030
04FF00000000000030
0BFF00344454430030
4FFF10000120000030
4FFFA7720120177500
4FFFFFF401203F9000
4FFFFFF40120380000
0566FFF40120300000
0001FFF40120300000
0001FFF40120300000
0001FFF40120300000
0001FFF40120300000
0001C9920120244500
002C10000120000130
03EF00344454430030
2FFF00000000000030
4FFF20000000000130
4FFFEDDDDDDDDDD700
4FFFFFFFFFFFFE5000
2EFFFFFFFFFFD30000
ENDCHAR
STARTCHAR icircumflex
ENCODING 238
SWIDTH 705 0
DWIDTH 17 0
BBX 17 27 0 -3
BITMAP
000000002343000000
000001220000343000
000051003443001300
0007E0020000200400
009FF0004774000300
04FFF7AEFFFFEA6100
06FF64444444444510
06FF00000000000030
05FF00000000000030
0AFF00344454430030
4FFF10000120000030
4FFFA7720120177500
4FFFFFF401203F9000
4FFFFFF40120380000
0566FFF40120300000
0001FFF40120300000
0001FFF40120300000
0001FFF40120300000
0001FFF40120300000
0001C9920120244500
002C10000120000130
03EF00344454430030
2FFF00000000000030
4FFF20000000000130
4FFFEDDDDDDDDDD700
4FFFFFFFFFFFFE5000
2EFFFFFFFFFFD30000
ENDCHAR
STARTCHAR idieresis
ENCODING 239
SWIDTH 705 0
DWIDTH 17 0
BBX 17 26 0 -3
BITMAP
000044444234444300
000960000990000400
01AF60300A90130400
0BFF60100A90000400
0EFF80001CB0001100
0EFFFFFFFFFFFFFE10
0EFF30000000000230
0CFF00000000000030
0AFF00344454430030
4FFF10000120000030
4FFFA7720120177500
4FFFFFF401203F9000
4FFFFFF40120380000
0566FFF40120300000
0001FFF40120300000
0001FFF40120300000
0001FFF40120300000
0001FFF40120300000
0001C9920120244500
002C10000120000130
03EF00344454430030
2FFF00000000000030
4FFF20000000000130
4FFFEDDDDDDDDDD700
4FFFFFFFFFFFFE5000
2EFFFFFFFFFFD30000
ENDCHAR
STARTCHAR eth
ENCODING 240
SWIDTH 856 0
DWIDTH 21 0
BBX 21 21 -1 -3
BITMAP
0000064444444433332000
0000AA0000000000002400
001BFA0000000000000330
009FFA0044444444200040
00AFFA0040000000240040
00AFFA00400FFFC0040040
00AFFA00400FFFF1040040
00AF610040015FF1040040
00AF400040002FF1040040
05FF402464302FF1040040
1FFF400040002FF1040040
1FFF600040004FF1040040
1FFFFA00400EFFF1040040
1FFFFA004009CCA0040030
06DFFA0040000000240040
00AFFA0044444444300130
00AFFA0000000000000400
00AFFB0000000000045000
00AFFFDDDDDDDDDEF80000
00AFFFFFFFFFFFFF600000
007FFFFFFFFFEC92000000
ENDCHAR
STARTCHAR ntilde
ENCODING 241
SWIDTH 853 0
DWIDTH 20 0
BBX 19 26 1 -3
BITMAP
00000141000112220000
00002A00000000030000
0004EB00434431030000
005FFB00000011030000
009FFC36775311210000
009B4447FFFFE4444430
01C600006FFFD0000040
1CF6000008EFD0000040
CFF6017100BFD0040040
EFF60135001DD0040040
EFF601305003C0040040
EFF60130040040040040
EFF60130014000040040
EFF60130002300040040
EFF60130210230040040
EFF601304A0032040040
EFF601304F8003140040
EFF601304FF500440040
EFF601304FFE30050040
EFF601304FFFC0040040
EFF601304FFFD0040040
EFF600004DFFD0000040
EFF8000047FFE0000040
EFFFDDDC47FFFEDDD700
EFFFFFD307FFFFFF6000
BFFFFB1004FFFFE40000
ENDCHAR
STARTCHAR ograve
ENCODING 242
SWIDTH 837 0
DWIDTH 20 0
BBX 20 27 0 -3
BITMAP
00000058754200000000
000008A0135788884000
0000AF80143100005000
0009FF80000244204000
000CFFB2000000003000
000CFFFFFDB975422000
000BFFD8421011364100
00039800000000000420
00028000243334300040
004E5004200000150021
04FF3013000000013003
0CFF203003DFE5004004
1FFF204006FFF9004004
3FFF204006FFF9004004
3FFF204004CFF9004004
3FFF204004BFF9004004
3FFF204004BFF9004004
3FFF204004BFF9004004
3FFF203004BFF9004004
3FFF3013018BA3013004
3FFF4004200000150012
2FFF9000244444300040
1FFFF600000000000330
0CFFFFB6200000258300
04FFFFFFFFEDEEFC2000
005EFFFFFFFFFFA10000
00016ADEFEEB83000000
ENDCHAR
STARTCHAR oacute
ENCODING 243
SWIDTH 837 0
DWIDTH 20 0
BBX 20 27 0 -3
BITMAP
00000000000246796000
00000049999753105000
000006A0000134204000
00009F80144310003000
0009FF80000000011000
000CFFB23579BCE60000
000CFFD8421011344100
000BF800000000000420
0006B000243334300040
003E5004200000150022
03FF3013000000013003
0CFF203003DFE5004004
1FFF204006FFF9004004
3FFF204006FFF9004004
3FFF204004CFF9004004
3FFF204004BFF9004004
3FFF204004BFF9004004
3FFF204004BFF9004004
3FFF203004BFF9004004
3FFF3013018BA3013004
3FFF4004200000150012
2FFF9000244444300040
1FFFF600000000000330
0CFFFFB6200000258300
04FFFFFFFFEDEEFC2000
005EFFFFFFFFFFA10000
00016ADEFEEB83000000
ENDCHAR
STARTCHAR ocircumflex
ENCODING 244
SWIDTH 837 0
DWIDTH 20 0
BBX 20 27 0 -3
BITMAP
00000000013332000000
00000002320002331000
00000160024442004000
00003D80120001103000
0005FF80026872004000
000BFFC8CFFFFFD96000
000CFFD8421011364100
000CF800000000000420
0008B000243334300040
003E5004200000150022
03FF3013000000013003
0CFF203003DFE5004004
1FFF204006FFF9004004
3FFF204006FFF9004004
3FFF204004CFF9004004
3FFF204004BFF9004004
3FFF204004BFF9004004
3FFF204004BFF9004004
3FFF203004BFF9004004
3FFF3013018BA3013004
3FFF4004200000150012
2FFF9000244444300040
1FFFF600000000000330
0CFFFFB6200000258300
04FFFFFFFFEDEEFC2000
005EFFFFFFFFFFA10000
00016ADEFEEB83000000
ENDCHAR
STARTCHAR otilde
ENCODING 245
SWIDTH 837 0
DWIDTH 20 0
BBX 20 27 0 -3
BITMAP
00000004444430154000
00000171000014304000
00001C80010000004000
0002DF80134455204000
000AFF80000000003000
000CFFA3797521153000
000CFFFDA87667982000
000CFC40000000002500
0006D100243334300040
003E6004200000150021
03EF3013000000013003
0CFF203003DFE5004003
1FFF204006FFF9004004
3FFF204006FFF9004004
3FFF204004CFF9004004
3FFF204004BFF9004004
3FFF204004BFF9004004
3FFF204004BFF9004004
3FFF203004BFF9004004
3FFF3013018BA3013004
3FFF4004200000150013
2FFF9000244444300040
1FFFF500000000000330
0CFFFFB5200000148400
04FFFFFFFFEDEEFD2000
005EFFFFFFFFFFA10000
00016ADEFEEB83000000
ENDCHAR
STARTCHAR odieresis
ENCODING 246
SWIDTH 837 0
DWIDTH 20 0
BBX 20 27 0 -3
BITMAP
00000144444044444100
00002C00002830000400
0003DF00002F30000400
002EFF00302F30400400
005FFF00102F30100300
005FFF20004F60002200
005FFFFFDBA9ABDF6000
005FFE72000000015500
0007E200243334300150
003E7004200000150030
03FF4013000000013003
0CFF203003DFE5004003
1FFF204006FFF9004004
3FFF204006FFF9004004
3FFF204004CFF9004004
3FFF204004BFF9004004
3FFF204004BFF9004004
3FFF204004BFF9004004
3FFF203004BFF9004004
3FFF3013018BA3013004
3FFF4004200000150013
2FFF9000244444300040
1FFFF500000000000340
0CFFFFB5200000149400
04FFFFFFFFEDEEFD2000
005EFFFFFFFFFFA10000
00016ADEFEEB83000000
ENDCHAR
STARTCHAR divide
ENCODING 247
SWIDTH 834 0
DWIDTH 20 0
BBX 18 19 1 -2
BITMAP
000000024444420000
0000003B0000040000
000005EC0000040000
00004FFC0030040000
00009FFC0000030000
00009FFE6555630000
000479999999744444
009700000000000004
1BF702444444444204
CFF800000000000005
DFFFFFFFFEEEFFFFF7
DFFFFFFD10000BFE50
CFFFFFFC000009D300
12223DFC0030040000
00008FFC0000040000
00009FFC0000030000
00009FFFEDDD910000
00009FFFFFF9000000
00006FFFFF70000000
ENDCHAR
STARTCHAR oslash
ENCODING 248
SWIDTH 837 0
DWIDTH 20 0
BBX 20 25 0 -5
BITMAP
00000000000002444410
00000000000036000220
00000024444441000400
00000420000000310410
00018000344444300040
003D6005100001101021
03EF3040002302003003
0BFF20400AF911004003
1FFF20400DF320004004
2FFF20400DB021104004
3FFF20400D5206204004
3FFF20400C020C204004
3FFF204006114F204004
3FFF20400020AF204004
3FFF20400022FF104004
3FFF30300208EA004004
3FFF5001020000151023
2FFFB000344444300050
1FFFF900400000000530
0CFFFB0000001136A300
06FFF60003FFFFFC2000
00AFFB888DFFFFA10000
00AFFFFFFEEB83000000
01FFFFE3000000000000
00677720000000000000
ENDCHAR
STARTCHAR ugrave
ENCODING 249
SWIDTH 846 0
DWIDTH 20 0
BBX 20 27 0 -3
BITMAP
0000008B986420000000
00001B8013579ABB5000
0002DF70144310005000
000CFF70000134104000
000EFFA1000000004000
000EFFFFEDB975321000
000C944448FFFE444443
003E400003FFFB000004
05FF4012032DFB002004
0FFF4013038FFB004004
1FFF4013039FFB004004
1FFF4013039FFB004004
1FFF4013039FFB004004
1FFF4013039FFB004004
1FFF4013039FFB004004
1FFF4013039FFB004004
1FFF4013039FFB004004
1FFF4013039FFB004004
1FFF400301BFF8004004
1FFF5004000210014004
1FFF7003300000150013
0FFFC000144444300040
0DFFF800000000000330
09FFFFC6200000148300
02EFFFFFFFEDEEFC2000
003DFFFFFFFFFFA10000
00006ADEFEEC93000000
ENDCHAR
STARTCHAR uacute
ENCODING 250
SWIDTH 846 0
DWIDTH 20 0
BBX 20 27 0 -3
BITMAP
000000000013579AA100
0000002ABBA864202300
000004D1000244300300
00006FE0033100000300
0004FFE0000000010000
0006FFF23468ACE80000
0006944448FFFE444443
003E40000397EB000004
05FF4012031BFB002004
0FFF4013038FFB004004
1FFF4013039FFB004004
1FFF4013039FFB004004
1FFF4013039FFB004004
1FFF4013039FFB004004
1FFF4013039FFB004004
1FFF4013039FFB004004
1FFF4013039FFB004004
1FFF4013039FFB004004
1FFF400301BFF8004004
1FFF5004000210014004
1FFF7003300000150013
0FFFC000144444300040
0DFFF800000000000330
09FFFFC6200000148300
02EFFFFFFFEDEEFC2000
003DFFFFFFFFFFA10000
00006ADEFEEC93000000
ENDCHAR
STARTCHAR ucircumflex
ENCODING 251
SWIDTH 846 0
DWIDTH 20 0
BBX 20 27 0 -3
BITMAP
00000000013332000000
00000001220001221000
00000270024343003000
00004EA0010000104000
0005FFA037BED9414000
000AFFFEFFFFFFFF9000
000A944448FFFE444443
003E4000039DFB000004
05FF4012031BFB002004
0FFF4013038FFB004004
1FFF4013039FFB004004
1FFF4013039FFB004004
1FFF4013039FFB004004
1FFF4013039FFB004004
1FFF4013039FFB004004
1FFF4013039FFB004004
1FFF4013039FFB004004
1FFF4013039FFB004004
1FFF400301AFE7004004
1FFF5004000000014004
1FFF7003300000150013
0FFFC000144444300040
0DFFF800000000000330
09FFFFC6200000148300
02EFFFFFFFEDEEFC2000
003DFFFFFFFFFFA10000
00006ADEFEEC93000000
ENDCHAR
STARTCHAR udieresis
ENCODING 252
SWIDTH 846 0
DWIDTH 20 0
BBX 20 27 0 -3
BITMAP
00000154444034444200
00001C20001850000400
0003DF10000F50000400
001EFF10300F50300400
003FFF10100F50100300
004FFF40003F70002000
004FFFFFFFFFFFFFFFE3
005F600005FFFD100015
06FF400003BDFB000004
0FFF4013034FFB004004
1FFF4013039FFB004004
1FFF4013039FFB004004
1FFF4013039FFB004004
1FFF4013039FFB004004
1FFF4013039FFB004004
1FFF4013039FFB004004
1FFF4013039FFB004004
1FFF4013039FFB004004
1FFF401302BFF9004004
1FFF5004001330004004
1FFF6003300000150003
0FFFB000244444300030
0DFFF700000000000220
09FFFFC6200000148300
02EFFFFFFFEDEEFC2000
003DFFFFFFFFFFA10000
00006ADEFEEC93000000
ENDCHAR
STARTCHAR yacute
ENCODING 253
SWIDTH 805 0
DWIDTH 19 0
BBX 19 27 0 -3
BITMAP
00000000002468AB6000
0000007BBA9753105000
00000A80001344104000
0001CF60242100003000
000CFF60000000010000
000EFF924579BDD30000
000D54444DFFF9444450
008D00000889F4000040
0AFD0020044EF4010040
6FFD004004EFF4031040
8FFD004004FFF4031040
8FFD004004FFF4031040
8FFD004004FFD0040040
8FFF101300BF40040040
7FFF7003102500400130
7FFFF300400003200400
4FFFFC00130013004100
0BFFFF90013530022000
02EFFFF5000400040000
005FFFFE200400400000
0009FFFF600400400000
0001DFFF600300400000
00003FFF600000400000
00000EFF700001300000
00000EFFFDDDD6000000
00000EFFFFFF50000000
00000BFFFFD300000000
ENDCHAR
STARTCHAR thorn
ENCODING 254
SWIDTH 792 0
DWIDTH 19 0
BBX 18 21 1 -3
BITMAP
001644445000000000
02C600002200000000
3EF600002211000000
DFF600400333444300
EFF600400000000240
EFF600644444420041
EFF600400000023004
EFF600400000004004
EFF600403FFD004004
EFF600403FFF204004
EFF600403FFF104004
EFF600402AA7004004
EFF600400000023004
EFF600644444420032
EFF600400000000140
EFF600400000126500
EFF600002FFFFE5000
EFF800003FFFD30000
EFFFDDDDDCA6100000
EFFFFFF70000000000
BFFFFC300000000000
ENDCHAR
STARTCHAR ydieresis
ENCODING 255
SWIDTH 805 0
DWIDTH 19 0
BBX 19 26 0 -3
BITMAP
00000344443344444000
00007900006C00004000
0009F901307C00304000
009FF900007C00103000
00BFFB00009E10001000
00BFFFFFFFFFFFFFFF90
00BE10001DFFF7000060
01DD000009CFF4000040
2DFD003004AFF4031040
7FFD004004FFF4031040
8FFD004004FFF4031040
8FFD004004FFF2030030
8FFE002201DF70040030
8FFF4004003800310010
7FFFD100400002200200
5FFFFB00130014002000
0DFFFF70023530012000
03FFFFF4000400030000
007FFFFE100400400000
000AFFFF600400400000
0001DFFF600300400000
00003FFF600000400000
00000EFF700001300000
00000EFFFDDDD6000000
00000EFFFFFF50000000
00000BFFFFD300000000
ENDCHAR
STARTCHAR Amacron
ENCODING 256
SWIDTH 830 0
DWIDTH 20 0
BBX 20 26 0 -3
BITMAP
00000034444444443000
00000670000000004000
00007F70144444104000
0007FF70000000004000
000DFF90000000004000
000DFFFFFFFFFFFC1000
000DFFF5000000042000
000BFFC0000000004000
00008F60034443004000
0004FE10210002201300
000AF900305F30300400
001FF40120AF80210310
007FD00300EFC0030040
00CF800204FFF2020040
03FF4020001110002030
09FF2030000000003012
0EFF1044444444444003
2FFF1040000000004003
4FFF1040000000004003
4FFF10400AFFF8004003
4FFF10400AFFF8004003
4FFF100009FFF8000003
4FFF200004CFFA000013
4FFFEDDDA1CFFFDDDD70
4FFFFFF900CFFFFFE500
2EFFFE70008FFFFD3000
ENDCHAR
STARTCHAR amacron
ENCODING 257
SWIDTH 830 0
DWIDTH 20 0
BBX 20 26 0 -3
BITMAP
00000034444444443000
00000670000000004000
00007F70144444104000
0007FF70000000004000
000DFF90000000004000
000DFFFFFFFFFFFC1000
000DFFF5000000042000
000BFFC0000000004000
00008F60034443004000
0004FE10210002201300
000AF900305F30300400
001FF40120AF80210310
007FD00300EFC0030040
00CF800204FFF2020040
03FF4020001110002030
09FF2030000000003012
0EFF1044444444444003
2FFF1040000000004003
4FFF1040000000004003
4FFF10400AFFF8004003
4FFF10400AFFF8004003
4FFF100009FFF8000003
4FFF200004CFFA000013
4FFFEDDDA1CFFFDDDD70
4FFFFFF900CFFFFFE500
2EFFFE70008FFFFD3000
ENDCHAR
STARTCHAR Abreve
ENCODING 258
SWIDTH 830 0
DWIDTH 20 0
BBX 20 27 0 -3
BITMAP
00000044442024444000
000009500043D0004000
0001BF50205B80203000
000BFF70500000503000
000FFFC1044444010000
000FFFFD621012310000
000DFFFFDCCCCCCB1000
0007FFF3000000035000
00006EB0000000007000
00007F50034443005200
0004FE10210002200600
000AF900305F30300600
001FF30120AF80210330
007FD00300EFC0030060
00CF800204FFF2020050
03FF4020001110002031
09FF2030000000003013
0EFF1044444444444003
2FFF1040000000004003
4FFF1040000000004003
4FFF10400AFFF8004003
4FFF10400AFFF8004003
4FFF100009FFF8000003
4FFF200004CFFA000012
4FFFEDDDA1CFFFDDDD50
4FFFFFF900CFFFFFE400
2EFFFE70008FFFFD3000
ENDCHAR
STARTCHAR abreve
ENCODING 259
SWIDTH 830 0
DWIDTH 20 0
BBX 20 27 0 -3
BITMAP
00000044442024444000
000009500043D0004000
0001BF50205B80203000
000BFF70500000503000
000FFFC1044444010000
000FFFFD621012310000
000DFFFFDCCCCCCB1000
0007FFF3000000035000
00006EB0000000007000
00007F50034443005200
0004FE10210002200600
000AF900305F30300600
001FF30120AF80210330
007FD00300EFC0030060
00CF800204FFF2020050
03FF4020001110002031
09FF2030000000003013
0EFF1044444444444003
2FFF1040000000004003
4FFF1040000000004003
4FFF10400AFFF8004003
4FFF10400AFFF8004003
4FFF100009FFF8000003
4FFF200004CFFA000012
4FFFEDDDA1CFFFDDDD50
4FFFFFF900CFFFFFE400
2EFFFE70008FFFFD3000
ENDCHAR
STARTCHAR Aogonek
ENCODING 260
SWIDTH 830 0
DWIDTH 20 0
BBX 20 26 0 -8
BITMAP
00000014444444451000
00000090000000004000
00000A80000000004000
00009F30034443002200
0004FC00210002200400
000AF600305F30300400
001FF10120AF80210130
007FB00300EFC0030040
00CF600204FFF2020040
03FF3020001110002031
09FF1030000000003013
0EFF1044444444444003
2FFF1040000000004003
4FFF1040000000004003
4FFF10400AFFF8004003
4FFF10400AFFF8004003
4FFF100009FFF8041003
4FFF200004CFF7040022
4FFFEDDDA1CFF4040530
4FFFFFF900CFF2040540
2EFFFE7000EFF1053003
0000000001FFF3000003
0000000003FFFC300022
0000000004FFFFFFFF70
0000000001EFFFFFE400
00000000003ADDDC3000
ENDCHAR
STARTCHAR aogonek
ENCODING 261
SWIDTH 830 0
DWIDTH 20 0
BBX 20 26 0 -8
BITMAP
00000014444444451000
00000090000000004000
00000A80000000004000
00009F30034443002200
0004FC00210002200400
000AF600305F30300400
001FF10120AF80210130
007FB00300EFC0030040
00CF600204FFF2020040
03FF3020001110002031
09FF1030000000003013
0EFF1044444444444003
2FFF1040000000004003
4FFF1040000000004003
4FFF10400AFFF8004003
4FFF10400AFFF8004003
4FFF100009FFF8041003
4FFF200004CFF7040022
4FFFEDDDA1CFF4040530
4FFFFFF900CFF2040540
2EFFFE7000EFF1053003
0000000001FFF3000003
0000000003FFFC300022
0000000004FFFFFFFF70
0000000001EFFFFFE400
00000000003ADDDC3000
ENDCHAR
STARTCHAR Cacute
ENCODING 262
SWIDTH 728 0
DWIDTH 17 0
BBX 17 27 0 -3
BITMAP
000000000023579B90
0000004BBB97542050
000006C10013442030
00008FB00431000030
0007FFB00000000100
0009FFD23578ACE600
0009FFE85444444450
0009FA100000000030
0008C0000000000030
000460014444442030
005F30050000000030
04FF202202BDDDDC30
0CFF203005FFFFD200
1FFF204006FFFB1000
3FFF20400400000000
3FFF20400400000000
3FFF20400400000000
3FFF20400400000000
3FFF20300400000000
3FFF30220144444440
3FFF50050000000040
2FFF90014444442030
1FFFF4000000000030
0CFFFF830000000040
05FFFFFFEDDDDDDC40
008FFFFFFFFFFFD300
0004ADFFFFFFFB1000
ENDCHAR
STARTCHAR cacute
ENCODING 263
SWIDTH 728 0
DWIDTH 17 0
BBX 17 27 0 -3
BITMAP
000000000023579B90
0000004BBB97542050
000006C10013442030
00008FB00431000030
0007FFB00000000100
0009FFD23578ACE600
0009FFE85444444450
0009FA100000000030
0008C0000000000030
000460014444442030
005F30050000000030
04FF202202BDDDDC30
0CFF203005FFFFD200
1FFF204006FFFB1000
3FFF20400400000000
3FFF20400400000000
3FFF20400400000000
3FFF20400400000000
3FFF20300400000000
3FFF30220144444440
3FFF50050000000040
2FFF90014444442030
1FFFF4000000000030
0CFFFF830000000040
05FFFFFFEDDDDDDC40
008FFFFFFFFFFFD300
0004ADFFFFFFFB1000
ENDCHAR
STARTCHAR Ccircumflex
ENCODING 264
SWIDTH 728 0
DWIDTH 17 0
BBX 17 27 0 -3
BITMAP
000000000234300000
000000112100034300
000005100344300130
00006F002000020040
0009FF000477400030
004FFF7AEFFFFEA620
005FFFE85444444450
005FFA100000000030
004FC0000000000030
000760014444442030
007F30050000000030
05FF202202BDDDDC30
0DFF203005FFFFD200
1FFF204006FFFB1000
3FFF20400400000000
3FFF20400400000000
3FFF20400400000000
3FFF20400400000000
3FFF20300400000000
3FFF30220144444440
3FFF50050000000040
2FFF90014444442030
1FFFF4000000000030
0CFFFF830000000040
05FFFFFFEDDDDDDC40
008FFFFFFFFFFFD300
0004ADFFFFFFFB1000
ENDCHAR
STARTCHAR ccircumflex
ENCODING 265
SWIDTH 728 0
DWIDTH 17 0
BBX 17 27 0 -3
BITMAP
000000000234300000
000000112100034300
000005100344300130
00006F002000020040
0009FF000477400030
004FFF7AEFFFFEA620
005FFFE85444444450
005FFA100000000030
004FC0000000000030
000760014444442030
007F30050000000030
05FF202202BDDDDC30
0DFF203005FFFFD200
1FFF204006FFFB1000
3FFF20400400000000
3FFF20400400000000
3FFF20400400000000
3FFF20400400000000
3FFF20300400000000
3FFF30220144444440
3FFF50050000000040
2FFF90014444442030
1FFFF4000000000030
0CFFFF830000000040
05FFFFFFEDDDDDDC40
008FFFFFFFFFFFD300
0004ADFFFFFFFB1000
ENDCHAR
STARTCHAR Cdotaccent
ENCODING 266
SWIDTH 728 0
DWIDTH 17 0
BBX 17 27 0 -3
BITMAP
000000003444441000
000000068000004000
0000008F8000004000
000009FF8004004000
00000CFF8001003000
00000CFFA000030000
00000CE85444444450
000007100000000030
000180000000000030
002C60014444442030
01DF30050000000030
0AFF202202BDDDDC30
0EFF203005FFFFD200
2FFF204006FFFB1000
3FFF20400400000000
3FFF20400400000000
3FFF20400400000000
3FFF20400400000000
3FFF20300400000000
3FFF30220144444440
3FFF50050000000040
2FFF90014444442030
1FFFF4000000000030
0BFFFF830000000040
04FFFFFFEDDDDDDC40
007FFFFFFFFFFFD300
0003ADFFFFFFFB1000
ENDCHAR
STARTCHAR cdotaccent
ENCODING 267
SWIDTH 728 0
DWIDTH 17 0
BBX 17 27 0 -3
BITMAP
000000003444441000
000000068000004000
0000008F8000004000
000009FF8004004000
00000CFF8001003000
00000CFFA000030000
00000CE85444444450
000007100000000030
000180000000000030
002C60014444442030
01DF30050000000030
0AFF202202BDDDDC30
0EFF203005FFFFD200
2FFF204006FFFB1000
3FFF20400400000000
3FFF20400400000000
3FFF20400400000000
3FFF20400400000000
3FFF20300400000000
3FFF30220144444440
3FFF50050000000040
2FFF90014444442030
1FFFF4000000000030
0BFFFF830000000040
04FFFFFFEDDDDDDC40
007FFFFFFFFFFFD300
0003ADFFFFFFFB1000
ENDCHAR
STARTCHAR Ccaron
ENCODING 268
SWIDTH 728 0
DWIDTH 17 0
BBX 17 27 0 -3
BITMAP
000001001000034420
00003D000344410040
0005EF002000030040
003FFF000444410030
005FFFA30000002100
005FFFFFC6116A4000
004FFFE85444444450
0006CA100000000030
000030000000000030
000860014444442030
00AF30050000000030
08FF202202BDDDDC30
0EFF203005FFFFD200
2FFF204006FFFB1000
3FFF20400400000000
3FFF20400400000000
3FFF20400400000000
3FFF20400400000000
3FFF20300400000000
3FFF30220144444440
3FFF50050000000040
2FFF90014444442030
1FFFF4000000000030
0CFFFF830000000040
04FFFFFFEDDDDDDC40
007FFFFFFFFFFFD300
0004ADFFFFFFFB1000
ENDCHAR
STARTCHAR ccaron
ENCODING 269
SWIDTH 728 0
DWIDTH 17 0
BBX 17 27 0 -3
BITMAP
000001001000034420
00003D000344410040
0005EF002000030040
003FFF000444410030
005FFFA30000002100
005FFFFFC6116A4000
004FFFE85444444450
0006CA100000000030
000030000000000030
000860014444442030
00AF30050000000030
08FF202202BDDDDC30
0EFF203005FFFFD200
2FFF204006FFFB1000
3FFF20400400000000
3FFF20400400000000
3FFF20400400000000
3FFF20400400000000
3FFF20300400000000
3FFF30220144444440
3FFF50050000000040
2FFF90014444442030
1FFFF4000000000030
0CFFFF830000000040
04FFFFFFEDDDDDDC40
007FFFFFFFFFFFD300
0004ADFFFFFFFB1000
ENDCHAR
STARTCHAR Dcaron
ENCODING 270
SWIDTH 846 0
DWIDTH 20 0
BBX 19 27 1 -3
BITMAP
00000201100014450000
00007A00134430040000
001AFA01200012040000
009FFA00144430030000
00AFFE71000000200000
00AFFFFFA50389100000
007A2222222223453000
01B60000000000003400
2DF60000000000000410
CFF60054444444100040
EFF60040000000420040
EFF60040144410040040
EFF600402FFFC0040040
EFF600402FFFD0040040
EFF600402EFFD0040040
EFF6004029FFD0040040
EFF6004029FFD0040040
EFF6004029FFD0040040
EFF6004029FFC0040040
EFF60040179950040040
EFF60040000000330030
EFF60054444444200210
EFF60000000000001300
EFF70000000000154000
EFFFDDDDDDDDDEE40000
EFFFFFFFFFFFFD300000
BFFFFFFFFFEC71000000
ENDCHAR
STARTCHAR dcaron
ENCODING 271
SWIDTH 846 0
DWIDTH 20 0
BBX 19 27 1 -3
BITMAP
00000201100014450000
00007A00134430040000
001AFA01200012040000
009FFA00144430030000
00AFFE71000000200000
00AFFFFFA50389100000
007A2222222223453000
01B60000000000003400
2DF60000000000000410
CFF60054444444100040
EFF60040000000420040
EFF60040144410040040
EFF600402FFFC0040040
EFF600402FFFD0040040
EFF600402EFFD0040040
EFF6004029FFD0040040
EFF6004029FFD0040040
EFF6004029FFD0040040
EFF6004029FFC0040040
EFF60040179950040040
EFF60040000000330030
EFF60054444444200210
EFF60000000000001300
EFF70000000000154000
EFFFDDDDDDDDDEE40000
EFFFFFFFFFFFFD300000
BFFFFFFFFFEC71000000
ENDCHAR
STARTCHAR Dcroat
ENCODING 272
SWIDTH 856 0
DWIDTH 21 0
BBX 21 21 -1 -3
BITMAP
0000064444444433332000
0000AA0000000000002400
001BFA0000000000000330
009FFA0044444444200040
00AFFA0040000000240040
00AFFA00400FFFC0040040
00AFFA00400FFFF1040040
00AF610040015FF1040040
00AF400040002FF1040040
05FF402464302FF1040040
1FFF400040002FF1040040
1FFF600040004FF1040040
1FFFFA00400EFFF1040040
1FFFFA004009CCA0040030
06DFFA0040000000240040
00AFFA0044444444300130
00AFFA0000000000000400
00AFFB0000000000045000
00AFFFDDDDDDDDDEF80000
00AFFFFFFFFFFFFF600000
007FFFFFFFFFEC92000000
ENDCHAR
STARTCHAR dcroat
ENCODING 273
SWIDTH 856 0
DWIDTH 21 0
BBX 21 21 -1 -3
BITMAP
0000064444444433332000
0000AA0000000000002400
001BFA0000000000000330
009FFA0044444444200040
00AFFA0040000000240040
00AFFA00400FFFC0040040
00AFFA00400FFFF1040040
00AF610040015FF1040040
00AF400040002FF1040040
05FF402464302FF1040040
1FFF400040002FF1040040
1FFF600040004FF1040040
1FFFFA00400EFFF1040040
1FFFFA004009CCA0040030
06DFFA0040000000240040
00AFFA0044444444300130
00AFFA0000000000000400
00AFFB0000000000045000
00AFFFDDDDDDDDDEF80000
00AFFFFFFFFFFFFF600000
007FFFFFFFFFEC92000000
ENDCHAR
STARTCHAR Emacron
ENCODING 274
SWIDTH 754 0
DWIDTH 18 0
BBX 17 26 1 -3
BITMAP
000024444444445000
0003B0000000002100
004EC0044444302200
04FFC0000000002100
08FFE1000000002000
08FB44444444444430
08F600000000000040
08F600000000000040
8FF600544444440040
EFF600400000000030
EFF600403DDDDDD900
EFF600403FFFFF8000
EFF600400000014000
EFF600400000004000
EFF600644444104000
EFF600400000003000
EFF600401666662000
EFF600403FFFE30000
EFF600402999644420
EFF600400000000040
EFF600544444440040
EFF600000000000040
EFF800000000000040
EFFFDDDDDDDDDDDA10
EFFFFFFFFFFFFF9000
BFFFFFFFFFFFE60000
ENDCHAR
STARTCHAR emacron
ENCODING 275
SWIDTH 754 0
DWIDTH 18 0
BBX 17 26 1 -3
BITMAP
000024444444445000
0003B0000000002100
004EC0044444302200
04FFC0000000002100
08FFE1000000002000
08FB44444444444430
08F600000000000040
08F600000000000040
8FF600544444440040
EFF600400000000030
EFF600403DDDDDD900
EFF600403FFFFF8000
EFF600400000014000
EFF600400000004000
EFF600644444104000
EFF600400000003000
EFF600401666662000
EFF600403FFFE30000
EFF600402999644420
EFF600400000000040
EFF600544444440040
EFF600000000000040
EFF800000000000040
EFFFDDDDDDDDDDDA10
EFFFFFFFFFFFFF9000
BFFFFFFFFFFFE60000
ENDCHAR
STARTCHAR Ebreve
ENCODING 276
SWIDTH 754 0
DWIDTH 18 0
BBX 17 27 1 -3
BITMAP
000024444004444200
0003C0004088000400
005FD02018B4020300
04FFF1140000230300
07FFF7024444301000
06FFFFA41001300000
03FB44444444444430
00C600000000000040
0AF600000000000040
BFF600544444440040
EFF600400000000030
EFF600403DDDDDD900
EFF600403FFFFF8000
EFF600400000014000
EFF600400000004000
EFF600644444104000
EFF600400000003000
EFF600401666662000
EFF600403FFFE30000
EFF600402999644420
EFF600400000000040
EFF600544444440040
EFF600000000000040
EFF800000000000040
EFFFDDDDDDDDDDDA10
EFFFFFFFFFFFFF9000
BFFFFFFFFFFFE60000
ENDCHAR
STARTCHAR ebreve
ENCODING 277
SWIDTH 754 0
DWIDTH 18 0
BBX 17 27 1 -3
BITMAP
000024444004444200
0003C0004088000400
005FD02018B4020300
04FFF1140000230300
07FFF7024444301000
06FFFFA41001300000
03FB44444444444430
00C600000000000040
0AF600000000000040
BFF600544444440040
EFF600400000000030
EFF600403DDDDDD900
EFF600403FFFFF8000
EFF600400000014000
EFF600400000004000
EFF600644444104000
EFF600400000003000
EFF600401666662000
EFF600403FFFE30000
EFF600402999644420
EFF600400000000040
EFF600544444440040
EFF600000000000040
EFF800000000000040
EFFFDDDDDDDDDDDA10
EFFFFFFFFFFFFF9000
BFFFFFFFFFFFE60000
ENDCHAR
STARTCHAR Edotaccent
ENCODING 278
SWIDTH 754 0
DWIDTH 18 0
BBX 17 27 1 -3
BITMAP
000000244444200000
000004C00000400000
00006FC00000400000
0005FFC00400400000
0008FFC00100300000
0008FFE10001100000
001744444444444430
02D600000000000040
3EF600000000000040
DFF600544444440040
EFF600400000000030
EFF600403DDDDDD900
EFF600403FFFFF8000
EFF600400000014000
EFF600400000004000
EFF600644444104000
EFF600400000003000
EFF600401666662000
EFF600403FFFE30000
EFF600402999644420
EFF600400000000040
EFF600544444440040
EFF600000000000040
EFF800000000000040
EFFFDDDDDDDDDDDA10
EFFFFFFFFFFFFF9000
BFFFFFFFFFFFE60000
ENDCHAR
STARTCHAR edotaccent
ENCODING 279
SWIDTH 754 0
DWIDTH 18 0
BBX 17 27 1 -3
BITMAP
000000244444200000
000004C00000400000
00006FC00000400000
0005FFC00400400000
0008FFC00100300000
0008FFE10001100000
001744444444444430
02D600000000000040
3EF600000000000040
DFF600544444440040
EFF600400000000030
EFF600403DDDDDD900
EFF600403FFFFF8000
EFF600400000014000
EFF600400000004000
EFF600644444104000
EFF600400000003000
EFF600401666662000
EFF600403FFFE30000
EFF600402999644420
EFF600400000000040
EFF600544444440040
EFF600000000000040
EFF800000000000040
EFFFDDDDDDDDDDDA10
EFFFFFFFFFFFFF9000
BFFFFFFFFFFFE60000
ENDCHAR
STARTCHAR Eogonek
ENCODING 280
SWIDTH 754 0
DWIDTH 18 0
BBX 17 26 1 -8
BITMAP
001644444444444430
02C600000000000040
3EF600000000000040
DFF600544444440040
EFF600400000000030
EFF600403DDDDDD900
EFF600403FFFFF8000
EFF600400000014000
EFF600400000004000
EFF600644444104000
EFF600400000003000
EFF600401666662000
EFF600403FFFE30000
EFF600402999644420
EFF600400000000040
EFF600544444460040
EFF600000000300040
EFF800000000400040
EFFFDDDDDD70406C30
EFFFFFFFFF60405620
BFFFFFFFFF60440040
0000000DFF80000040
0000000FFFE5100040
0000000FFFFFFFFA00
0000000CFFFFFF8000
00000002ADDDD50000
ENDCHAR
STARTCHAR eogonek
ENCODING 281
SWIDTH 754 0
DWIDTH 18 0
BBX 17 26 1 -8
BITMAP
001644444444444430
02C600000000000040
3EF600000000000040
DFF600544444440040
EFF600400000000030
EFF600403DDDDDD900
EFF600403FFFFF8000
EFF600400000014000
EFF600400000004000
EFF600644444104000
EFF600400000003000
EFF600401666662000
EFF600403FFFE30000
EFF600402999644420
EFF600400000000040
EFF600544444460040
EFF600000000300040
EFF800000000400040
EFFFDDDDDD70406C30
EFFFFFFFFF60405620
BFFFFFFFFF60440040
0000000DFF80000040
0000000FFFE5100040
0000000FFFFFFFFA00
0000000CFFFFFF8000
00000002ADDDD50000
ENDCHAR
STARTCHAR Ecaron
ENCODING 282
SWIDTH 754 0
DWIDTH 18 0
BBX 17 27 1 -3
BITMAP
000020010000345200
0003D0013444100400
006FF0030000200400
04FFF0014444000300
05FFFA300000021000
05FFFFFC6116A30000
04FB44444444444430
00B600000000000040
1BF600000000000040
BFF600544444440040
EFF600400000000030
EFF600403DDDDDD900
EFF600403FFFFF8000
EFF600400000014000
EFF600400000004000
EFF600644444104000
EFF600400000003000
EFF600401666662000
EFF600403FFFE30000
EFF600402999644420
EFF600400000000040
EFF600544444440040
EFF600000000000040
EFF800000000000040
EFFFDDDDDDDDDDDA10
EFFFFFFFFFFFFF9000
BFFFFFFFFFFFE60000
ENDCHAR
STARTCHAR ecaron
ENCODING 283
SWIDTH 754 0
DWIDTH 18 0
BBX 17 27 1 -3
BITMAP
000020010000345200
0003D0013444100400
006FF0030000200400
04FFF0014444000300
05FFFA300000021000
05FFFFFC6116A30000
04FB44444444444430
00B600000000000040
1BF600000000000040
BFF600544444440040
EFF600400000000030
EFF600403DDDDDD900
EFF600403FFFFF8000
EFF600400000014000
EFF600400000004000
EFF600644444104000
EFF600400000003000
EFF600401666662000
EFF600403FFFE30000
EFF600402999644420
EFF600400000000040
EFF600544444440040
EFF600000000000040
EFF800000000000040
EFFFDDDDDDDDDDDA10
EFFFFFFFFFFFFF9000
BFFFFFFFFFFFE60000
ENDCHAR
STARTCHAR Gcircumflex
ENCODING 284
SWIDTH 808 0
DWIDTH 19 0
BBX 19 27 0 -3
BITMAP
00000000003342000000
00000001331001441000
00000052003442004100
000007D0041002301200
00009FD0000000001200
0006FFD026BEEA512200
0007FFFEFFEEEEEE9000
0007FF94100000003100
0007F500000000001200
00049001444444301200
005E5005000000002200
04FF302202BDDDDD8000
0CFF203006FFFFE60000
1FFF204006FFFD300000
3FFF2040040015444430
3FFF20400402C1000040
3FFF2040043EF0010040
3FFF204005EFF0040040
3FFF203005FFF0040040
3FFF3022003330040040
3FFF4006000000040040
2FFF9000444444450040
1FFFF300000000000040
0CFFFF82000000000030
05FFFFFFEDDDDDDDDA10
008FFFFFFFFFFFFFA100
0004ADFFFFFFFFF80000
ENDCHAR
STARTCHAR gcircumflex
ENCODING 285
SWIDTH 808 0
DWIDTH 19 0
BBX 19 27 0 -3
BITMAP
00000000003342000000
00000001331001441000
00000052003442004100
000007D0041002301200
00009FD0000000001200
0006FFD026BEEA512200
0007FFFEFFEEEEEE9000
0007FF94100000003100
0007F500000000001200
00049001444444301200
005E5005000000002200
04FF302202BDDDDD8000
0CFF203006FFFFE60000
1FFF204006FFFD300000
3FFF2040040015444430
3FFF20400402C1000040
3FFF2040043EF0010040
3FFF204005EFF0040040
3FFF203005FFF0040040
3FFF3022003330040040
3FFF4006000000040040
2FFF9000444444450040
1FFFF300000000000040
0CFFFF82000000000030
05FFFFFFEDDDDDDDDA10
008FFFFFFFFFFFFFA100
0004ADFFFFFFFFF80000
ENDCHAR
STARTCHAR Gbreve
ENCODING 286
SWIDTH 808 0
DWIDTH 19 0
BBX 19 27 0 -3
BITMAP
00000034443015445000
000007800042C3001300
00009F80203AA1111200
0009FFA0410000503000
000CFFE2034444100000
000CFFFE731002310000
0009FFE8544444445100
0002E910000000001200
00004000000000001200
00076001444444301200
009F3005000000002100
07FF202202BDDDDC5000
0EFF203006FFFFE30000
2FFF204006FFFC200000
3FFF2040040015444430
3FFF20400402C1000040
3FFF2040043EF0010040
3FFF204005EFF0040040
3FFF203005FFF0040040
3FFF3022003330040040
3FFF5006000000040040
2FFF9000444444450040
1FFFF400000000000040
0CFFFF83000000000030
05FFFFFFEDDDDDDDDA10
008FFFFFFFFFFFFFA100
0004ADFFFFFFFFF80000
ENDCHAR
STARTCHAR gbreve
ENCODING 287
SWIDTH 808 0
DWIDTH 19 0
BBX 19 27 0 -3
BITMAP
00000034443015445000
000007800042C3001300
00009F80203AA1111200
0009FFA0410000503000
000CFFE2034444100000
000CFFFE731002310000
0009FFE8544444445100
0002E910000000001200
00004000000000001200
00076001444444301200
009F3005000000002100
07FF202202BDDDDC5000
0EFF203006FFFFE30000
2FFF204006FFFC200000
3FFF2040040015444430
3FFF20400402C1000040
3FFF2040043EF0010040
3FFF204005EFF0040040
3FFF203005FFF0040040
3FFF3022003330040040
3FFF5006000000040040
2FFF9000444444450040
1FFFF400000000000040
0CFFFF83000000000030
05FFFFFFEDDDDDDDDA10
008FFFFFFFFFFFFFA100
0004ADFFFFFFFFF80000
ENDCHAR
STARTCHAR Gdotaccent
ENCODING 288
SWIDTH 808 0
DWIDTH 19 0
BBX 19 27 0 -3
BITMAP
00000000144444300000
00000002C00000400000
0000003DF00000400000
000002EFF00400400000
000005FFF00100300000
000005FFF20001200000
000005E8544444445100
00000310000000001200
00006000000000001200
001B6001444444301200
01CF3005000000002100
09FF202202BDDDDC5000
0EFF203006FFFFE30000
2FFF204006FFFC200000
3FFF2040040015444430
3FFF20400402C1000040
3FFF2040043EF0010040
3FFF204005EFF0040040
3FFF203005FFF0040040
3FFF3022003330040040
3FFF5006000000040040
2FFF9000444444450040
1FFFF400000000000040
0CFFFF83000000000030
04FFFFFFEDDDDDDDDA10
007FFFFFFFFFFFFFA100
0003ADFFFFFFFFF80000
ENDCHAR
STARTCHAR gdotaccent
ENCODING 289
SWIDTH 808 0
DWIDTH 19 0
BBX 19 27 0 -3
BITMAP
00000000144444300000
00000002C00000400000
0000003DF00000400000
000002EFF00400400000
000005FFF00100300000
000005FFF20001200000
000005E8544444445100
00000310000000001200
00006000000000001200
001B6001444444301200
01CF3005000000002100
09FF202202BDDDDC5000
0EFF203006FFFFE30000
2FFF204006FFFC200000
3FFF2040040015444430
3FFF20400402C1000040
3FFF2040043EF0010040
3FFF204005EFF0040040
3FFF203005FFF0040040
3FFF3022003330040040
3FFF5006000000040040
2FFF9000444444450040
1FFFF400000000000040
0CFFFF83000000000030
04FFFFFFEDDDDDDDDA10
007FFFFFFFFFFFFFA100
0003ADFFFFFFFFF80000
ENDCHAR
STARTCHAR Gcommaaccent
ENCODING 290
SWIDTH 808 0
DWIDTH 19 0
BBX 19 30 0 -12
BITMAP
00000044444444445100
00001510000000001200
0002A000000000001200
003E6001444444301200
02EF3005000000002100
0BFF202202BDDDDC5000
1FFF203006FFFFE30000
2FFF204006FFFC200000
3FFF2040040015444430
3FFF20400402C1000040
3FFF2040043EF0010040
3FFF204005EFF0040040
3FFF203005FFF0040040
3FFF3022003330040040
3FFF5006000000040040
2FFFA000444444450040
1FFFF500000000000040
0BFFFF94100000000040
04FFFFFFFEEEEEEEEB20
007FFFFFF31112AFB100
0003ADFFE00000790000
000001BFE02441400000
000005FFE00012400000
000006FFF10022400000
000006FFFFDB41500000
000005FFF43431500000
000001AFF62258000000
000001EFFFFF90000000
000002FFFFF800000000
000001DFEC5000000000
ENDCHAR
STARTCHAR gcommaaccent
ENCODING 291
SWIDTH 808 0
DWIDTH 19 0
BBX 19 30 0 -12
BITMAP
00000044444444445100
00001510000000001200
0002A000000000001200
003E6001444444301200
02EF3005000000002100
0BFF202202BDDDDC5000
1FFF203006FFFFE30000
2FFF204006FFFC200000
3FFF2040040015444430
3FFF20400402C1000040
3FFF2040043EF0010040
3FFF204005EFF0040040
3FFF203005FFF0040040
3FFF3022003330040040
3FFF5006000000040040
2FFFA000444444450040
1FFFF500000000000040
0BFFFF94100000000040
04FFFFFFFEEEEEEEEB20
007FFFFFF31112AFB100
0003ADFFE00000790000
000001BFE02441400000
000005FFE00012400000
000006FFF10022400000
000006FFFFDB41500000
000005FFF43431500000
000001AFF62258000000
000001EFFFFF90000000
000002FFFFF800000000
000001DFEC5000000000
ENDCHAR
STARTCHAR Hcircumflex
ENCODING 292
SWIDTH 859 0
DWIDTH 21 0
BBX 19 27 1 -3
BITMAP
00000000033430000000
00000023300014420000
00000810144430031000
0002CC00300012022000
003EFC00148730022000
007FFE7BFFFFFE960000
008B44448FFFF5444430
01B600002EFFD0000040
2CF60000228FD0000040
CFF6004026FFD0040040
EFF6004029FFD0040040
EFF6004029FFD0040040
EFF60040179980040040
EFF60040000000040040
EFF60040000000040040
EFF60064444444450040
EFF60040000000040040
EFF60040000000040040
EFF600402FFFD0040040
EFF600402FFFD0040040
EFF600402EFFD0040040
EFF6004029FFD0040040
EFF6000029FFD0000040
EFF8000038FFE0000040
EFFFDDDD57FFFEDDD910
EFFFFFE407FFFFFF8000
BFFFFC2004FFFFE60000
ENDCHAR
STARTCHAR hcircumflex
ENCODING 293
SWIDTH 859 0
DWIDTH 21 0
BBX 19 27 1 -3
BITMAP
00000000033430000000
00000023300014420000
00000810144430031000
0002CC00300012022000
003EFC00148730022000
007FFE7BFFFFFE960000
008B44448FFFF5444430
01B600002EFFD0000040
2CF60000228FD0000040
CFF6004026FFD0040040
EFF6004029FFD0040040
EFF6004029FFD0040040
EFF60040179980040040
EFF60040000000040040
EFF60040000000040040
EFF60064444444450040
EFF60040000000040040
EFF60040000000040040
EFF600402FFFD0040040
EFF600402FFFD0040040
EFF600402EFFD0040040
EFF6004029FFD0040040
EFF6000029FFD0000040
EFF8000038FFE0000040
EFFFDDDD57FFFEDDD910
EFFFFFE407FFFFFF8000
BFFFFC2004FFFFE60000
ENDCHAR
STARTCHAR Hbar
ENCODING 294
SWIDTH 879 0
DWIDTH 21 0
BBX 21 21 0 -3
BITMAP
0000644445200264444400
000AA00000302D30000300
01CFA0000043EF30000400
09FE600400589920400340
0AF8000400000000400040
1DF7014744444444642040
AFF7000400000000400040
DFF9000400000000400040
DFFFA00400FFFF30400630
DFFFA00400DDDD20400400
9FFFA00400000000400400
0AFFA00400000000400400
0AFFA00644444444600400
0AFFA00400000000400400
0AFFA00400000000400400
0AFFA00400FFFF30400400
0AFFA00000FFFF30000400
0AFFB00001EFFF40000400
0AFFFEDDDB3FFFFDDDB300
0AFFFFFF802FFFFFFC1000
07FFFFD4001EFFFF900000
ENDCHAR
STARTCHAR hbar
ENCODING 295
SWIDTH 879 0
DWIDTH 21 0
BBX 21 21 0 -3
BITMAP
0000644445200264444400
000AA00000302D30000300
01CFA0000043EF30000400
09FE600400589920400340
0AF8000400000000400040
1DF7014744444444642040
AFF7000400000000400040
DFF9000400000000400040
DFFFA00400FFFF30400630
DFFFA00400DDDD20400400
9FFFA00400000000400400
0AFFA00400000000400400
0AFFA00644444444600400
0AFFA00400000000400400
0AFFA00400000000400400
0AFFA00400FFFF30400400
0AFFA00000FFFF30000400
0AFFB00001EFFF40000400
0AFFFEDDDB3FFFFDDDB300
0AFFFFFF802FFFFFFC1000
07FFFFD4001EFFFF900000
ENDCHAR
STARTCHAR Itilde
ENCODING 296
SWIDTH 705 0
DWIDTH 17 0
BBX 17 26 0 -3
BITMAP
000004200011122100
000091000000000300
001BF0033443200400
01CFF0000001100300
05FFF3577531020000
06FF64444444444510
06FF00000000000030
04FF00000000000030
0BFF00344454430030
4FFF10000120000030
4FFFA7720120177500
4FFFFFF401203F9000
4FFFFFF40120380000
0566FFF40120300000
0001FFF40120300000
0001FFF40120300000
0001FFF40120300000
0001FFF40120300000
0001C9920120244500
002C10000120000130
03EF00344454430030
2FFF00000000000030
4FFF20000000000130
4FFFEDDDDDDDDDD700
4FFFFFFFFFFFFE5000
2EFFFFFFFFFFD30000
ENDCHAR
STARTCHAR itilde
ENCODING 297
SWIDTH 705 0
DWIDTH 17 0
BBX 17 26 0 -3
BITMAP
000004200011122100
000091000000000300
001BF0033443200400
01CFF0000001100300
05FFF3577531020000
06FF64444444444510
06FF00000000000030
04FF00000000000030
0BFF00344454430030
4FFF10000120000030
4FFFA7720120177500
4FFFFFF401203F9000
4FFFFFF40120380000
0566FFF40120300000
0001FFF40120300000
0001FFF40120300000
0001FFF40120300000
0001FFF40120300000
0001C9920120244500
002C10000120000130
03EF00344454430030
2FFF00000000000030
4FFF20000000000130
4FFFEDDDDDDDDDD700
4FFFFFFFFFFFFE5000
2EFFFFFFFFFFD30000
ENDCHAR
STARTCHAR Imacron
ENCODING 298
SWIDTH 705 0
DWIDTH 17 0
BBX 17 26 0 -3
BITMAP
000015444444445100
0001C0000000000400
002DF0034444300400
02DFF0000000000300
05FFF2000000003000
06FFFFFFFFFFFFFE10
06FF30000000000230
03FF00000000000030
0AFF00344454430030
4FFF10000120000030
4FFFA7720120177500
4FFFFFF401203F9000
4FFFFFF40120380000
0566FFF40120300000
0001FFF40120300000
0001FFF40120300000
0001FFF40120300000
0001FFF40120300000
0001C9920120244500
002C10000120000130
03EF00344454430030
2FFF00000000000030
4FFF20000000000130
4FFFEDDDDDDDDDD700
4FFFFFFFFFFFFE5000
2EFFFFFFFFFFD30000
ENDCHAR
STARTCHAR imacron
ENCODING 299
SWIDTH 705 0
DWIDTH 17 0
BBX 17 26 0 -3
BITMAP
000015444444445100
0001C0000000000400
002DF0034444300400
02DFF0000000000300
05FFF2000000003000
06FFFFFFFFFFFFFE10
06FF30000000000230
03FF00000000000030
0AFF00344454430030
4FFF10000120000030
4FFFA7720120177500
4FFFFFF401203F9000
4FFFFFF40120380000
0566FFF40120300000
0001FFF40120300000
0001FFF40120300000
0001FFF40120300000
0001FFF40120300000
0001C9920120244500
002C10000120000130
03EF00344454430030
2FFF00000000000030
4FFF20000000000130
4FFFEDDDDDDDDDD700
4FFFFFFFFFFFFE5000
2EFFFFFFFFFFD30000
ENDCHAR
STARTCHAR Ibreve
ENCODING 300
SWIDTH 705 0
DWIDTH 17 0
BBX 17 27 0 -3
BITMAP
000024444004444200
0004B0004097000400
006FC02028B3020300
05FFE0230000330300
08FFF5024444200000
07FFFF941001300000
04FF64444444444510
00BF00000000000030
02CF00000000000030
1EFF00344454430030
4FFF10000120000030
4FFFA7720120177500
4FFFFFF401203F9000
4FFFFFF40120380000
0566FFF40120300000
0001FFF40120300000
0001FFF40120300000
0001FFF40120300000
0001FFF40120300000
0001C9920120244500
002C10000120000130
03EF00344454430030
2FFF00000000000030
4FFF20000000000130
4FFFEDDDDDDDDDD700
4FFFFFFFFFFFFE5000
2EFFFFFFFFFFD30000
ENDCHAR
STARTCHAR ibreve
ENCODING 301
SWIDTH 705 0
DWIDTH 17 0
BBX 17 27 0 -3
BITMAP
000024444004444200
0004B0004097000400
006FC02028B3020300
05FFE0230000330300
08FFF5024444200000
07FFFF941001300000
04FF64444444444510
00BF00000000000030
02CF00000000000030
1EFF00344454430030
4FFF10000120000030
4FFFA7720120177500
4FFFFFF401203F9000
4FFFFFF40120380000
0566FFF40120300000
0001FFF40120300000
0001FFF40120300000
0001FFF40120300000
0001FFF40120300000
0001C9920120244500
002C10000120000130
03EF00344454430030
2FFF00000000000030
4FFF20000000000130
4FFFEDDDDDDDDDD700
4FFFFFFFFFFFFE5000
2EFFFFFFFFFFD30000
ENDCHAR
STARTCHAR Iogonek
ENCODING 302
SWIDTH 705 0
DWIDTH 17 0
BBX 17 26 0 -8
BITMAP
000354444444444510
004E00000000000030
06FF00000000000030
3FFF00344454430030
4FFF10000120000030
4FFFA7720120177500
4FFFFFF401203F9000
4FFFFFF40120380000
0566FFF40120300000
0001FFF40120300000
0001FFF40120300000
0001FFF40120300000
0001FFF40120300000
0001B9920120244500
002C10000120000130
03EF00344454540030
2FFF00000000400030
4FFF20000000400130
4FFFEDDDDD3040AB00
4FFFFFFFFF20408500
2EFFFFFFFF10530030
0000002FFF30000030
0000004FFFC3000220
0000004FFFFFFFF600
0000001FFFFFFE4000
00000005BDDDC20000
ENDCHAR
STARTCHAR iogonek
ENCODING 303
SWIDTH 705 0
DWIDTH 17 0
BBX 17 26 0 -8
BITMAP
000354444444444510
004E00000000000030
06FF00000000000030
3FFF00344454430030
4FFF10000120000030
4FFFA7720120177500
4FFFFFF401203F9000
4FFFFFF40120380000
0566FFF40120300000
0001FFF40120300000
0001FFF40120300000
0001FFF40120300000
0001FFF40120300000
0001B9920120244500
002C10000120000130
03EF00344454540030
2FFF00000000400030
4FFF20000000400130
4FFFEDDDDD3040AB00
4FFFFFFFFF20408500
2EFFFFFFFF10530030
0000002FFF30000030
0000004FFFC3000220
0000004FFFFFFFF600
0000001FFFFFFE4000
00000005BDDDC20000
ENDCHAR
STARTCHAR Idotaccent
ENCODING 304
SWIDTH 705 0
DWIDTH 17 0
BBX 17 27 0 -3
BITMAP
000000044444400000
000001A40000300000
00002CF40000300000
0000DFF40120300000
0001FFF40010300000
0001FFF60000300000
000364444444444510
004E00000000000030
05FF00000000000030
3FFF00344454430030
4FFF10000120000030
4FFFA7720120177500
4FFFFFF401203F9000
4FFFFFF40120380000
0566FFF40120300000
0001FFF40120300000
0001FFF40120300000
0001FFF40120300000
0001FFF40120300000
0001C9920120244500
002C10000120000130
03EF00344454430030
2FFF00000000000030
4FFF20000000000130
4FFFEDDDDDDDDDD700
4FFFFFFFFFFFFE5000
2EFFFFFFFFFFD30000
ENDCHAR
STARTCHAR dotlessi
ENCODING 305
SWIDTH 705 0
DWIDTH 17 0
BBX 17 21 0 -3
BITMAP
000354444444444510
004E00000000000030
06FF00000000000030
3FFF00344454430030
4FFF10000120000030
4FFFA7720120177500
4FFFFFF401203F9000
4FFFFFF40120380000
0566FFF40120300000
0001FFF40120300000
0001FFF40120300000
0001FFF40120300000
0001FFF40120300000
0001C9920120244500
002C10000120000130
03EF00344454430030
2FFF00000000000030
4FFF20000000000130
4FFFEDDDDDDDDDD700
4FFFFFFFFFFFFE5000
2EFFFFFFFFFFD30000
ENDCHAR
STARTCHAR IJ
ENCODING 306
SWIDTH 844 0
DWIDTH 20 0
BBX 19 21 1 -3
BITMAP
00164444500054444420
02C60000220890000030
3DF60000228F90000040
DFF6004029FF90040040
EFF600402FFF90040040
EFF600402FFF90040040
EFF600402FFF90040040
EFF600402FFF90040040
EFF600202FFF90040040
EFF600002FFF90040040
EFFB44447FFF90040040
EFFFFFFC5FFF90040040
DFFFFFA14FFF70040030
367B6500266400130030
01B60000000000500220
2DF60244444444100300
CFF60000000000002200
EFF80000000000152000
EFFFDDDDDDDDDED20000
EFFFFFFFFFFFFB100000
BFFFFFFFFFEC50000000
ENDCHAR
STARTCHAR ij
ENCODING 307
SWIDTH 844 0
DWIDTH 20 0
BBX 19 21 1 -3
BITMAP
00164444500054444420
02C60000220890000030
3DF60000228F90000040
DFF6004029FF90040040
EFF600402FFF90040040
EFF600402FFF90040040
EFF600402FFF90040040
EFF600402FFF90040040
EFF600202FFF90040040
EFF600002FFF90040040
EFFB44447FFF90040040
EFFFFFFC5FFF90040040
DFFFFFA14FFF70040030
367B6500266400130030
01B60000000000500220
2DF60244444444100300
CFF60000000000002200
EFF80000000000152000
EFFFDDDDDDDDDED20000
EFFFFFFFFFFFFB100000
BFFFFFFFFFEC50000000
ENDCHAR
STARTCHAR Jcircumflex
ENCODING 308
SWIDTH 788 0
DWIDTH 19 0
BBX 21 27 0 -3
BITMAP
0000000000001333200000
0000000000222000032100
0000000018002333310300
00000004EC001000010310
0000005FFC026BED940310
0000008FFFDFFFFFFFE900
0000008FFFFF6000068000
0000008FC89F4000040000
0000001107FF4011040000
000000001FFF4021040000
000000001FFF4021040000
000000001FFF4021040000
000000001FFF4021040000
000000001FFF4021040000
000244445FFF4021040000
005B00001FFF4021040000
07FB00101FFF4021040000
6FFB00401FFF4021040000
9FFB00400EFF2031040000
9FFC004001320040030000
9FFD002400000230030000
9FFF300144344200040000
7FFFC10000000000410000
3FFFFE7300000257100000
0BFFFFFFFEDEEF90000000
01BFFFFFFFFFF700000000
00049DEFEDB72000000000
ENDCHAR
STARTCHAR jcircumflex
ENCODING 309
SWIDTH 788 0
DWIDTH 19 0
BBX 21 27 0 -3
BITMAP
0000000000001333200000
0000000000222000032100
0000000018002333310300
00000004EC001000010310
0000005FFC026BED940310
0000008FFFDFFFFFFFE900
0000008FFFFF6000068000
0000008FC89F4000040000
0000001107FF4011040000
000000001FFF4021040000
000000001FFF4021040000
000000001FFF4021040000
000000001FFF4021040000
000000001FFF4021040000
000244445FFF4021040000
005B00001FFF4021040000
07FB00101FFF4021040000
6FFB00401FFF4021040000
9FFB00400EFF2031040000
9FFC004001320040030000
9FFD002400000230030000
9FFF300144344200040000
7FFFC10000000000410000
3FFFFE7300000257100000
0BFFFFFFFEDEEF90000000
01BFFFFFFFFFF700000000
00049DEFEDB72000000000
ENDCHAR
STARTCHAR Kcommaaccent
ENCODING 310
SWIDTH 846 0
DWIDTH 20 0
BBX 19 30 1 -12
BITMAP
00164444500054444600
02C60000220A20000400
3EF6000022AB00000400
DFF600402BF501303100
EFF600402FE004004000
EFF600402F8004013000
EFF600402F2031040000
EFF60040030040034200
EFF60040000220000400
EFF60064444543300040
EFF60040000000130040
EFF60040044410030040
EFF600402FFFB0040040
EFF600402FFFC0040040
EFF600402EFFC0040040
EFF600402AFFC0040040
EFF600002AFFC0000040
EFF8000039FFD0000040
EFFFDDDD58FFFEDDD900
EFFFFFE547999EFF8000
BFFFFC6D000008E50000
000007FE024414000000
00005FFE000224000000
00006FFF100223000000
00006FFFFDA404000000
00006FFF434312000000
00001AFF845740000000
00001FFFFFE400000000
00002FFFFC2000000000
00000677500000000000
ENDCHAR
STARTCHAR kcommaaccent
ENCODING 311
SWIDTH 846 0
DWIDTH 20 0
BBX 19 30 1 -12
BITMAP
00164444500054444600
02C60000220A20000400
3EF6000022AB00000400
DFF600402BF501303100
EFF600402FE004004000
EFF600402F8004013000
EFF600402F2031040000
EFF60040030040034200
EFF60040000220000400
EFF60064444543300040
EFF60040000000130040
EFF60040044410030040
EFF600402FFFB0040040
EFF600402FFFC0040040
EFF600402EFFC0040040
EFF600402AFFC0040040
EFF600002AFFC0000040
EFF8000039FFD0000040
EFFFDDDD58FFFEDDD900
EFFFFFE547999EFF8000
BFFFFC6D000008E50000
000007FE024414000000
00005FFE000224000000
00006FFF100223000000
00006FFFFDA404000000
00006FFF434312000000
00001AFF845740000000
00001FFFFFE400000000
00002FFFFC2000000000
00000677500000000000
ENDCHAR
STARTCHAR kgreenlandic
ENCODING 312
SWIDTH 846 0
DWIDTH 20 0
BBX 19 21 1 -3
BITMAP
00164444500054444600
02C60000220A20000400
3EF6000022AB00000400
DFF600402BF501303100
EFF600402FE004004000
EFF600402F8004013000
EFF600402F2031040000
EFF60040030040034200
EFF60040000220000400
EFF60064444543300040
EFF60040000000130040
EFF60040044410030040
EFF600402FFFB0040040
EFF600402FFFC0040040
EFF600402EFFC0040040
EFF600402AFFC0040040
EFF600002AFFC0000040
EFF8000039FFD0000040
EFFFDDDD58FFFEDDD900
EFFFFFE408FFFFFF8000
BFFFFC2005FFFFE50000
ENDCHAR
STARTCHAR Lacute
ENCODING 313
SWIDTH 795 0
DWIDTH 19 0
BBX 18 27 1 -3
BITMAP
000000000013420000
000144444431040000
003700000131040000
05F602444310040000
7FF600000000240000
EFF923579BDF900000
EFFD8888BFF6000000
EFF700002B40000000
AFF600002200000000
8FF600402200000000
EFF600402200000000
EFF600402200000000
EFF600402200000000
EFF600402200000000
EFF600402200544442
EFF60040221B300004
EFF6004024DF201004
EFF600402FFF204004
EFF600402FFF204004
EFF600401444104004
EFF600400000004004
EFF600544444445004
EFF600000000000004
EFF800000000000004
EFFFDDDDDDDDDDDDA1
EFFFFFFFFFFFFFF900
BFFFFFFFFFFFFF7000
ENDCHAR
STARTCHAR lacute
ENCODING 314
SWIDTH 795 0
DWIDTH 19 0
BBX 18 27 1 -3
BITMAP
000000000013420000
000144444431040000
003700000131040000
05F602444310040000
7FF600000000240000
EFF923579BDF900000
EFFD8888BFF6000000
EFF700002B40000000
AFF600002200000000
8FF600402200000000
EFF600402200000000
EFF600402200000000
EFF600402200000000
EFF600402200000000
EFF600402200544442
EFF60040221B300004
EFF6004024DF201004
EFF600402FFF204004
EFF600402FFF204004
EFF600401444104004
EFF600400000004004
EFF600544444445004
EFF600000000000004
EFF800000000000004
EFFFDDDDDDDDDDDDA1
EFFFFFFFFFFFFFF900
BFFFFFFFFFFFFF7000
ENDCHAR
STARTCHAR Lcommaaccent
ENCODING 315
SWIDTH 795 0
DWIDTH 19 0
BBX 18 30 1 -12
BITMAP
001644445000000000
02C600002200000000
3EF600202200000000
DFF600402200000000
EFF600402200000000
EFF600402200000000
EFF600402200000000
EFF600402200000000
EFF600402200544442
EFF60040221B300004
EFF6004024DF201004
EFF600402FFF204004
EFF600402FFF204004
EFF600401444104004
EFF600400000004004
EFF600544444445004
EFF600000000000004
EFF800000000000004
EFFFEEEEEEEEEEEEA1
EFFFFFFD21112DF900
BFFFFFFB00000A7000
00002DFB0345040000
00009FFB0004040000
00009FFC0004040000
00009FFFED84040000
00009FFF1342310000
00002CFF6457300000
00005FFFFFC2000000
00005FFFFA10000000
000017774000000000
ENDCHAR
STARTCHAR lcommaaccent
ENCODING 316
SWIDTH 795 0
DWIDTH 19 0
BBX 18 30 1 -12
BITMAP
001644445000000000
02C600002200000000
3EF600202200000000
DFF600402200000000
EFF600402200000000
EFF600402200000000
EFF600402200000000
EFF600402200000000
EFF600402200544442
EFF60040221B300004
EFF6004024DF201004
EFF600402FFF204004
EFF600402FFF204004
EFF600401444104004
EFF600400000004004
EFF600544444445004
EFF600000000000004
EFF800000000000004
EFFFEEEEEEEEEEEEA1
EFFFFFFD21112DF900
BFFFFFFB00000A7000
00002DFB0345040000
00009FFB0004040000
00009FFC0004040000
00009FFFED84040000
00009FFF1342310000
00002CFF6457300000
00005FFFFFC2000000
00005FFFFA10000000
000017774000000000
ENDCHAR
STARTCHAR Lcaron
ENCODING 317
SWIDTH 795 0
DWIDTH 19 0
BBX 18 21 1 -3
BITMAP
001644445002544443
02C60000223E100004
3EF6002026EE002022
DFF600402FFC004040
EFF600402FF9012040
EFF600402FF7000040
EFF600402FF7000220
EFF600402FFFFFF600
EFF600402FFFC97442
EFF600402DEF300004
EFF6004024DF201004
EFF600402FFF204004
EFF600402FFF204004
EFF600401444104004
EFF600400000004004
EFF600544444445004
EFF600000000000004
EFF800000000000004
EFFFDDDDDDDDDDDDA1
EFFFFFFFFFFFFFF900
BFFFFFFFFFFFFF7000
ENDCHAR
STARTCHAR lcaron
ENCODING 318
SWIDTH 795 0
DWIDTH 19 0
BBX 18 21 1 -3
BITMAP
001644445002544443
02C60000223E100004
3EF6002026EE002022
DFF600402FFC004040
EFF600402FF9012040
EFF600402FF7000040
EFF600402FF7000220
EFF600402FFFFFF600
EFF600402FFFC97442
EFF600402DEF300004
EFF6004024DF201004
EFF600402FFF204004
EFF600402FFF204004
EFF600401444104004
EFF600400000004004
EFF600544444445004
EFF600000000000004
EFF800000000000004
EFFFDDDDDDDDDDDDA1
EFFFFFFFFFFFFFF900
BFFFFFFFFFFFFF7000
ENDCHAR
STARTCHAR Ldot
ENCODING 319
SWIDTH 795 0
DWIDTH 19 0
BBX 18 21 1 -3
BITMAP
001644445000000000
02C600002200000000
3EF600002200000000
DFF600402200000000
EFF600402202444441
EFF60040226D000004
EFF600402CFE004004
EFF600402FFE001004
EFF600402FFF100014
EFF600402FFFFFFF80
EFF600402FFFC99742
EFF600402CEF300004
EFF6004025EF201004
EFF600401555104004
EFF600400000004004
EFF600544444445004
EFF600000000000004
EFF800000000000004
EFFFDDDDDDDDDDDDA1
EFFFFFFFFFFFFFF900
BFFFFFFFFFFFFF7000
ENDCHAR
STARTCHAR ldot
ENCODING 320
SWIDTH 795 0
DWIDTH 19 0
BBX 18 21 1 -3
BITMAP
001644445000000000
02C600002200000000
3EF600002200000000
DFF600402200000000
EFF600402202444441
EFF60040226D000004
EFF600402CFE004004
EFF600402FFE001004
EFF600402FFF100014
EFF600402FFFFFFF80
EFF600402FFFC99742
EFF600402CEF300004
EFF6004025EF201004
EFF600401555104004
EFF600400000004004
EFF600544444445004
EFF600000000000004
EFF800000000000004
EFFFDDDDDDDDDDDDA1
EFFFFFFFFFFFFFF900
BFFFFFFFFFFFFF7000
ENDCHAR
STARTCHAR Lslash
ENCODING 321
SWIDTH 805 0
DWIDTH 19 0
BBX 20 21 -1 -3
BITMAP
00000644444200000000
0000AA00000400000000
001BFA00200400000000
009FFA00400400000000
00AFFA00400400000000
00AFFA00400543000000
00AFD700400004000000
00AF4000401104000000
01CF4024642004444444
0CFF400040003B600004
1FFF5000400DFF601004
1FFFFA00400DFF602204
1FFFFA00400DFF602204
0BEFFA00400444202204
00AFFA00400000002204
00AFFA00444444445104
00AFFA00000000000004
00AFFB00000000000004
00AFFFEDDDDDDDDDDDB2
00AFFFFFFFFFFFFFFC10
007FFFFFFFFFFFFFA000
ENDCHAR
STARTCHAR lslash
ENCODING 322
SWIDTH 805 0
DWIDTH 19 0
BBX 20 21 -1 -3
BITMAP
00000644444200000000
0000AA00000400000000
001BFA00200400000000
009FFA00400400000000
00AFFA00400400000000
00AFFA00400543000000
00AFD700400004000000
00AF4000401104000000
01CF4024642004444444
0CFF400040003B600004
1FFF5000400DFF601004
1FFFFA00400DFF602204
1FFFFA00400DFF602204
0BEFFA00400444202204
00AFFA00400000002204
00AFFA00444444445104
00AFFA00000000000004
00AFFB00000000000004
00AFFFEDDDDDDDDDDDB2
00AFFFFFFFFFFFFFFC10
007FFFFFFFFFFFFFA000
ENDCHAR
STARTCHAR Nacute
ENCODING 323
SWIDTH 853 0
DWIDTH 20 0
BBX 19 27 1 -3
BITMAP
00000000013579AB1000
000002ABBA8642014000
00003E20002343004000
0005EF00332000003000
003FFF00000000000000
005FFF32468ACE900000
005B4447FFFFE4444430
01B600006ECDD0000040
2CF60000024FD0000040
CFF6017100BFD0040040
EFF60135001DD0040040
EFF601305003C0040040
EFF60130040040040040
EFF60130014000040040
EFF60130002300040040
EFF60130210230040040
EFF601304A0032040040
EFF601304F8003140040
EFF601304FF500440040
EFF601304FFE30050040
EFF601304FFFC0040040
EFF601304FFFD0040040
EFF600004DFFD0000040
EFF8000047FFE0000040
EFFFDDDC47FFFEDDD700
EFFFFFD307FFFFFF6000
BFFFFB1004FFFFE40000
ENDCHAR
STARTCHAR nacute
ENCODING 324
SWIDTH 853 0
DWIDTH 20 0
BBX 19 27 1 -3
BITMAP
00000000013579AB1000
000002ABBA8642014000
00003E20002343004000
0005EF00332000003000
003FFF00000000000000
005FFF32468ACE900000
005B4447FFFFE4444430
01B600006ECDD0000040
2CF60000024FD0000040
CFF6017100BFD0040040
EFF60135001DD0040040
EFF601305003C0040040
EFF60130040040040040
EFF60130014000040040
EFF60130002300040040
EFF60130210230040040
EFF601304A0032040040
EFF601304F8003140040
EFF601304FF500440040
EFF601304FFE30050040
EFF601304FFFC0040040
EFF601304FFFD0040040
EFF600004DFFD0000040
EFF8000047FFE0000040
EFFFDDDC47FFFEDDD700
EFFFFFD307FFFFFF6000
BFFFFB1004FFFFE40000
ENDCHAR
STARTCHAR Ncommaaccent
ENCODING 325
SWIDTH 853 0
DWIDTH 20 0
BBX 19 30 1 -12
BITMAP
00164434200044444430
02C600003005C0000040
3EF60000024FD0000040
DFF6017100BFD0040040
EFF60135001DD0040040
EFF601305003C0040040
EFF60130040040040040
EFF60130014000040040
EFF60130002300040040
EFF60130210230040040
EFF601304A0032040040
EFF601304F8003140040
EFF601304FF500440040
EFF601304FFE30050040
EFF601304FFFC0040040
EFF601304FFFD0040040
EFF600004DFFD0000040
EFF8000047FFE0000040
EFFFDDDC47FFFEDDD700
EFFFFFD446999DFF6000
BFFFFB5D000007E40000
000007FF024424000000
00004FFF000134000000
00005FFF100134000000
00005FFFFDB314000000
00005FFF524313000000
000009FF945650000000
00001FFFFFE500000000
00001FFFFD3000000000
00000677500000000000
ENDCHAR
STARTCHAR ncommaaccent
ENCODING 326
SWIDTH 853 0
DWIDTH 20 0
BBX 19 30 1 -12
BITMAP
00164434200044444430
02C600003005C0000040
3EF60000024FD0000040
DFF6017100BFD0040040
EFF60135001DD0040040
EFF601305003C0040040
EFF60130040040040040
EFF60130014000040040
EFF60130002300040040
EFF60130210230040040
EFF601304A0032040040
EFF601304F8003140040
EFF601304FF500440040
EFF601304FFE30050040
EFF601304FFFC0040040
EFF601304FFFD0040040
EFF600004DFFD0000040
EFF8000047FFE0000040
EFFFDDDC47FFFEDDD700
EFFFFFD446999DFF6000
BFFFFB5D000007E40000
000007FF024424000000
00004FFF000134000000
00005FFF100134000000
00005FFFFDB314000000
00005FFF524313000000
000009FF945650000000
00001FFFFFE500000000
00001FFFFD3000000000
00000677500000000000
ENDCHAR
STARTCHAR Ncaron
ENCODING 327
SWIDTH 853 0
DWIDTH 20 0
BBX 19 28 1 -3
BITMAP
00000110000000000000
00004B88400024450000
0005F800254420040000
006FF801200011040000
00CFF800244420030000
00CFFE61000000520000
00CFFFFE94039C300000
009B4447FFFFF5444430
01B600006FBAD0000040
2DF60000024FD0000040
CFF6017100BFD0040040
EFF60135001DD0040040
EFF601305003C0040040
EFF60130040040040040
EFF60130014000040040
EFF60130002300040040
EFF60130210230040040
EFF601304A0032040040
EFF601304F8003140040
EFF601304FF500440040
EFF601304FFE30050040
EFF601304FFFC0040040
EFF601304FFFD0040040
EFF600004DFFD0000040
EFF8000047FFE0000040
EFFFDDDC47FFFEDDD700
EFFFFFD307FFFFFF6000
BFFFFB1004FFFFE40000
ENDCHAR
STARTCHAR ncaron
ENCODING 328
SWIDTH 853 0
DWIDTH 20 0
BBX 19 28 1 -3
BITMAP
00000110000000000000
00004B88400024450000
0005F800254420040000
006FF801200011040000
00CFF800244420030000
00CFFE61000000520000
00CFFFFE94039C300000
009B4447FFFFF5444430
01B600006FBAD0000040
2DF60000024FD0000040
CFF6017100BFD0040040
EFF60135001DD0040040
EFF601305003C0040040
EFF60130040040040040
EFF60130014000040040
EFF60130002300040040
EFF60130210230040040
EFF601304A0032040040
EFF601304F8003140040
EFF601304FF500440040
EFF601304FFE30050040
EFF601304FFFC0040040
EFF601304FFFD0040040
EFF600004DFFD0000040
EFF8000047FFE0000040
EFFFDDDC47FFFEDDD700
EFFFFFD307FFFFFF6000
BFFFFB1004FFFFE40000
ENDCHAR
STARTCHAR napostrophe
ENCODING 329
SWIDTH 853 0
DWIDTH 20 0
BBX 20 29 0 -3
BITMAP
00014444440000000000
002C2000040000000000
04EF2244240000000000
2FFF2000440000000000
4FFF3000430000000000
4FFFFDD2230000000000
3FFF7243000000000000
09FF7001100000000000
0CFFFCCBB20005BCCCC4
0FFF700018005D000004
0BFF60000164FD000004
09FF6017102DFD004004
0EFF60135003ED004004
0EFF601305004C004004
0EFF6013004004004004
0EFF6013001400004004
0EFF6013000230004004
0EFF6013021023004004
0EFF601304A003204004
0EFF601304F800314004
0EFF601304FF50044004
0EFF601304FFE3005004
0EFF601304FFFC004004
0EFF601304FFFD004004
0EFF600004DFFD000004
0EFF7000047FFE000003
0EFFFDDDC47FFFEDDD70
0EFFFFFD307FFFFFF600
0BFFFFB1004FFFFE4000
ENDCHAR
STARTCHAR Eng
ENCODING 330
SWIDTH 846 0
DWIDTH 20 0
BBX 20 23 0 -5
BITMAP
00000024444444443000
00000420000000001510
00008100244434300050
001B8003300000150022
01DF5004000000013004
09FF401202DFE5004004
0EFF402205FFF9004004
0FFF402205FFF9004004
1FFF402204CFF9004004
1FFF402204BFF9004004
1FFF402204BFF9004004
1FFF402204BFF9004004
1FFF402204BFF9004004
1FFF402204BFF9004004
1FFF402204BFF9004004
1FFF402104BD93004004
1FFF400004D400022003
1FFF600006F402420030
1FFFFDDDDFF400000030
1FFFFFFDFFF500003300
0CFFFFB2FFFEBBCD4000
00000001FFFFFFD20000
00000000CFEEB6000000
ENDCHAR
STARTCHAR eng
ENCODING 331
SWIDTH 846 0
DWIDTH 20 0
BBX 20 23 0 -5
BITMAP
00000024444444443000
00000420000000001510
00008100244434300050
001B8003300000150022
01DF5004000000013004
09FF401202DFE5004004
0EFF402205FFF9004004
0FFF402205FFF9004004
1FFF402204CFF9004004
1FFF402204BFF9004004
1FFF402204BFF9004004
1FFF402204BFF9004004
1FFF402204BFF9004004
1FFF402204BFF9004004
1FFF402204BFF9004004
1FFF402104BD93004004
1FFF400004D400022003
1FFF600006F402420030
1FFFFDDDDFF400000030
1FFFFFFDFFF500003300
0CFFFFB2FFFEBBCD4000
00000001FFFFFFD20000
00000000CFEEB6000000
ENDCHAR
STARTCHAR Omacron
ENCODING 332
SWIDTH 837 0
DWIDTH 20 0
BBX 20 26 0 -3
BITMAP
00000034444444443000
00000780000000004000
00009F80144444204000
0009FF80000000003000
000CFFA0000000004000
000CFFFFDBA9ABDD2000
000BFE72000000015500
0004E200243334300140
003E7004200000150030
03FF4013000000013003
0CFF203003DFE5004003
1FFF204006FFF9004004
3FFF204006FFF9004004
3FFF204004CFF9004004
3FFF204004BFF9004004
3FFF204004BFF9004004
3FFF204004BFF9004004
3FFF203004BFF9004004
3FFF3013018BA3013004
3FFF4004200000150013
2FFF9000244444300040
1FFFF500000000000340
0CFFFFB5200000149400
04FFFFFFFFEDEEFD2000
005EFFFFFFFFFFA10000
00016ADEFEEB83000000
ENDCHAR
STARTCHAR omacron
ENCODING 333
SWIDTH 837 0
DWIDTH 20 0
BBX 20 26 0 -3
BITMAP
00000034444444443000
00000780000000004000
00009F80144444204000
0009FF80000000003000
000CFFA0000000004000
000CFFFFDBA9ABDD2000
000BFE72000000015500
0004E200243334300140
003E7004200000150030
03FF4013000000013003
0CFF203003DFE5004003
1FFF204006FFF9004004
3FFF204006FFF9004004
3FFF204004CFF9004004
3FFF204004BFF9004004
3FFF204004BFF9004004
3FFF204004BFF9004004
3FFF203004BFF9004004
3FFF3013018BA3013004
3FFF4004200000150013
2FFF9000244444300040
1FFFF500000000000340
0CFFFFB5200000149400
04FFFFFFFFEDEEFD2000
005EFFFFFFFFFFA10000
00016ADEFEEB83000000
ENDCHAR
STARTCHAR Obreve
ENCODING 334
SWIDTH 837 0
DWIDTH 20 0
BBX 20 27 0 -3
BITMAP
00000044442014444000
000009600033D0003000
0001CF60501210403000
000CFF80144444204000
000EFFD1000000004000
000EFFFD631012560000
000AFFFEB98788941000
0002CD50000000003500
0001A100243334300050
003D7004200000150031
03EF3013000000013003
0CFF203003DFE5004003
1FFF204006FFF9004004
3FFF204006FFF9004004
3FFF204004CFF9004004
3FFF204004BFF9004004
3FFF204004BFF9004004
3FFF204004BFF9004004
3FFF203004BFF9004004
3FFF3013018BA3013004
3FFF4004200000150013
2FFF9000244444300040
1FFFF500000000000330
0CFFFFB5200000148400
04FFFFFFFFEDEEFD2000
005EFFFFFFFFFFA10000
00016ADEFEEB83000000
ENDCHAR
STARTCHAR obreve
ENCODING 335
SWIDTH 837 0
DWIDTH 20 0
BBX 20 27 0 -3
BITMAP
00000044442014444000
000009600033D0003000
0001CF60501210403000
000CFF80144444204000
000EFFD1000000004000
000EFFFD631012560000
000AFFFEB98788941000
0002CD50000000003500
0001A100243334300050
003D7004200000150031
03EF3013000000013003
0CFF203003DFE5004003
1FFF204006FFF9004004
3FFF204006FFF9004004
3FFF204004CFF9004004
3FFF204004BFF9004004
3FFF204004BFF9004004
3FFF204004BFF9004004
3FFF203004BFF9004004
3FFF3013018BA3013004
3FFF4004200000150013
2FFF9000244444300040
1FFFF500000000000330
0CFFFFB5200000148400
04FFFFFFFFEDEEFD2000
005EFFFFFFFFFFA10000
00016ADEFEEB83000000
ENDCHAR
STARTCHAR Ohungarumlaut
ENCODING 336
SWIDTH 837 0
DWIDTH 20 0
BBX 20 29 0 -3
BITMAP
00000003444401444410
0000005900042B000040
000007F50006D9000310
00007FF2040AF6040400
0000DFE0220EF2040400
0001FFA0202FE0120300
0005FF70005FA0002200
0009FF7000AFA0004000
000DFFFFDBA9ABDE2000
000FFE72000000015500
0006E200243334300140
003E7004200000150030
03FF4013000000013003
0CFF203003DFE5004003
1FFF204006FFF9004004
3FFF204006FFF9004004
3FFF204004CFF9004004
3FFF204004BFF9004004
3FFF204004BFF9004004
3FFF204004BFF9004004
3FFF203004BFF9004004
3FFF3013018BA3013004
3FFF4004200000150013
2FFF9000244444300040
1FFFF500000000000340
0CFFFFB5200000149400
04FFFFFFFFEDEEFD2000
005EFFFFFFFFFFA10000
00016ADEFEEB83000000
ENDCHAR
STARTCHAR ohungarumlaut
ENCODING 337
SWIDTH 837 0
DWIDTH 20 0
BBX 20 29 0 -3
BITMAP
00000003444401444410
0000005900042B000040
000007F50006D9000310
00007FF2040AF6040400
0000DFE0220EF2040400
0001FFA0202FE0120300
0005FF70005FA0002200
0009FF7000AFA0004000
000DFFFFDBA9ABDE2000
000FFE72000000015500
0006E200243334300140
003E7004200000150030
03FF4013000000013003
0CFF203003DFE5004003
1FFF204006FFF9004004
3FFF204006FFF9004004
3FFF204004CFF9004004
3FFF204004BFF9004004
3FFF204004BFF9004004
3FFF204004BFF9004004
3FFF203004BFF9004004
3FFF3013018BA3013004
3FFF4004200000150013
2FFF9000244444300040
1FFFF500000000000340
0CFFFFB5200000149400
04FFFFFFFFEDEEFD2000
005EFFFFFFFFFFA10000
00016ADEFEEB83000000
ENDCHAR
STARTCHAR OE
ENCODING 338
SWIDTH 1115 0
DWIDTH 27 0
BBX 27 21 0 -3
BITMAP
0000003334444444444444444510
0000150000000000000000000130
0002A00000000000000000000130
003E600044444444544444420130
03EF300610000001300000000220
0BFF202201899301303DDDDDD500
1FFF203006FFF501304FFFFE4000
2FFF204006FFF501300000022000
3FFF204006FFF501300000004000
3FFF204006FFF501544442004000
3FFF204006FFF501300000003000
3FFF204006FFF501301666651000
3FFF203006FFF501304FFFB10000
3FFF302201999301302999444500
3FFF500600000001300000000130
2FFFA00044444444544444420130
1FFFF40000000000000000000130
0CFFFF8200000000000000000220
05FFFFFFEDDDDDDDDDDDDDDDD600
008FFFFFFFFFFFFFFFFFFFFE4000
0003ADFFFFFFFFFFFFFFFFD30000
ENDCHAR
STARTCHAR oe
ENCODING 339
SWIDTH 1115 0
DWIDTH 27 0
BBX 27 21 0 -3
BITMAP
0000003334444444444444444510
0000150000000000000000000130
0002A00000000000000000000130
003E600044444444544444420130
03EF300610000001300000000220
0BFF202201899301303DDDDDD500
1FFF203006FFF501304FFFFE4000
2FFF204006FFF501300000022000
3FFF204006FFF501300000004000
3FFF204006FFF501544442004000
3FFF204006FFF501300000003000
3FFF204006FFF501301666651000
3FFF203006FFF501304FFFB10000
3FFF302201999301302999444500
3FFF500600000001300000000130
2FFFA00044444444544444420130
1FFFF40000000000000000000130
0CFFFF8200000000000000000220
05FFFFFFEDDDDDDDDDDDDDDDD600
008FFFFFFFFFFFFFFFFFFFFE4000
0003ADFFFFFFFFFFFFFFFFD30000
ENDCHAR
STARTCHAR Racute
ENCODING 340
SWIDTH 843 0
DWIDTH 20 0
BBX 19 27 1 -3
BITMAP
00000000000246730000
00000377777531050000
00006800000131040000
0009F602444210040000
00AFF600000000220000
00EFF924579BDE600000
00ED8888888886410000
00E70000000000033000
06F60000000000004000
8FF60054444441002100
EFF60040000005000300
EFF600402FF702200300
EFF600402FFB00301200
EFF600402FF801304000
EFF60040011002216100
EFF60040000005000410
EFF60063333354300040
EFF60040000000040040
EFF600402DDDB0040040
EFF600402FFFF2040040
EFF600402FFFF2040040
EFF6002027FFF2020040
EFF6000024FFF2000040
EFF8000024FFF3000040
EFFFDDDC33FFFFDDDB20
EFFFFFD203FFFFFFC100
BFFFFC1001EFFFF90000
ENDCHAR
STARTCHAR racute
ENCODING 341
SWIDTH 843 0
DWIDTH 20 0
BBX 19 27 1 -3
BITMAP
00000000000246730000
00000377777531050000
00006800000131040000
0009F602444210040000
00AFF600000000220000
00EFF924579BDE600000
00ED8888888886410000
00E70000000000033000
06F60000000000004000
8FF60054444441002100
EFF60040000005000300
EFF600402FF702200300
EFF600402FFB00301200
EFF600402FF801304000
EFF60040011002216100
EFF60040000005000410
EFF60063333354300040
EFF60040000000040040
EFF600402DDDB0040040
EFF600402FFFF2040040
EFF600402FFFF2040040
EFF6002027FFF2020040
EFF6000024FFF2000040
EFF8000024FFF3000040
EFFFDDDC33FFFFDDDB20
EFFFFFD203FFFFFFC100
BFFFFC1001EFFFF90000
ENDCHAR
STARTCHAR Rcommaaccent
ENCODING 342
SWIDTH 843 0
DWIDTH 20 0
BBX 19 30 1 -12
BITMAP
00164444444444430000
02C60000000000023000
3EF60000000000004000
DFF60054444441002200
EFF60040000005000300
EFF600402FF702200300
EFF600402FFB00301200
EFF600402FF801304000
EFF60040011002216100
EFF60040000005000410
EFF60063333354300040
EFF60040000000040040
EFF600402DDDB0040040
EFF600402FFFF2040040
EFF600402FFFF2040040
EFF6002027FFF2020040
EFF6000024FFF2000040
EFF8000024FFF3000040
EFFFDDDC33FFFFDDDB20
EFFFFFD345999DFFC100
BFFFFC4C200005F90000
000005EF224424000000
00002FFF200044000000
00003FFF300043000000
00003FFFFDD224000000
00003FFF724303000000
000008FFA45650000000
00000DFFFFF600000000
00000EFFFE4000000000
00000577510000000000
ENDCHAR
STARTCHAR rcommaaccent
ENCODING 343
SWIDTH 843 0
DWIDTH 20 0
BBX 19 30 1 -12
BITMAP
00164444444444430000
02C60000000000023000
3EF60000000000004000
DFF60054444441002200
EFF60040000005000300
EFF600402FF702200300
EFF600402FFB00301200
EFF600402FF801304000
EFF60040011002216100
EFF60040000005000410
EFF60063333354300040
EFF60040000000040040
EFF600402DDDB0040040
EFF600402FFFF2040040
EFF600402FFFF2040040
EFF6002027FFF2020040
EFF6000024FFF2000040
EFF8000024FFF3000040
EFFFDDDC33FFFFDDDB20
EFFFFFD345999DFFC100
BFFFFC4C200005F90000
000005EF224424000000
00002FFF200044000000
00003FFF300043000000
00003FFFFDD224000000
00003FFF724303000000
000008FFA45650000000
00000DFFFFF600000000
00000EFFFE4000000000
00000577510000000000
ENDCHAR
STARTCHAR Rcaron
ENCODING 344
SWIDTH 843 0
DWIDTH 20 0
BBX 19 27 1 -3
BITMAP
00000201000014450000
00006900134430040000
0008F901200012040000
008FFA00244430030000
00BFFE71000000550000
00BFFFFFA4038D600000
00AFEEEEEEEEE9200000
00680000000000351000
05E60000000000004000
7FF60054444441003100
EFF60040000005000300
EFF600402FF702200300
EFF600402FFB00301200
EFF600402FF801303000
EFF60040011002216100
EFF60040000005000410
EFF60063333354300040
EFF60040000000040040
EFF600402DDDB0040040
EFF600402FFFF2040040
EFF600402FFFF2040040
EFF6002027FFF2020040
EFF6000024FFF2000040
EFF8000024FFF3000040
EFFFDDDC33FFFFDDDB20
EFFFFFD203FFFFFFC100
BFFFFC1001EFFFF90000
ENDCHAR
STARTCHAR rcaron
ENCODING 345
SWIDTH 843 0
DWIDTH 20 0
BBX 19 27 1 -3
BITMAP
00000201000014450000
00006900134430040000
0008F901200012040000
008FFA00244430030000
00BFFE71000000550000
00BFFFFFA4038D600000
00AFEEEEEEEEE9200000
00680000000000351000
05E60000000000004000
7FF60054444441003100
EFF60040000005000300
EFF600402FF702200300
EFF600402FFB00301200
EFF600402FF801303000
EFF60040011002216100
EFF60040000005000410
EFF60063333354300040
EFF60040000000040040
EFF600402DDDB0040040
EFF600402FFFF2040040
EFF600402FFFF2040040
EFF6002027FFF2020040
EFF6000024FFF2000040
EFF8000024FFF3000040
EFFFDDDC33FFFFDDDB20
EFFFFFD203FFFFFFC100
BFFFFC1001EFFFF90000
ENDCHAR
STARTCHAR Sacute
ENCODING 346
SWIDTH 750 0
DWIDTH 18 0
BBX 18 27 0 -3
BITMAP
00000000023579BA00
000003ABB976420410
00005C100124420310
0008FC004310000310
007FFC000000001000
009FFD23578ACE6000
009FFFA64444444440
009FE4000000000040
007F60000000000040
001C10024444441040
01BF00230000000050
0BFF004006FFFFFB10
3FFF0040039BDFB000
5FFF00400000004520
5FFF20141000000041
5FFF90002333310004
5FFFFA200000023004
2FFFFFFDB973003004
09FFFFFFFFFD003004
006E63333332004003
006F00000000014003
08FF00344444430003
4FFF00000000000040
5FFF10000000002510
5FFFEDDDDDDDDE9000
5FFFFFFFFFFFF70000
3EFFFFFFFFDA300000
ENDCHAR
STARTCHAR sacute
ENCODING 347
SWIDTH 750 0
DWIDTH 18 0
BBX 18 27 0 -3
BITMAP
00000000023579BA00
000003ABB976420410
00005C100124420310
0008FC004310000310
007FFC000000001000
009FFD23578ACE6000
009FFFA64444444440
009FE4000000000040
007F60000000000040
001C10024444441040
01BF00230000000050
0BFF004006FFFFFB10
3FFF0040039BDFB000
5FFF00400000004520
5FFF20141000000041
5FFF90002333310004
5FFFFA200000023004
2FFFFFFDB973003004
09FFFFFFFFFD003004
006E63333332004003
006F00000000014003
08FF00344444430003
4FFF00000000000040
5FFF10000000002510
5FFFEDDDDDDDDE9000
5FFFFFFFFFFFF70000
3EFFFFFFFFDA300000
ENDCHAR
STARTCHAR Scircumflex
ENCODING 348
SWIDTH 750 0
DWIDTH 18 0
BBX 18 27 0 -3
BITMAP
000000001334200000
000000122000244100
000015002444200400
0002C8012000110400
003DF8001686200300
00BFFC8CFFFFFC8400
00CFFFA64444444440
00CFE4000000000040
00BF60000000000040
002B10024444441040
02CF00230000000050
0CFF004006FFFFFB10
3FFF0040039BDFB000
5FFF00400000004520
5FFF20141000000041
5FFF90002333310004
5FFFFA200000023004
2FFFFFFDB973003004
09FFFFFFFFFD003004
006E63333332004003
006F00000000014003
08FF00344444430003
4FFF00000000000040
5FFF10000000002510
5FFFEDDDDDDDDE9000
5FFFFFFFFFFFF70000
3EFFFFFFFFDA300000
ENDCHAR
STARTCHAR scircumflex
ENCODING 349
SWIDTH 750 0
DWIDTH 18 0
BBX 18 27 0 -3
BITMAP
000000001334200000
000000122000244100
000015002444200400
0002C8012000110400
003DF8001686200300
00BFFC8CFFFFFC8400
00CFFFA64444444440
00CFE4000000000040
00BF60000000000040
002B10024444441040
02CF00230000000050
0CFF004006FFFFFB10
3FFF0040039BDFB000
5FFF00400000004520
5FFF20141000000041
5FFF90002333310004
5FFFFA200000023004
2FFFFFFDB973003004
09FFFFFFFFFD003004
006E63333332004003
006F00000000014003
08FF00344444430003
4FFF00000000000040
5FFF10000000002510
5FFFEDDDDDDDDE9000
5FFFFFFFFFFFF70000
3EFFFFFFFFDA300000
ENDCHAR
STARTCHAR Scedilla
ENCODING 350
SWIDTH 750 0
DWIDTH 18 0
BBX 18 24 0 -6
BITMAP
000002333444444440
000043000000000040
000660000000000040
009F10024444441040
08FF00230000000040
1FFF004007FFFFFB10
4FFF0040039BDFB000
5FFF00400000003510
5FFF20141000000041
5FFF90002333310004
4FFFFA300000023004
1FFFFFFEB973003004
08FFFFFFFFFD003004
006E53333332004004
006F00000000014004
08FF00344445430013
4FFF00000030000050
5FFF41110040025810
5FFFFFFB00306F8000
5FFFFFF60000A60000
3EFFFFF20001300000
0000BFFEDDC4000000
0001FFFFFE30000000
0003EFFFC200000000
ENDCHAR
STARTCHAR scedilla
ENCODING 351
SWIDTH 750 0
DWIDTH 18 0
BBX 18 24 0 -6
BITMAP
000002333444444440
000043000000000040
000660000000000040
009F10024444441040
08FF00230000000040
1FFF004007FFFFFB10
4FFF0040039BDFB000
5FFF00400000003510
5FFF20141000000041
5FFF90002333310004
4FFFFA300000023004
1FFFFFFEB973003004
08FFFFFFFFFD003004
006E53333332004004
006F00000000014004
08FF00344445430013
4FFF00000030000050
5FFF41110040025810
5FFFFFFB00306F8000
5FFFFFF60000A60000
3EFFFFF20001300000
0000BFFEDDC4000000
0001FFFFFE30000000
0003EFFFC200000000
ENDCHAR
STARTCHAR Scaron
ENCODING 352
SWIDTH 750 0
DWIDTH 18 0
BBX 18 27 0 -3
BITMAP
000002011000144600
00005B001344300310
0008FC002000120310
007FFC001444300300
009FFF820000003000
009FFFFFB5127A2000
008FFFA64444444440
0017C4000000000040
000130000000000040
003D10024444441040
04EF00230000000050
0DFF004006FFFFFB10
4FFF0040039BDFB000
5FFF00400000004520
5FFF20141000000041
5FFF90002333310004
4FFFFA200000023004
2FFFFFFDB973003004
09FFFFFFFFFD003004
006E63333332004003
006F00000000014003
08FF00344444430003
4FFF00000000000040
5FFF10000000002510
5FFFEDDDDDDDDE9000
5FFFFFFFFFFFF70000
3EFFFFFFFFDA300000
ENDCHAR
STARTCHAR scaron
ENCODING 353
SWIDTH 750 0
DWIDTH 18 0
BBX 18 27 0 -3
BITMAP
000002011000144600
00005B001344300310
0008FC002000120310
007FFC001444300300
009FFF820000003000
009FFFFFB5127A2000
008FFFA64444444440
0017C4000000000040
000130000000000040
003D10024444441040
04EF00230000000050
0DFF004006FFFFFB10
4FFF0040039BDFB000
5FFF00400000004520
5FFF20141000000041
5FFF90002333310004
4FFFFA200000023004
2FFFFFFDB973003004
09FFFFFFFFFD003004
006E63333332004003
006F00000000014003
08FF00344444430003
4FFF00000000000040
5FFF10000000002510
5FFFEDDDDDDDDE9000
5FFFFFFFFFFFF70000
3EFFFFFFFFDA300000
ENDCHAR
STARTCHAR Tcommaaccent
ENCODING 354
SWIDTH 756 0
DWIDTH 18 0
BBX 19 30 0 -12
BITMAP
00164444444444444500
02C70000000000000310
3DF70000000000000310
CFF70244445444430310
EFF80000004000000300
EFFFDDDB004007DDC400
EFFFFFFC004008FD3000
AFFFFFFC004008C10000
00008FFC004004000000
00008FFC004004000000
00008FFC004004000000
00008FFC004004000000
00008FFC004004000000
00008FFC004004000000
00008FFC004004000000
00008FFC003004000000
00008FFC000004000000
00008FFE000004000000
00008FFFFEEEC1000000
00008FFE211124000000
00005FFD000004000000
00001CFD034504000000
00007FFD000314000000
00007FFE000314000000
00007FFFED9404000000
00007FFF334222000000
00001BFF745740000000
00002FFFFFD300000000
00003FFFFC1000000000
00000677400000000000
ENDCHAR
STARTCHAR tcommaaccent
ENCODING 355
SWIDTH 756 0
DWIDTH 18 0
BBX 19 30 0 -12
BITMAP
00164444444444444500
02C70000000000000310
3DF70000000000000310
CFF70244445444430310
EFF80000004000000300
EFFFDDDB004007DDC400
EFFFFFFC004008FD3000
AFFFFFFC004008C10000
00008FFC004004000000
00008FFC004004000000
00008FFC004004000000
00008FFC004004000000
00008FFC004004000000
00008FFC004004000000
00008FFC004004000000
00008FFC003004000000
00008FFC000004000000
00008FFE000004000000
00008FFFFEEEC1000000
00008FFE211124000000
00005FFD000004000000
00001CFD034504000000
00007FFD000314000000
00007FFE000314000000
00007FFFED9404000000
00007FFF334222000000
00001BFF745740000000
00002FFFFFD300000000
00003FFFFC1000000000
00000677400000000000
ENDCHAR
STARTCHAR Tcaron
ENCODING 356
SWIDTH 756 0
DWIDTH 18 0
BBX 19 27 0 -3
BITMAP
00000201000014450000
00008900134430040000
001BF901200012040000
00AFF900244430030000
00BFFE61000000300000
00BFFFFFA40389100000
009B4444444444444500
00A70000000000000310
1CF70000000000000310
CFF70244445444430310
EFF80000004000000300
EFFFDDDB004007DDC400
EFFFFFFC004008FD3000
AFFFFFFC004008C10000
00008FFC004004000000
00008FFC004004000000
00008FFC004004000000
00008FFC004004000000
00008FFC004004000000
00008FFC004004000000
00008FFC004004000000
00008FFC003004000000
00008FFC000004000000
00008FFE000004000000
00008FFFEDDDA1000000
00008FFFFFFA00000000
00005FFFFF8000000000
ENDCHAR
STARTCHAR tcaron
ENCODING 357
SWIDTH 756 0
DWIDTH 18 0
BBX 19 27 0 -3
BITMAP
00000201000014450000
00008900134430040000
001BF901200012040000
00AFF900244430030000
00BFFE61000000300000
00BFFFFFA40389100000
009B4444444444444500
00A70000000000000310
1CF70000000000000310
CFF70244445444430310
EFF80000004000000300
EFFFDDDB004007DDC400
EFFFFFFC004008FD3000
AFFFFFFC004008C10000
00008FFC004004000000
00008FFC004004000000
00008FFC004004000000
00008FFC004004000000
00008FFC004004000000
00008FFC004004000000
00008FFC004004000000
00008FFC003004000000
00008FFC000004000000
00008FFE000004000000
00008FFFEDDDA1000000
00008FFFFFFA00000000
00005FFFFF8000000000
ENDCHAR
STARTCHAR Tbar
ENCODING 358
SWIDTH 756 0
DWIDTH 18 0
BBX 19 21 0 -3
BITMAP
00163444444444444500
01C70000000000000310
1CF70000000000000310
BFF70244445444430310
EFF70000004000000310
EFFC7665004004666300
EFFFFFFC004008FF7000
DFFFFFFC004008F60000
3777BB98004005741000
0002D200004000004000
004EF203446443004000
02FFF200004000004000
03FFF854004003553000
03FFFFFC004008E40000
03FFFFFC004007200000
0089CFFC003004000000
00008FFC000004000000
00008FFE000004000000
00008FFFEDDDA1000000
00008FFFFFFA10000000
00005FFFFF8000000000
ENDCHAR
STARTCHAR tbar
ENCODING 359
SWIDTH 756 0
DWIDTH 18 0
BBX 19 21 0 -3
BITMAP
00163444444444444500
01C70000000000000310
1CF70000000000000310
BFF70244445444430310
EFF70000004000000310
EFFC7665004004666300
EFFFFFFC004008FF7000
DFFFFFFC004008F60000
3777BB98004005741000
0002D200004000004000
004EF203446443004000
02FFF200004000004000
03FFF854004003553000
03FFFFFC004008E40000
03FFFFFC004007200000
0089CFFC003004000000
00008FFC000004000000
00008FFE000004000000
00008FFFEDDDA1000000
00008FFFFFFA10000000
00005FFFFF8000000000
ENDCHAR
STARTCHAR Utilde
ENCODING 360
SWIDTH 846 0
DWIDTH 20 0
BBX 20 27 0 -3
BITMAP
00000003444431255000
00000072000013414000
00001BA0010000004000
0001CFA0134455304000
0009FFA0000000002000
000AFFC3797531121000
000A944448FFFE444443
003E400003FFFB000004
05FF4012035EFB002004
0FFF4013038FFB004004
1FFF4013039FFB004004
1FFF4013039FFB004004
1FFF4013039FFB004004
1FFF4013039FFB004004
1FFF4013039FFB004004
1FFF4013039FFB004004
1FFF4013039FFB004004
1FFF4013039FFB004004
1FFF400301BFF8004004
1FFF5004000210014004
1FFF7003300000150013
0FFFC000144444300040
0DFFF800000000000330
09FFFFC6200000148300
02EFFFFFFFEDEEFC2000
003DFFFFFFFFFFA10000
00006ADEFEEC93000000
ENDCHAR
STARTCHAR utilde
ENCODING 361
SWIDTH 846 0
DWIDTH 20 0
BBX 20 27 0 -3
BITMAP
00000003444431255000
00000072000013414000
00001BA0010000004000
0001CFA0134455304000
0009FFA0000000002000
000AFFC3797531121000
000A944448FFFE444443
003E400003FFFB000004
05FF4012035EFB002004
0FFF4013038FFB004004
1FFF4013039FFB004004
1FFF4013039FFB004004
1FFF4013039FFB004004
1FFF4013039FFB004004
1FFF4013039FFB004004
1FFF4013039FFB004004
1FFF4013039FFB004004
1FFF4013039FFB004004
1FFF400301BFF8004004
1FFF5004000210014004
1FFF7003300000150013
0FFFC000144444300040
0DFFF800000000000330
09FFFFC6200000148300
02EFFFFFFFEDEEFC2000
003DFFFFFFFFFFA10000
00006ADEFEEC93000000
ENDCHAR
STARTCHAR Umacron
ENCODING 362
SWIDTH 846 0
DWIDTH 20 0
BBX 20 26 0 -3
BITMAP
00000024444444444000
000004A0000000004000
00005FA0144444204000
0005FFA0000000003000
000AFFC1000000002000
000AFFFFFFFFFFFFFFE3
000A600005FFFD100015
008F400003BDFB000004
0AFF4013034FFB004004
1FFF4013039FFB004004
1FFF4013039FFB004004
1FFF4013039FFB004004
1FFF4013039FFB004004
1FFF4013039FFB004004
1FFF4013039FFB004004
1FFF4013039FFB004004
1FFF4013039FFB004004
1FFF401302BFF9004004
1FFF5004001330004004
1FFF6003300000150003
0FFFB000244444300030
0EFFF700000000000220
0AFFFFC6200000148300
03EFFFFFFFEDEEFC2000
004EFFFFFFFFFFA10000
00016ADEFEEC93000000
ENDCHAR
STARTCHAR umacron
ENCODING 363
SWIDTH 846 0
DWIDTH 20 0
BBX 20 26 0 -3
BITMAP
00000024444444444000
000004A0000000004000
00005FA0144444204000
0005FFA0000000003000
000AFFC1000000002000
000AFFFFFFFFFFFFFFE3
000A600005FFFD100015
008F400003BDFB000004
0AFF4013034FFB004004
1FFF4013039FFB004004
1FFF4013039FFB004004
1FFF4013039FFB004004
1FFF4013039FFB004004
1FFF4013039FFB004004
1FFF4013039FFB004004
1FFF4013039FFB004004
1FFF4013039FFB004004
1FFF401302BFF9004004
1FFF5004001330004004
1FFF6003300000150003
0FFFB000244444300030
0EFFF700000000000220
0AFFFFC6200000148300
03EFFFFFFFEDEEFC2000
004EFFFFFFFFFFA10000
00016ADEFEEC93000000
ENDCHAR
STARTCHAR Ubreve
ENCODING 364
SWIDTH 846 0
DWIDTH 20 0
BBX 20 27 0 -3
BITMAP
00000033443014444000
000008800032C2001200
0001BF80401120411200
000BFFA0044444203000
000CFFE2000000000000
000BFFFE731002310000
0007944448FFFE444443
002C400003FFFB000004
03DF400003BCFB000004
0EFF4013034FFB004004
1FFF4013039FFB004004
1FFF4013039FFB004004
1FFF4013039FFB004004
1FFF4013039FFB004004
1FFF4013039FFB004004
1FFF4013039FFB004004
1FFF4013039FFB004004
1FFF4013039FFB004004
1FFF401301BFF9004004
1FFF5004001330004004
1FFF7003300000150013
0FFFC000244444300040
0EFFF800000000000330
09FFFFC6200000148300
02EFFFFFFFEDEEFC2000
004DFFFFFFFFFFA10000
00016ADEFEEC93000000
ENDCHAR
STARTCHAR ubreve
ENCODING 365
SWIDTH 846 0
DWIDTH 20 0
BBX 20 27 0 -3
BITMAP
00000033443014444000
000008800032C2001200
0001BF80401120411200
000BFFA0044444203000
000CFFE2000000000000
000BFFFE731002310000
0007944448FFFE444443
002C400003FFFB000004
03DF400003BCFB000004
0EFF4013034FFB004004
1FFF4013039FFB004004
1FFF4013039FFB004004
1FFF4013039FFB004004
1FFF4013039FFB004004
1FFF4013039FFB004004
1FFF4013039FFB004004
1FFF4013039FFB004004
1FFF4013039FFB004004
1FFF401301BFF9004004
1FFF5004001330004004
1FFF7003300000150013
0FFFC000244444300040
0EFFF800000000000330
09FFFFC6200000148300
02EFFFFFFFEDEEFC2000
004DFFFFFFFFFFA10000
00016ADEFEEC93000000
ENDCHAR
STARTCHAR Uring
ENCODING 366
SWIDTH 846 0
DWIDTH 20 0
BBX 20 31 0 -3
BITMAP
00000000344444410000
00000015234444143000
000003B0410000505000
00005E90405CB1213100
0005FF80409FF2121200
000AFF80407FD1211200
000CFF80310000501100
000CFFA0034344102000
000CFFE2000000001000
000BFFFE731002310000
0006944448FFFE444443
003D400003FFFB000004
04EF4001035BFB002004
0FFF4013037FFB004004
1FFF4013039FFB004004
1FFF4013039FFB004004
1FFF4013039FFB004004
1FFF4013039FFB004004
1FFF4013039FFB004004
1FFF4013039FFB004004
1FFF4013039FFB004004
1FFF4013039FFB004004
1FFF4013039FFB004004
1FFF5004009DC5004004
1FFF7003300000150013
0FFFC000144444300040
0DFFF800000000000330
09FFFFC6200000148300
02EFFFFFFFEDEEFC2000
004DFFFFFFFFFFA10000
00006ADEFEEC93000000
ENDCHAR
STARTCHAR uring
ENCODING 367
SWIDTH 846 0
DWIDTH 20 0
BBX 20 31 0 -3
BITMAP
00000000344444410000
00000015234444143000
000003B0410000505000
00005E90405CB1213100
0005FF80409FF2121200
000AFF80407FD1211200
000CFF80310000501100
000CFFA0034344102000
000CFFE2000000001000
000BFFFE731002310000
0006944448FFFE444443
003D400003FFFB000004
04EF4001035BFB002004
0FFF4013037FFB004004
1FFF4013039FFB004004
1FFF4013039FFB004004
1FFF4013039FFB004004
1FFF4013039FFB004004
1FFF4013039FFB004004
1FFF4013039FFB004004
1FFF4013039FFB004004
1FFF4013039FFB004004
1FFF4013039FFB004004
1FFF5004009DC5004004
1FFF7003300000150013
0FFFC000144444300040
0DFFF800000000000330
09FFFFC6200000148300
02EFFFFFFFEDEEFC2000
004DFFFFFFFFFFA10000
00006ADEFEEC93000000
ENDCHAR
STARTCHAR Uhungarumlaut
ENCODING 368
SWIDTH 846 0
DWIDTH 20 0
BBX 20 29 0 -3
BITMAP
00000002444410444420
0000002B00004B100040
000003E90003CC000030
00003EF50407F9040200
00009FF2040AF5040200
0000CFD0110EF2020200
0001FFA0002FE0000100
0004FFA0007FD1003000
0008FFFFFFFFFFFFFFE3
000B600005FFFD100015
008F400003BDFB000004
0AFF4013034FFB004004
1FFF4013039FFB004004
1FFF4013039FFB004004
1FFF4013039FFB004004
1FFF4013039FFB004004
1FFF4013039FFB004004
1FFF4013039FFB004004
1FFF4013039FFB004004
1FFF4013039FFB004004
1FFF401302BFF9004004
1FFF5004001330004004
1FFF6003300000150003
0FFFB000244444300030
0EFFF700000000000220
0AFFFFC6200000148300
03EFFFFFFFEDEEFC2000
004EFFFFFFFFFFA10000
00016ADEFEEC93000000
ENDCHAR
STARTCHAR uhungarumlaut
ENCODING 369
SWIDTH 846 0
DWIDTH 20 0
BBX 20 29 0 -3
BITMAP
00000002444410444420
0000002B00004B100040
000003E90003CC000030
00003EF50407F9040200
00009FF2040AF5040200
0000CFD0110EF2020200
0001FFA0002FE0000100
0004FFA0007FD1003000
0008FFFFFFFFFFFFFFE3
000B600005FFFD100015
008F400003BDFB000004
0AFF4013034FFB004004
1FFF4013039FFB004004
1FFF4013039FFB004004
1FFF4013039FFB004004
1FFF4013039FFB004004
1FFF4013039FFB004004
1FFF4013039FFB004004
1FFF4013039FFB004004
1FFF4013039FFB004004
1FFF401302BFF9004004
1FFF5004001330004004
1FFF6003300000150003
0FFFB000244444300030
0EFFF700000000000220
0AFFFFC6200000148300
03EFFFFFFFEDEEFC2000
004EFFFFFFFFFFA10000
00016ADEFEEC93000000
ENDCHAR
STARTCHAR Uogonek
ENCODING 370
SWIDTH 846 0
DWIDTH 20 0
BBX 20 26 0 -8
BITMAP
00026444450006444443
003D40000300AB000004
04EF4012031BFB002004
0EFF4013038FFB004004
1FFF4013039FFB004004
1FFF4013039FFB004004
1FFF4013039FFB004004
1FFF4013039FFB004004
1FFF4013039FFB004004
1FFF4013039FFB004004
1FFF4013039FFB004004
1FFF4013039FFB004004
1FFF400301BFF8004004
1FFF5004000210004004
1FFF7003300000151014
0FFFC000144454400051
0DFFF800000300000360
0AFFFFC6300400138700
03FFFFFFF80407FF6000
006FFFFFF60401350000
0003AEFFF50440030000
000000DFF80000040000
000000FFFE5100040000
000000FFFFFFFF900000
000000CFFFFFF7000000
0000002ADDDD50000000
ENDCHAR
STARTCHAR uogonek
ENCODING 371
SWIDTH 846 0
DWIDTH 20 0
BBX 20 26 0 -8
BITMAP
00026444450006444443
003D40000300AB000004
04EF4012031BFB002004
0EFF4013038FFB004004
1FFF4013039FFB004004
1FFF4013039FFB004004
1FFF4013039FFB004004
1FFF4013039FFB004004
1FFF4013039FFB004004
1FFF4013039FFB004004
1FFF4013039FFB004004
1FFF4013039FFB004004
1FFF400301BFF8004004
1FFF5004000210004004
1FFF7003300000151014
0FFFC000144454400051
0DFFF800000300000360
0AFFFFC6300400138700
03FFFFFFF80407FF6000
006FFFFFF60401350000
0003AEFFF50440030000
000000DFF80000040000
000000FFFE5100040000
000000FFFFFFFF900000
000000CFFFFFF7000000
0000002ADDDD50000000
ENDCHAR
STARTCHAR Wcircumflex
ENCODING 372
SWIDTH 931 0
DWIDTH 22 0
BBX 22 27 0 -3
BITMAP
0000000000143420000000
0000000044300014420000
0000002900144430040000
000006EA00200012040000
00007FFA00158720030000
0000AFFD7BFFFFFD950000
000484444AFFFFFF644443
006F3000046BFFFE000003
08FF301004001BFE001004
2FFF303004004FFE004004
2FFF303004006FFE004004
2FFF303004006FFE004004
2FFF303004046AEE004004
2FFF303004A1005E004004
2FFF30300660000C004004
2FFF303004024305004004
2FFF303100040130004003
2FFF303100210040004004
2FFF500300403113004004
2FFF80040220E504003012
1FFFD0040403F902221030
0EFFF3024107FD00440030
0AFFF800000BFF20000220
05FFFE10001EFF70000400
01EFFFEDDDBFFFFDDDA100
009FFFFFE52FFFFFFA0000
002EFFFD3009FFFF800000
ENDCHAR
STARTCHAR wcircumflex
ENCODING 373
SWIDTH 931 0
DWIDTH 22 0
BBX 22 27 0 -3
BITMAP
0000000000143420000000
0000000044300014420000
0000002900144430040000
000006EA00200012040000
00007FFA00158720030000
0000AFFD7BFFFFFD950000
000484444AFFFFFF644443
006F3000046BFFFE000003
08FF301004001BFE001004
2FFF303004004FFE004004
2FFF303004006FFE004004
2FFF303004006FFE004004
2FFF303004046AEE004004
2FFF303004A1005E004004
2FFF30300660000C004004
2FFF303004024305004004
2FFF303100040130004003
2FFF303100210040004004
2FFF500300403113004004
2FFF80040220E504003012
1FFFD0040403F902221030
0EFFF3024107FD00440030
0AFFF800000BFF20000220
05FFFE10001EFF70000400
01EFFFEDDDBFFFFDDDA100
009FFFFFE52FFFFFFA0000
002EFFFD3009FFFF800000
ENDCHAR
STARTCHAR Ycircumflex
ENCODING 374
SWIDTH 805 0
DWIDTH 19 0
BBX 19 27 0 -3
BITMAP
00000000034441000000
00000025520004650000
00000560024430025000
00009F30320014004000
000CFF30000000004000
002FFF315ADEB7201000
003E54234EFFF9423450
007D000009EFF4000040
09FD0010043EF4010040
6FFD004004EFF4031040
8FFD004004FFF4031040
8FFD004004FFF4031040
8FFD004004FFF2040040
8FFF101301EF80040040
7FFF7003106D10400130
7FFFF300400002200400
4FFFFC00130013004100
0BFFFF90023530022000
02EFFFF5000400040000
005FFFFE200400400000
0009FFFF600400400000
0001DFFF600300400000
00003FFF600000400000
00000EFF700001300000
00000EFFFDDDD6000000
00000EFFFFFF50000000
00000BFFFFD300000000
ENDCHAR
STARTCHAR ycircumflex
ENCODING 375
SWIDTH 805 0
DWIDTH 19 0
BBX 19 27 0 -3
BITMAP
00000000034441000000
00000025520004650000
00000560024430025000
00009F30320014004000
000CFF30000000004000
002FFF315ADEB7201000
003E54234EFFF9423450
007D000009EFF4000040
09FD0010043EF4010040
6FFD004004EFF4031040
8FFD004004FFF4031040
8FFD004004FFF4031040
8FFD004004FFF2040040
8FFF101301EF80040040
7FFF7003106D10400130
7FFFF300400002200400
4FFFFC00130013004100
0BFFFF90023530022000
02EFFFF5000400040000
005FFFFE200400400000
0009FFFF600400400000
0001DFFF600300400000
00003FFF600000400000
00000EFF700001300000
00000EFFFDDDD6000000
00000EFFFFFF50000000
00000BFFFFD300000000
ENDCHAR
STARTCHAR Ydieresis
ENCODING 376
SWIDTH 805 0
DWIDTH 19 0
BBX 19 26 0 -3
BITMAP
00000344443344444000
00007900006C00004000
0009F901307C00304000
009FF900007C00103000
00BFFB00009E10001000
00BFFFFFFFFFFFFFFF90
00BE10001DFFF7000060
01DD000009CFF4000040
2DFD003004AFF4031040
7FFD004004FFF4031040
8FFD004004FFF4031040
8FFD004004FFF2030030
8FFE002201DF70040030
8FFF4004003800310010
7FFFD100400002200200
5FFFFB00130014002000
0DFFFF70023530012000
03FFFFF4000400030000
007FFFFE100400400000
000AFFFF600400400000
0001DFFF600300400000
00003FFF600000400000
00000EFF700001300000
00000EFFFDDDD6000000
00000EFFFFFF50000000
00000BFFFFD300000000
ENDCHAR
STARTCHAR Zacute
ENCODING 377
SWIDTH 760 0
DWIDTH 18 0
BBX 18 27 0 -3
BITMAP
00000000013579AA10
000002ABBA86420220
00004D100024430130
0006FD004310000120
005FFD000000001000
007FFE23468ACE8000
007F94444444444452
007F40000000000004
04EF40000000000004
0EFF40244444442004
1FFF60000000004004
1FFFFDDDDB10031013
1FFFFFFFF300220040
0CFFFFFF6001300310
000000A90004002300
000008C00040014000
00005D200400050000
0002E3003100410000
001D60022003200000
00BE00130005444443
08FD00400000000004
3FFD00244444444104
7FFD00000000000004
7FFE00000000000004
7FFFEDDDDDDDDDDDB2
7FFFFFFFFFFFFFFB10
4FFFFFFFFFFFFF9000
ENDCHAR
STARTCHAR zacute
ENCODING 378
SWIDTH 760 0
DWIDTH 18 0
BBX 18 27 0 -3
BITMAP
00000000013579AA10
000002ABBA86420220
00004D100024430130
0006FD004310000120
005FFD000000001000
007FFE23468ACE8000
007F94444444444452
007F40000000000004
04EF40000000000004
0EFF40244444442004
1FFF60000000004004
1FFFFDDDDB10031013
1FFFFFFFF300220040
0CFFFFFF6001300310
000000A90004002300
000008C00040014000
00005D200400050000
0002E3003100410000
001D60022003200000
00BE00130005444443
08FD00400000000004
3FFD00244444444104
7FFD00000000000004
7FFE00000000000004
7FFFEDDDDDDDDDDDB2
7FFFFFFFFFFFFFFB10
4FFFFFFFFFFFFF9000
ENDCHAR
STARTCHAR Zdotaccent
ENCODING 379
SWIDTH 760 0
DWIDTH 18 0
BBX 18 27 0 -3
BITMAP
000000014444430000
0000003C0000040000
000005EE0000040000
00004FFE0040040000
00006FFE0010030000
00006FFF2000120000
000264444444444452
003D40000000000004
04EF40000000000004
0EFF40244444442004
1FFF60000000004004
1FFFFDDDDB10031013
1FFFFFFFF300220040
0CFFFFFF6001300310
000000A90004002300
000008C00040014000
00005D200400050000
0002E3003100410000
001D60022003200000
00BE00130005444443
08FD00400000000004
3FFD00244444444104
7FFD00000000000004
7FFE00000000000004
7FFFEDDDDDDDDDDDB2
7FFFFFFFFFFFFFFB10
4FFFFFFFFFFFFF9000
ENDCHAR
STARTCHAR zdotaccent
ENCODING 380
SWIDTH 760 0
DWIDTH 18 0
BBX 18 27 0 -3
BITMAP
000000014444430000
0000003C0000040000
000005EE0000040000
00004FFE0040040000
00006FFE0010030000
00006FFF2000120000
000264444444444452
003D40000000000004
04EF40000000000004
0EFF40244444442004
1FFF60000000004004
1FFFFDDDDB10031013
1FFFFFFFF300220040
0CFFFFFF6001300310
000000A90004002300
000008C00040014000
00005D200400050000
0002E3003100410000
001D60022003200000
00BE00130005444443
08FD00400000000004
3FFD00244444444104
7FFD00000000000004
7FFE00000000000004
7FFFEDDDDDDDDDDDB2
7FFFFFFFFFFFFFFB10
4FFFFFFFFFFFFF9000
ENDCHAR
STARTCHAR Zcaron
ENCODING 381
SWIDTH 760 0
DWIDTH 18 0
BBX 18 27 0 -3
BITMAP
000002011000144500
00007A001344300400
001AFA012000120400
009FFA002444300300
00BFFE710000003000
00BFFFFFA403891000
009F94444444444452
001D40000000000004
02CF40000000000004
0DFF40244444442004
1FFF60000000004004
1FFFFDDDDB10031013
1FFFFFFFF300220040
0DFFFFFF6001300310
000000A90004002300
000008C00040014000
00005D200400050000
0002E3003100410000
001D60022003200000
00BE00130005444443
08FD00400000000004
3FFD00244444444104
7FFD00000000000004
7FFE00000000000004
7FFFEDDDDDDDDDDDB2
7FFFFFFFFFFFFFFB10
4FFFFFFFFFFFFF9000
ENDCHAR
STARTCHAR zcaron
ENCODING 382
SWIDTH 760 0
DWIDTH 18 0
BBX 18 27 0 -3
BITMAP
000002011000144500
00007A001344300400
001AFA012000120400
009FFA002444300300
00BFFE710000003000
00BFFFFFA403891000
009F94444444444452
001D40000000000004
02CF40000000000004
0DFF40244444442004
1FFF60000000004004
1FFFFDDDDB10031013
1FFFFFFFF300220040
0DFFFFFF6001300310
000000A90004002300
000008C00040014000
00005D200400050000
0002E3003100410000
001D60022003200000
00BE00130005444443
08FD00400000000004
3FFD00244444444104
7FFD00000000000004
7FFE00000000000004
7FFFEDDDDDDDDDDDB2
7FFFFFFFFFFFFFFB10
4FFFFFFFFFFFFF9000
ENDCHAR
STARTCHAR Schwa
ENCODING 399
SWIDTH 815 0
DWIDTH 20 0
BBX 19 21 0 -3
BITMAP
00000544444444333000
00007D00000000001500
0009FD00444444400140
006FFD00000000150040
007FFF21111100040040
007FFFFFFFFFF5021040
007FFFFFFFFFF8022040
003F3000000000022040
007F0000000000022040
0AFF0034444444452040
4FFF0040000000022040
4FFF004008FFF8022040
4FFF004005FFF5022040
4FFF1040001210030040
4FFF3015000000150040
4FFF8001444444300040
4FFFF500000000000410
1FFFFFA5200000268100
0AFFFFFFFFEDEFF90000
01BFFFFFFFFFFE600000
00049CEEFEDB72000000
ENDCHAR
STARTCHAR florin
ENCODING 402
SWIDTH 674 0
DWIDTH 16 0
BBX 16 21 0 -3
BITMAP
0000000014444444
0000000260000004
0000003A00000004
000005F400144104
00005FF101400004
0000DFE004000342
0003FFE004008F60
000AA98004006743
01AD000004000004
1CFD004446444104
7FFD000004000004
8FFE100004000004
8FFFFFD004009F90
7FFFED8004009600
18CE000014004000
07FD004440013000
5FFD000000050000
8FFE000014610000
8FFFEDDEF8000000
7FFFFFFE50000000
5FFFEC8200000000
ENDCHAR
STARTCHAR Ohorn
ENCODING 416
SWIDTH 847 0
DWIDTH 20 0
BBX 21 23 0 -3
BITMAP
0000000000000001544430
000000000000002C300040
0000002333333345004030
0000041000000000051040
0001800011001377411610
003D600200000008201300
03EF301200000000500400
0BFF203003DFE500400400
1FFF204006FFF900400400
3FFF204006FFF900400400
3FFF204004CFF900400400
3FFF204004BFF900400400
3FFF204004BFF900400400
3FFF204004BFF900400400
3FFF203104BFF900400400
3FFF3014018BA301300300
3FFF400420000015002200
3FFF900024444430004000
2FFFF60000000000032000
0EFFFFB620000025820000
08FFFFFFFFEDEEFC100000
00AFFFFFFFFFFF91000000
00038BEEFEEB8300000000
ENDCHAR
STARTCHAR ohorn
ENCODING 417
SWIDTH 847 0
DWIDTH 20 0
BBX 21 23 0 -3
BITMAP
0000000000000001544430
000000000000002C300040
0000002333333345004030
0000041000000000051040
0001800011001377411610
003D600200000008201300
03EF301200000000500400
0BFF203003DFE500400400
1FFF204006FFF900400400
3FFF204006FFF900400400
3FFF204004CFF900400400
3FFF204004BFF900400400
3FFF204004BFF900400400
3FFF204004BFF900400400
3FFF203104BFF900400400
3FFF3014018BA301300300
3FFF400420000015002200
3FFF900024444430004000
2FFFF60000000000032000
0EFFFFB620000025820000
08FFFFFFFFEDEEFC100000
00AFFFFFFFFFFF91000000
00038BEEFEEB8300000000
ENDCHAR
STARTCHAR Uhorn
ENCODING 431
SWIDTH 856 0
DWIDTH 21 0
BBX 21 23 0 -3
BITMAP
0000000000000000544440
000000000000001A600040
0002644445000333004040
003E400003008B00023040
05EF4012031BFB00540330
0FFF4013038FFB00400400
1FFF4013039FFB00400400
1FFF4013039FFB00400400
1FFF4013039FFB00400400
1FFF4013039FFB00400400
1FFF4013039FFB00400400
1FFF4013039FFB00400400
1FFF4013039FFB00400400
1FFF4013039FFB00400400
1FFF400301BFF800400400
1FFF500400021001400400
1FFF700330000015001300
1FFFC00014444430004000
0FFFF80000000000033000
0CFFFFC620000014830000
05FFFFFFFFEDEEFC200000
006EFFFFFFFFFFA1000000
00017BDEFEEC9300000000
ENDCHAR
STARTCHAR uhorn
ENCODING 432
SWIDTH 856 0
DWIDTH 21 0
BBX 21 23 0 -3
BITMAP
0000000000000000544440
000000000000001A600040
0002644445000333004040
003E400003008B00023040
05EF4012031BFB00540330
0FFF4013038FFB00400400
1FFF4013039FFB00400400
1FFF4013039FFB00400400
1FFF4013039FFB00400400
1FFF4013039FFB00400400
1FFF4013039FFB00400400
1FFF4013039FFB00400400
1FFF4013039FFB00400400
1FFF4013039FFB00400400
1FFF400301BFF800400400
1FFF500400021001400400
1FFF700330000015001300
1FFFC00014444430004000
0FFFF80000000000033000
0CFFFFC620000014830000
05FFFFFFFFEDEEFC200000
006EFFFFFFFFFFA1000000
00017BDEFEEC9300000000
ENDCHAR
STARTCHAR Acaron
ENCODING 461
SWIDTH 830 0
DWIDTH 20 0
BBX 20 27 0 -3
BITMAP
00000020100002445000
00000970023442004000
0001BF70110002104000
000BFF80024442003000
000DFFE6100000120000
000DFFFFE93039800000
000CFFF9444444451000
0003AEE0000000004000
00000980000000004000
00008F30034443002200
0004FC00210002200400
000AF600305F30300400
001FF10120AF80210130
007FB00300EFC0030040
00CF600204FFF2020040
03FF3020001110002031
09FF1030000000003013
0EFF1044444444444003
2FFF1040000000004003
4FFF1040000000004003
4FFF10400AFFF8004003
4FFF10400AFFF8004003
4FFF100009FFF8000003
4FFF200004CFFA000022
4FFFEDDDA1CFFFDDDD50
4FFFFFF900CFFFFFE400
2EFFFE70008FFFFD3000
ENDCHAR
STARTCHAR acaron
ENCODING 462
SWIDTH 830 0
DWIDTH 20 0
BBX 20 27 0 -3
BITMAP
00000020100002445000
00000970023442004000
0001BF70110002104000
000BFF80024442003000
000DFFE6100000120000
000DFFFFE93039800000
000CFFF9444444451000
0003AEE0000000004000
00000980000000004000
00008F30034443002200
0004FC00210002200400
000AF600305F30300400
001FF10120AF80210130
007FB00300EFC0030040
00CF600204FFF2020040
03FF3020001110002031
09FF1030000000003013
0EFF1044444444444003
2FFF1040000000004003
4FFF1040000000004003
4FFF10400AFFF8004003
4FFF10400AFFF8004003
4FFF100009FFF8000003
4FFF200004CFFA000022
4FFFEDDDA1CFFFDDDD50
4FFFFFF900CFFFFFE400
2EFFFE70008FFFFD3000
ENDCHAR
STARTCHAR Icaron
ENCODING 463
SWIDTH 705 0
DWIDTH 17 0
BBX 17 27 0 -3
BITMAP
000010010000344200
0003D0013444100400
005FF0030000300400
04FFF0004444100300
05FFFA300000021000
05FFFFFC6116A40000
04FF64444444444510
005F00000000000030
03DF00000000000030
2EFF00344454430030
4FFF10000120000030
4FFFA7720120177500
4FFFFFF401203F9000
4FFFFFF40120380000
0566FFF40120300000
0001FFF40120300000
0001FFF40120300000
0001FFF40120300000
0001FFF40120300000
0001C9920120244500
002C10000120000130
03EF00344454430030
2FFF00000000000030
4FFF20000000000130
4FFFEDDDDDDDDDD700
4FFFFFFFFFFFFE5000
2EFFFFFFFFFFD30000
ENDCHAR
STARTCHAR icaron
ENCODING 464
SWIDTH 705 0
DWIDTH 17 0
BBX 17 27 0 -3
BITMAP
000010010000344200
0003D0013444100400
005FF0030000300400
04FFF0004444100300
05FFFA300000021000
05FFFFFC6116A40000
04FF64444444444510
005F00000000000030
03DF00000000000030
2EFF00344454430030
4FFF10000120000030
4FFFA7720120177500
4FFFFFF401203F9000
4FFFFFF40120380000
0566FFF40120300000
0001FFF40120300000
0001FFF40120300000
0001FFF40120300000
0001FFF40120300000
0001C9920120244500
002C10000120000130
03EF00344454430030
2FFF00000000000030
4FFF20000000000130
4FFFEDDDDDDDDDD700
4FFFFFFFFFFFFE5000
2EFFFFFFFFFFD30000
ENDCHAR
STARTCHAR Ocaron
ENCODING 465
SWIDTH 837 0
DWIDTH 20 0
BBX 20 27 0 -3
BITMAP
00000197630001445000
00002D80025443004000
0004EF80120001104000
000BFF90024442003000
000CFFE6100000053000
000CFFFFEA4039D40000
000AFFFD976667642000
00006C30000000002400
00019100243334300050
003D6004200000150031
03EF3013000000013003
0CFF203003DFE5004003
1FFF204006FFF9004004
3FFF204006FFF9004004
3FFF204004CFF9004004
3FFF204004BFF9004004
3FFF204004BFF9004004
3FFF204004BFF9004004
3FFF203004BFF9004004
3FFF3013018BA3013004
3FFF4004200000150013
2FFF9000244444300040
1FFFF500000000000330
0CFFFFB5200000148400
04FFFFFFFFEDEEFD2000
005EFFFFFFFFFFA10000
00016ADEFEEB83000000
ENDCHAR
STARTCHAR ocaron
ENCODING 466
SWIDTH 837 0
DWIDTH 20 0
BBX 20 27 0 -3
BITMAP
00000197630001445000
00002D80025443004000
0004EF80120001104000
000BFF90024442003000
000CFFE6100000053000
000CFFFFEA4039D40000
000AFFFD976667642000
00006C30000000002400
00019100243334300050
003D6004200000150031
03EF3013000000013003
0CFF203003DFE5004003
1FFF204006FFF9004004
3FFF204006FFF9004004
3FFF204004CFF9004004
3FFF204004BFF9004004
3FFF204004BFF9004004
3FFF204004BFF9004004
3FFF203004BFF9004004
3FFF3013018BA3013004
3FFF4004200000150013
2FFF9000244444300040
1FFFF500000000000330
0CFFFFB5200000148400
04FFFFFFFFEDEEFD2000
005EFFFFFFFFFFA10000
00016ADEFEEB83000000
ENDCHAR
STARTCHAR Ucaron
ENCODING 467
SWIDTH 846 0
DWIDTH 20 0
BBX 20 28 0 -3
BITMAP
00000011000000000000
000002B8851001445000
00004EA0015443004000
0005FFA0120001204000
000AFFA0014443003000
000AFFE7100000030000
000AFFFFFA5038A10000
0006944448FFFE444443
003E400003B6BB000004
05EF4012031BFB002004
0FFF4013038FFB004004
1FFF4013039FFB004004
1FFF4013039FFB004004
1FFF4013039FFB004004
1FFF4013039FFB004004
1FFF4013039FFB004004
1FFF4013039FFB004004
1FFF4013039FFB004004
1FFF4013039FFB004004
1FFF400301BFF8004004
1FFF5004000210014004
1FFF7003300000150013
0FFFC000144444300040
0DFFF800000000000330
09FFFFC6200000148300
02EFFFFFFFEDEEFC2000
003DFFFFFFFFFFA10000
00006ADEFEEC93000000
ENDCHAR
STARTCHAR ucaron
ENCODING 468
SWIDTH 846 0
DWIDTH 20 0
BBX 20 28 0 -3
BITMAP
00000011000000000000
000002B8851001445000
00004EA0015443004000
0005FFA0120001204000
000AFFA0014443003000
000AFFE7100000030000
000AFFFFFA5038A10000
0006944448FFFE444443
003E400003B6BB000004
05EF4012031BFB002004
0FFF4013038FFB004004
1FFF4013039FFB004004
1FFF4013039FFB004004
1FFF4013039FFB004004
1FFF4013039FFB004004
1FFF4013039FFB004004
1FFF4013039FFB004004
1FFF4013039FFB004004
1FFF4013039FFB004004
1FFF400301BFF8004004
1FFF5004000210014004
1FFF7003300000150013
0FFFC000144444300040
0DFFF800000000000330
09FFFFC6200000148300
02EFFFFFFFEDEEFC2000
003DFFFFFFFFFFA10000
00006ADEFEEC93000000
ENDCHAR
STARTCHAR Udieresismacron
ENCODING 469
SWIDTH 846 0
DWIDTH 20 0
BBX 20 32 0 -3
BITMAP
00000024444444443000
00000490000000004000
00004F90000000004000
0004FF90144444204000
000BFFA0000000004000
000BFFFCCCDDDCCC7000
000BFF30001F60000400
000AFF10000F50000400
0008FF10300F50300400
003FFF10100F50100300
004FFF40002F70002000
004FFFFFFFFFFFFFFFE3
003F600005FFFD100015
01BF400003BDFB000004
0CFF4013034FFB004004
1FFF4013039FFB004004
1FFF4013039FFB004004
1FFF4013039FFB004004
1FFF4013039FFB004004
1FFF4013039FFB004004
1FFF4013039FFB004004
1FFF4013039FFB004004
1FFF4013039FFB004004
1FFF401302BFF9004004
1FFF5004001330004004
1FFF6003300000150003
0FFFB000244444300030
0EFFF700000000000220
0AFFFFC6200000148300
02EFFFFFFFEDEEFC2000
004EFFFFFFFFFFA10000
00016ADEFEEC93000000
ENDCHAR
STARTCHAR udieresismacron
ENCODING 470
SWIDTH 846 0
DWIDTH 20 0
BBX 20 32 0 -3
BITMAP
00000024444444443000
00000490000000004000
00004F90000000004000
0004FF90144444204000
000BFFA0000000004000
000BFFFCCCDDDCCC7000
000BFF30001F60000400
000AFF10000F50000400
0008FF10300F50300400
003FFF10100F50100300
004FFF40002F70002000
004FFFFFFFFFFFFFFFE3
003F600005FFFD100015
01BF400003BDFB000004
0CFF4013034FFB004004
1FFF4013039FFB004004
1FFF4013039FFB004004
1FFF4013039FFB004004
1FFF4013039FFB004004
1FFF4013039FFB004004
1FFF4013039FFB004004
1FFF4013039FFB004004
1FFF4013039FFB004004
1FFF401302BFF9004004
1FFF5004001330004004
1FFF6003300000150003
0FFFB000244444300030
0EFFF700000000000220
0AFFFFC6200000148300
02EFFFFFFFEDEEFC2000
004EFFFFFFFFFFA10000
00016ADEFEEC93000000
ENDCHAR
STARTCHAR Udieresisacute
ENCODING 471
SWIDTH 846 0
DWIDTH 20 0
BBX 20 33 0 -3
BITMAP
00000000000014400000
00000000018CDAA10000
000000002C6200210000
00000004ED0341210000
0000004FFD0000210000
0000007FFE0001300000
00000179994AC5444200
00001C20001F50000400
0003DF10000F50000400
001EFF10300F50300400
003FFF10100F50100300
004FFF40003F70002000
004FFFFFFFFFFFFFFFE3
005F600005FFFD100015
06FF400003BDFB000004
0FFF4013034FFB004004
1FFF4013039FFB004004
1FFF4013039FFB004004
1FFF4013039FFB004004
1FFF4013039FFB004004
1FFF4013039FFB004004
1FFF4013039FFB004004
1FFF4013039FFB004004
1FFF4013039FFB004004
1FFF401302BFF9004004
1FFF5004001330004004
1FFF6003300000150003
0FFFB000244444300030
0DFFF700000000000220
09FFFFC6200000148300
02EFFFFFFFEDEEFC2000
003DFFFFFFFFFFA10000
00006ADEFEEC93000000
ENDCHAR
STARTCHAR udieresisacute
ENCODING 472
SWIDTH 846 0
DWIDTH 20 0
BBX 20 33 0 -3
BITMAP
00000000000014400000
00000000018CDAA10000
000000002C6200210000
00000004ED0341210000
0000004FFD0000210000
0000007FFE0001300000
00000179994AC5444200
00001C20001F50000400
0003DF10000F50000400
001EFF10300F50300400
003FFF10100F50100300
004FFF40003F70002000
004FFFFFFFFFFFFFFFE3
005F600005FFFD100015
06FF400003BDFB000004
0FFF4013034FFB004004
1FFF4013039FFB004004
1FFF4013039FFB004004
1FFF4013039FFB004004
1FFF4013039FFB004004
1FFF4013039FFB004004
1FFF4013039FFB004004
1FFF4013039FFB004004
1FFF4013039FFB004004
1FFF401302BFF9004004
1FFF5004001330004004
1FFF6003300000150003
0FFFB000244444300030
0DFFF700000000000220
09FFFFC6200000148300
02EFFFFFFFEDEEFC2000
003DFFFFFFFFFFA10000
00006ADEFEEC93000000
ENDCHAR
STARTCHAR Udieresiscaron
ENCODING 473
SWIDTH 846 0
DWIDTH 20 0
BBX 20 33 0 -3
BITMAP
00000032210001445000
000007A0024443004000
00009FA0000000004000
0008FFA0151004303000
000AFFE6004441034000
000AFFFFE93027C60000
000AFFC999BED9744200
0005EF20001F50000400
00009F10000F50000400
000AFF10300F50300400
003FFF10100F50100300
004FFF40003F70002000
004FFFFFFFFFFFFFFFE3
004F600005FFFD100015
02DF400003BDFB000004
0DFF4013034FFB004004
1FFF4013039FFB004004
1FFF4013039FFB004004
1FFF4013039FFB004004
1FFF4013039FFB004004
1FFF4013039FFB004004
1FFF4013039FFB004004
1FFF4013039FFB004004
1FFF4013039FFB004004
1FFF401302BFF9004004
1FFF5004001330004004
1FFF6003300000150003
0FFFB000244444300030
0EFFF700000000000220
0AFFFFC6200000148300
02EFFFFFFFEDEEFC2000
004DFFFFFFFFFFA10000
00016ADEFEEC93000000
ENDCHAR
STARTCHAR udieresiscaron
ENCODING 474
SWIDTH 846 0
DWIDTH 20 0
BBX 20 33 0 -3
BITMAP
00000032210001445000
000007A0024443004000
00009FA0000000004000
0008FFA0151004303000
000AFFE6004441034000
000AFFFFE93027C60000
000AFFC999BED9744200
0005EF20001F50000400
00009F10000F50000400
000AFF10300F50300400
003FFF10100F50100300
004FFF40003F70002000
004FFFFFFFFFFFFFFFE3
004F600005FFFD100015
02DF400003BDFB000004
0DFF4013034FFB004004
1FFF4013039FFB004004
1FFF4013039FFB004004
1FFF4013039FFB004004
1FFF4013039FFB004004
1FFF4013039FFB004004
1FFF4013039FFB004004
1FFF4013039FFB004004
1FFF4013039FFB004004
1FFF401302BFF9004004
1FFF5004001330004004
1FFF6003300000150003
0FFFB000244444300030
0EFFF700000000000220
0AFFFFC6200000148300
02EFFFFFFFEDEEFC2000
004DFFFFFFFFFFA10000
00016ADEFEEC93000000
ENDCHAR
STARTCHAR Udieresisgrave
ENCODING 475
SWIDTH 846 0
DWIDTH 20 0
BBX 20 33 0 -3
BITMAP
00000000053000000000
00000001B9ADB6000000
0000003DE00038100000
000003EFE02422200000
000006FFE00002200000
000007FFF62001100000
000007C999BD81444200
00001C20001F50000400
0002DF10000F50000400
001EFF10300F50300400
003FFF10100F50100300
004FFF40003F70002000
004FFFFFFFFFFFFFFFE3
005F600005FFFD100015
06FF400003BDFB000004
0FFF4013034FFB004004
1FFF4013039FFB004004
1FFF4013039FFB004004
1FFF4013039FFB004004
1FFF4013039FFB004004
1FFF4013039FFB004004
1FFF4013039FFB004004
1FFF4013039FFB004004
1FFF4013039FFB004004
1FFF401302BFF9004004
1FFF5004001330004004
1FFF6003300000150003
0FFFB000244444300030
0DFFF700000000000220
09FFFFC6200000148300
02EFFFFFFFEDEEFC2000
003DFFFFFFFFFFA10000
00006ADEFEEC93000000
ENDCHAR
STARTCHAR udieresisgrave
ENCODING 476
SWIDTH 846 0
DWIDTH 20 0
BBX 20 33 0 -3
BITMAP
00000000053000000000
00000001B9ADB6000000
0000003DE00038100000
000003EFE02422200000
000006FFE00002200000
000007FFF62001100000
000007C999BD81444200
00001C20001F50000400
0002DF10000F50000400
001EFF10300F50300400
003FFF10100F50100300
004FFF40003F70002000
004FFFFFFFFFFFFFFFE3
005F600005FFFD100015
06FF400003BDFB000004
0FFF4013034FFB004004
1FFF4013039FFB004004
1FFF4013039FFB004004
1FFF4013039FFB004004
1FFF4013039FFB004004
1FFF4013039FFB004004
1FFF4013039FFB004004
1FFF4013039FFB004004
1FFF4013039FFB004004
1FFF401302BFF9004004
1FFF5004001330004004
1FFF6003300000150003
0FFFB000244444300030
0DFFF700000000000220
09FFFFC6200000148300
02EFFFFFFFEDEEFC2000
003DFFFFFFFFFFA10000
00006ADEFEEC93000000
ENDCHAR
STARTCHAR Gcaron
ENCODING 486
SWIDTH 808 0
DWIDTH 19 0
BBX 19 27 0 -3
BITMAP
00000010100003443000
00001B40023441004000
0002DF40210002004000
000EFF40034441003000
001FFFC4000000120000
001FFFFFD8215A600000
001FFFE8544444445100
0004A910000000001200
00004000000000001200
00096001444444301200
00BF3005000000002100
08FF202202BDDDDC5000
0EFF203006FFFFE30000
2FFF204006FFFC200000
3FFF2040040015444430
3FFF20400402C1000040
3FFF2040043EF0010040
3FFF204005EFF0040040
3FFF203005FFF0040040
3FFF3022003330040040
3FFF5006000000040040
2FFF9000444444450040
1FFFF400000000000040
0CFFFF83000000000030
04FFFFFFEDDDDDDDDA10
007FFFFFFFFFFFFFA100
0004ADFFFFFFFFF80000
ENDCHAR
STARTCHAR gcaron
ENCODING 487
SWIDTH 808 0
DWIDTH 19 0
BBX 19 27 0 -3
BITMAP
00000010100003443000
00001B40023441004000
0002DF40210002004000
000EFF40034441003000
001FFFC4000000120000
001FFFFFD8215A600000
001FFFE8544444445100
0004A910000000001200
00004000000000001200
00096001444444301200
00BF3005000000002100
08FF202202BDDDDC5000
0EFF203006FFFFE30000
2FFF204006FFFC200000
3FFF2040040015444430
3FFF20400402C1000040
3FFF2040043EF0010040
3FFF204005EFF0040040
3FFF203005FFF0040040
3FFF3022003330040040
3FFF5006000000040040
2FFF9000444444450040
1FFFF400000000000040
0CFFFF83000000000030
04FFFFFFEDDDDDDDDA10
007FFFFFFFFFFFFFA100
0004ADFFFFFFFFF80000
ENDCHAR
STARTCHAR Scommaaccent
ENCODING 536
SWIDTH 750 0
DWIDTH 18 0
BBX 18 30 0 -12
BITMAP
000002433444444440
000043000000000040
000660000000000040
009F10024444441040
08FF00230000000050
1FFF004006FFFFFB10
4FFF0040039BDFB000
5FFF00400000004520
5FFF20141000000041
5FFF90002333310004
4FFFFA200000023004
1FFFFFFDB973003004
08FFFFFFFFFD003004
006E63333332004003
006F00000000014003
08FF00344444430002
4FFF00000000000020
5FFF10000000003300
5FFFFEEEEEEEEF6000
5FFFFFFF4111160000
3EFFFFFF0000040000
00000AFF0244240000
00004FFF0000340000
00005FFF2001340000
00005FFFFDC3140000
00004FFF5243130000
000009FF9456400000
00000FFFFFE4000000
00001FFFFD20000000
000006775000000000
ENDCHAR
STARTCHAR scommaaccent
ENCODING 537
SWIDTH 750 0
DWIDTH 18 0
BBX 18 30 0 -12
BITMAP
000002433444444440
000043000000000040
000660000000000040
009F10024444441040
08FF00230000000050
1FFF004006FFFFFB10
4FFF0040039BDFB000
5FFF00400000004520
5FFF20141000000041
5FFF90002333310004
4FFFFA200000023004
1FFFFFFDB973003004
08FFFFFFFFFD003004
006E63333332004003
006F00000000014003
08FF00344444430002
4FFF00000000000020
5FFF10000000003300
5FFFFEEEEEEEEF6000
5FFFFFFF4111160000
3EFFFFFF0000040000
00000AFF0244240000
00004FFF0000340000
00005FFF2001340000
00005FFFFDC3140000
00004FFF5243130000
000009FF9456400000
00000FFFFFE4000000
00001FFFFD20000000
000006775000000000
ENDCHAR
STARTCHAR uni021A
ENCODING 538
SWIDTH 756 0
DWIDTH 18 0
BBX 19 30 0 -12
BITMAP
00164444444444444500
02C70000000000000310
3DF70000000000000310
CFF70244445444430310
EFF80000004000000300
EFFFDDDB004007DDC400
EFFFFFFC004008FD3000
AFFFFFFC004008C10000
00008FFC004004000000
00008FFC004004000000
00008FFC004004000000
00008FFC004004000000
00008FFC004004000000
00008FFC004004000000
00008FFC004004000000
00008FFC003004000000
00008FFC000004000000
00008FFE000004000000
00008FFFFEEEC1000000
00008FFE211124000000
00005FFD000004000000
00001CFD034504000000
00007FFD000314000000
00007FFE000314000000
00007FFFED9404000000
00007FFF334222000000
00001BFF745740000000
00002FFFFFD300000000
00003FFFFC1000000000
00000677400000000000
ENDCHAR
STARTCHAR uni021B
ENCODING 539
SWIDTH 756 0
DWIDTH 18 0
BBX 19 30 0 -12
BITMAP
00164444444444444500
02C70000000000000310
3DF70000000000000310
CFF70244445444430310
EFF80000004000000300
EFFFDDDB004007DDC400
EFFFFFFC004008FD3000
AFFFFFFC004008C10000
00008FFC004004000000
00008FFC004004000000
00008FFC004004000000
00008FFC004004000000
00008FFC004004000000
00008FFC004004000000
00008FFC004004000000
00008FFC003004000000
00008FFC000004000000
00008FFE000004000000
00008FFFFEEEC1000000
00008FFE211124000000
00005FFD000004000000
00001CFD034504000000
00007FFD000314000000
00007FFE000314000000
00007FFFED9404000000
00007FFF334222000000
00001BFF745740000000
00002FFFFFD300000000
00003FFFFC1000000000
00000677400000000000
ENDCHAR
STARTCHAR dotlessj
ENCODING 567
SWIDTH 788 0
DWIDTH 19 0
BBX 18 21 0 -3
BITMAP
000000000002544445
00000000003E400003
0000000004EF401104
000000001EFF402104
000000001FFF402104
000000001FFF402104
000000001FFF402104
000000001FFF402104
000244445FFF402104
005B00001FFF402104
07FB00101FFF402104
6FFB00401FFF402104
9FFB00400EFF203104
9FFC00400132004003
9FFD00240000023003
9FFF30014434420004
7FFFC1000000000041
3FFFFE730000025710
0BFFFFFFFEDEEF9000
01BFFFFFFFFFF70000
00049DEFEDB7200000
ENDCHAR
STARTCHAR ascript
ENCODING 593
SWIDTH 846 0
DWIDTH 20 0
BBX 20 21 0 -3
BITMAP
00000024444444443000
00000520000000001500
00019000244444200050
002D6003200000150040
02EF3013000000023022
0BFF203003DFE4004013
1FFF204006FFF8004013
2FFF204006FFF8004013
3FFF204004DFF8004003
3FFF204004CFF8004003
3FFF204004CFF8004003
3FFF204004CFF8004003
3FFF203004CFF8004003
3FFF3013016664004003
3FFF4005100000004004
3FFF9000444444443004
2FFFF400000000000004
0EFFFF83000000000013
09FFFFFFEDDDDDDDDD60
01CFFFFFFFFFFFFFE500
0006BEFFFFFFFFFD3000
ENDCHAR
STARTCHAR schwa
ENCODING 601
SWIDTH 815 0
DWIDTH 20 0
BBX 19 21 0 -3
BITMAP
00000544444444333000
00007D00000000001500
0009FD00444444400140
006FFD00000000150040
007FFF21111100040040
007FFFFFFFFFF5021040
007FFFFFFFFFF8022040
003F3000000000022040
007F0000000000022040
0AFF0034444444452040
4FFF0040000000022040
4FFF004008FFF8022040
4FFF004005FFF5022040
4FFF1040001210030040
4FFF3015000000150040
4FFF8001444444300040
4FFFF500000000000410
1FFFFFA5200000268100
0AFFFFFFFFEDEFF90000
01BFFFFFFFFFFE600000
00049CEEFEDB72000000
ENDCHAR
STARTCHAR gscript
ENCODING 609
SWIDTH 815 0
DWIDTH 20 0
BBX 19 22 0 -4
BITMAP
00000034444434442000
00001510000000002500
00028000333334300140
003E3015000000140040
04FF0040000000031040
0DFE004005EFD2012040
3FFE004009FFF5012040
5FFE004008FFF5012040
6FFF0040016662012040
6FFF2023000000012040
6FFF7002443333342040
5FFFE300000000012040
2FFFFF94100000012040
0CFFFFFFFFFFF4012040
03EFFFFFFFFFD2012040
0017CE10000000031040
0001AE00000000050050
002DFE00444444400320
006FFE00000000026200
007FFFEDDDDDDDEC1000
007FFFFFFFFFFFA00000
004FFFFFFFEDA4000000
ENDCHAR
STARTCHAR commaturnedmod
ENCODING 699
SWIDTH 600 0
DWIDTH 14 0
BBX 10 11 2 7
BITMAP
0000244443
0004614414
006F144DC2
06FF040004
2FFF040004
5FFF044414
5FFF000003
5FFF200003
5FFFFFFFA0
5FFFFFF900
2CDDDD7000
ENDCHAR
STARTCHAR apostrophemod
ENCODING 700
SWIDTH 600 0
DWIDTH 14 0
BBX 10 12 2 6
BITMAP
0001444443
002C000004
03DF000004
2EFF024424
5FFF000134
5FFF100124
5FFFFDB314
5FFF424312
09FF844640
1FFFFFE400
1FFFFD3000
0899610000
ENDCHAR
STARTCHAR ringhalfright
ENCODING 702
SWIDTH 412 0
DWIDTH 10 0
BBX 10 11 0 7
BITMAP
0017444341
03E8024204
5FF9000404
CFFFFC0404
CFFFFE0404
7BDC540404
03D8024204
4EF9000042
CFFFDDDD30
CFFFFFC200
AFFFD81000
ENDCHAR
STARTCHAR ringhalfleft
ENCODING 703
SWIDTH 412 0
DWIDTH 10 0
BBX 10 11 0 7
BITMAP
0001434434
0029014304
04E9040004
4FF8040BD4
AFF8040C30
CFF8040443
CFFA014304
CFFF500004
BFFFFEDDD4
9FFFFFFD30
1AEFFFB100
ENDCHAR
ENDFONT
